<?xml version="1.0" encoding="UTF-8"?>
<svg id="_레이어_2" data-name="레이어 2" xmlns="http://www.w3.org/2000/svg" viewBox="0 0 77.01 27.05">
  <defs>
    <style>
      .cls-1 {
        fill: #000000;
      }
    </style>
  </defs>
  <g id="_레이어_1-2" data-name="레이어 1">
    <g>
      <path class="cls-1" d="M0,13C0,7.6,2.17,3.29,4.53,0h2.05c-2.05,3.47-3.63,7.91-3.63,13,0,5.49,1.3,9.77,3.63,14.05h-2.05C1.99,23.17,0,18.83,0,13Z"/>
      <path class="cls-1" d="M7.25,15.88h2.73c.37,3.75,2.67,5.71,6.86,5.71,3.07,0,5.27-1.4,5.27-4.16,0-3.04-2.67-3.75-6.64-4.62-3.91-.87-7.26-1.99-7.26-6.17,0-3.66,3.04-5.86,7.54-5.86,5.55,0,7.85,2.82,8.41,6.92h-2.64c-.4-3.16-2.45-4.75-5.71-4.75-3.01,0-4.99,1.27-4.99,3.57,0,2.51,2.48,3.26,5.8,3.91,4.31.87,8.25,1.92,8.25,6.92,0,4.16-3.38,6.48-8.16,6.48-6.24,0-9.21-3.47-9.46-7.94Z"/>
      <path class="cls-1" d="M37.46,21.16h-.03c-.96,1.24-2.61,2.54-5.34,2.54-3.04,0-5.43-1.43-5.43-4.47,0-3.78,2.98-4.56,6.98-5.18,2.26-.34,3.85-.56,3.85-2.3s-1.3-2.82-3.6-2.82c-2.61,0-3.91,1.12-4,3.54h-2.42c.09-3.1,2.14-5.43,6.39-5.43,3.41,0,5.92,1.27,5.92,5.09v7.63c0,1.3.31,2.02,1.71,1.71h.09v1.83c-.31.12-.71.25-1.37.25-1.64,0-2.51-.75-2.76-2.39ZM37.52,17.46v-2.73c-.84.53-2.29.93-3.66,1.18-2.51.47-4.53.9-4.53,3.26,0,2.14,1.68,2.61,3.32,2.61,3.35,0,4.87-2.45,4.87-4.31Z"/>
      <path class="cls-1" d="M41.02,7.35h2.7l3.32,10.17c.47,1.43,1.05,3.38,1.05,3.38h.06s.59-1.99,1.05-3.38l3.38-10.17h2.61l-5.77,16.04h-2.79l-5.61-16.04Z"/>
      <path class="cls-1" d="M55.24,15.39c0-4.65,3.04-8.44,7.6-8.44,4.81,0,7.38,3.72,7.38,9.03h-12.41c.19,3.26,1.96,5.74,5.18,5.74,2.33,0,3.88-1.12,4.44-3.29h2.45c-.74,3.44-3.26,5.4-6.89,5.4-4.9,0-7.75-3.79-7.75-8.44ZM57.88,14.08h9.65c-.16-3.2-1.8-5.15-4.68-5.15s-4.59,2.23-4.96,5.15Z"/>
      <path class="cls-1" d="M74.07,13c0-5.09-1.58-9.52-3.63-13h2.05c2.36,3.29,4.53,7.6,4.53,13,0,5.83-1.99,10.17-4.53,14.05h-2.05c2.33-4.28,3.63-8.56,3.63-14.05Z"/>
    </g>
  </g>
</svg>