<?xml version="1.0" encoding="UTF-8"?>
<svg id="_레이어_2" data-name="레이어 2" xmlns="http://www.w3.org/2000/svg" viewBox="0 0 89.31 27.05">
  <defs>
    <style>
      .cls-1 {
        fill: #000000;
      }
    </style>
  </defs>
  <g id="_레이어_1-2" data-name="레이어 1">
    <g>
      <path class="cls-1" d="M0,13C0,7.6,2.17,3.29,4.53,0h2.05c-2.05,3.47-3.63,7.91-3.63,13,0,5.49,1.3,9.77,3.63,14.05h-2.05C1.99,23.17,0,18.83,0,13Z"/>
      <path class="cls-1" d="M8.77,1.21h10.36c3.91,0,6.55,2.45,6.55,6.08,0,2.7-1.18,4.62-3.85,5.49v.09c2.26.81,2.98,2.36,3.19,5.65.25,3.57.62,4.47,1.02,4.75v.12h-3.01c-.46-.4-.56-1.24-.81-4.96-.22-3.26-1.52-4.4-4.5-4.4h-6.17v9.37h-2.79V1.21ZM11.56,11.76h6.58c3.1,0,4.65-1.55,4.65-4.06,0-2.7-1.24-4.06-4.5-4.06h-6.73v8.13Z"/>
      <path class="cls-1" d="M27.62,15.39c0-4.65,3.04-8.44,7.6-8.44,4.81,0,7.38,3.72,7.38,9.03h-12.41c.19,3.26,1.96,5.74,5.18,5.74,2.33,0,3.88-1.12,4.44-3.29h2.45c-.74,3.44-3.26,5.4-6.89,5.4-4.9,0-7.75-3.79-7.75-8.44ZM30.25,14.08h9.65c-.16-3.2-1.8-5.15-4.68-5.15s-4.59,2.23-4.96,5.15Z"/>
      <path class="cls-1" d="M43.79,18.18h2.57c.34,2.79,2.2,3.57,4.59,3.57,2.64,0,3.72-1.15,3.72-2.64,0-1.8-1.24-2.26-4.19-2.88-3.16-.65-5.99-1.3-5.99-4.81,0-2.67,2.05-4.4,5.77-4.4,3.97,0,5.92,1.89,6.3,5.03h-2.57c-.25-2.11-1.4-3.04-3.79-3.04s-3.23,1.02-3.23,2.29c0,1.74,1.55,2.08,4.31,2.64,3.23.65,5.92,1.37,5.92,5.06,0,3.23-2.64,4.87-6.33,4.87-4.41,0-6.86-2.08-7.1-5.68Z"/>
      <path class="cls-1" d="M58.5,15.39c0-4.65,3.04-8.44,7.6-8.44,4.81,0,7.38,3.72,7.38,9.03h-12.41c.19,3.26,1.96,5.74,5.18,5.74,2.33,0,3.88-1.12,4.44-3.29h2.45c-.74,3.44-3.26,5.4-6.89,5.4-4.9,0-7.75-3.79-7.75-8.44ZM61.13,14.08h9.65c-.16-3.2-1.8-5.15-4.68-5.15s-4.59,2.23-4.96,5.15Z"/>
      <path class="cls-1" d="M74.05,7.35h2.33V2.29h2.51v5.06h3.1v2.05h-3.1v10.42c0,1.12.59,1.49,1.61,1.49.5,0,1.05-.12,1.33-.22h.09v2.17c-.59.12-1.27.22-2.02.22-2.05,0-3.54-.84-3.54-3.1v-10.98h-2.33v-2.05Z"/>
      <path class="cls-1" d="M86.36,13c0-5.09-1.58-9.52-3.63-13h2.05c2.36,3.29,4.53,7.6,4.53,13,0,5.83-1.99,10.17-4.53,14.05h-2.05c2.33-4.28,3.63-8.56,3.63-14.05Z"/>
    </g>
  </g>
</svg>