<?xml version="1.0" encoding="UTF-8"?>
<svg id="_레이어_1" data-name="레이어 1" xmlns="http://www.w3.org/2000/svg" viewBox="0 0 1080 1920">
  <defs>
    <style>
      .cls-1 {
        fill: #221e1f;
      }
    </style>
  </defs>
  <path class="cls-1" d="M495.24,1783.75h2.48v-2.53h-2.48v2.53ZM488.68,1783.75h2.37l4.44-12.36h-2.21l-2.21,6.67c-.55,1.66-1.08,3.94-1.08,3.94h-.05s-.6-2.28-1.13-3.94l-2.16-6.68h-2.28l4.3,12.36ZM480.87,1783.75h2.14v-12.36h-2.14v12.36ZM480.83,1769.1h2.23v-2.48h-2.23v2.48ZM470.07,1771.38h-2.12v12.36h2.14v-7.53c0-1.98,1.38-3.34,3.29-3.34,1.68,0,2.72.9,2.72,2.49v8.38h2.11v-8.64c0-2.58-1.58-4.03-4.16-4.03-1.8,0-3.02.8-3.92,2.05h-.07v-1.75ZM458.6,1784c3.75,0,6.61-1.7,6.61-5.82v-11.56h-2.35v11.35c0,2.81-1.57,4.03-4.22,4.03s-4.31-1.22-4.31-4.03v-11.35h-2.35v11.56c0,4.12,2.76,5.82,6.61,5.82M441.96,1783.75h2.51l-5.27-7.92,4.72-4.44h-2.67l-5.37,5.27c.05-.6.1-1.47.1-1.91v-8.13h-2.14v17.13h2.14v-4.86l1.75-1.66,4.24,6.52ZM428.97,1783.75h2.14v-12.36h-2.14v12.36ZM428.93,1769.1h2.23v-2.48h-2.23v2.48ZM420.64,1781.45c-2.23,0-3.43-1.66-3.43-4.28s1.15-4.31,3.41-4.31c2.46,0,3.64,1.59,3.64,4.19s-.92,4.4-3.62,4.4M420.73,1788.07c1.66,0,3.04-.37,4.01-1.17.94-.81,1.5-2.03,1.5-3.67v-11.85h-2.12v1.63h-.05c-.78-1.24-1.98-1.93-3.75-1.93-2.9,0-5.3,2.25-5.3,6.05,0,3.59,2.25,6.05,5.41,6.05,1.75,0,2.84-.76,3.69-1.98h.05c-.02.39-.05,1.06-.05,1.77v.35c0,2.1-1.22,3.09-3.43,3.09-1.84,0-3.09-.53-3.27-1.82h-2c.23,2.19,2.07,3.47,5.32,3.47M404.7,1771.38h-2.12v12.36h2.14v-7.53c0-1.98,1.38-3.34,3.29-3.34,1.68,0,2.72.9,2.72,2.49v8.38h2.12v-8.64c0-2.58-1.59-4.03-4.17-4.03-1.8,0-3.02.8-3.92,2.05h-.07v-1.75ZM394.5,1782.35c-2.53,0-3.85-2.1-3.85-4.77s1.31-4.79,3.85-4.79,3.85,2.12,3.85,4.79-1.31,4.77-3.85,4.77M394.53,1784.09c3.73,0,6.01-2.9,6.01-6.52s-2.28-6.49-6.01-6.49-6.06,2.9-6.06,6.49,2.32,6.52,6.06,6.52M372.56,1783.75h2.35v-8.01h8.84v8.01h2.37v-17.13h-2.37v7.21h-8.84v-7.21h-2.35v17.13ZM361.41,1787.32c1.63-.21,2.46-1.31,2.46-3.34v-2.76h-2.48v2.53h1.15v.23c0,1.45-.48,1.91-1.13,2.14v1.2ZM350.82,1771.38h-2.12v12.36h2.14v-7.53c0-1.98,1.38-3.34,3.29-3.34,1.68,0,2.72.9,2.72,2.49v8.38h2.12v-8.64c0-2.58-1.59-4.03-4.17-4.03-1.8,0-3.02.8-3.92,2.05h-.07v-1.75ZM340.37,1781.45c-2.23,0-3.43-1.66-3.43-4.28s1.15-4.31,3.41-4.31c2.46,0,3.64,1.59,3.64,4.19s-.92,4.4-3.62,4.4M340.46,1788.07c1.66,0,3.04-.37,4.01-1.17.95-.81,1.5-2.03,1.5-3.67v-11.85h-2.12v1.63h-.05c-.78-1.24-1.98-1.93-3.75-1.93-2.9,0-5.3,2.25-5.3,6.05,0,3.59,2.25,6.05,5.41,6.05,1.75,0,2.83-.76,3.68-1.98h.05c-.02.39-.05,1.06-.05,1.77v.35c0,2.1-1.22,3.09-3.43,3.09-1.84,0-3.09-.53-3.27-1.82h-2c.23,2.19,2.07,3.47,5.32,3.47M330.38,1783.75h2.14v-12.36h-2.14v12.36ZM330.33,1769.1h2.23v-2.48h-2.23v2.48ZM323.33,1784.11c2.9,0,4.97-1.28,4.97-3.8,0-2.88-2.12-3.43-4.58-3.92-2.1-.41-3.29-.67-3.29-1.96,0-.94.71-1.73,2.4-1.73,1.77,0,2.65.71,2.83,1.98h2.14c-.28-2.14-1.82-3.59-4.93-3.59-2.88,0-4.53,1.33-4.53,3.45,0,2.72,2.18,3.22,4.6,3.73,2.19.44,3.23.78,3.23,2.14,0,1.1-.83,1.96-2.79,1.96-1.77,0-3.16-.6-3.41-2.4h-2.16c.19,2.51,2.12,4.12,5.53,4.12M310.78,1772.74c2.14,0,3.37,1.43,3.48,3.8h-7.16c.28-2.19,1.45-3.8,3.68-3.8M310.9,1784.09c2.86,0,4.83-1.56,5.39-3.87h-2.09c-.39,1.31-1.57,2.12-3.27,2.12-2.4,0-3.71-1.85-3.87-4.27h9.49c0-2.09-.51-3.87-1.52-5.09-.96-1.2-2.39-1.91-4.24-1.91-3.55,0-5.92,2.9-5.92,6.49s2.23,6.52,6.03,6.52M291.58,1781.7v-13.04h3.85c3.89,0,5.32,2.65,5.32,6.59s-1.59,6.45-5.46,6.45h-3.71ZM289.21,1783.75h6.17c5.14,0,7.8-3.38,7.8-8.49s-2.53-8.63-7.64-8.63h-6.33v17.13ZM272.21,1771.38h-2.11v12.36h2.14v-7.53c0-1.98,1.38-3.34,3.29-3.34,1.68,0,2.72.9,2.72,2.49v8.38h2.12v-8.64c0-2.58-1.59-4.03-4.17-4.03-1.8,0-3.02.8-3.92,2.05h-.07v-1.75ZM262.01,1782.35c-2.53,0-3.85-2.1-3.85-4.77s1.31-4.79,3.85-4.79,3.85,2.12,3.85,4.79-1.31,4.77-3.85,4.77M262.04,1784.09c3.73,0,6.01-2.9,6.01-6.52s-2.28-6.49-6.01-6.49-6.05,2.9-6.05,6.49,2.32,6.52,6.05,6.52M251.79,1783.75h2.14v-12.36h-2.14v12.36ZM251.75,1769.1h2.23v-2.48h-2.23v2.48ZM243.18,1773.04h1.93v8.29c0,1.82,1.15,2.49,2.8,2.51.55,0,1.15-.07,1.73-.21v-1.79h-.07c-.23.07-.71.16-1.08.16-.78,0-1.27-.25-1.27-1.15v-7.81h2.55v-1.65h-2.55v-3.89h-2.12v3.89h-1.93v1.65ZM235.67,1782.44c-1.24,0-2.46-.39-2.46-1.98,0-1.7,1.33-2.07,3.36-2.42,1.01-.18,2.1-.48,2.72-.87v2.02c0,1.43-1.15,3.25-3.62,3.25M235.14,1784c2.1,0,3.37-.99,4.15-2.07h.02c.23,1.31.87,1.93,2.18,1.93.51,0,.85-.09,1.15-.19v-1.5h-.09c-1.08.23-1.31-.3-1.31-1.29v-5.78c0-1.66-.62-2.74-1.66-3.36-.78-.46-1.82-.67-2.99-.67-3.34,0-4.93,1.86-5.02,3.96h2.07c.07-1.47,1.01-2.4,2.97-2.4,1.7,0,2.65.83,2.65,2.17,0,1.27-1.17,1.56-3,1.77-3.2.39-5.32,1.01-5.32,3.89,0,2.37,1.84,3.52,4.19,3.52M223.93,1784.09c3.13,0,5.09-1.77,5.37-4.72h-2.12c-.16,1.85-1.31,2.97-3.25,2.97-2.53,0-3.85-2.1-3.85-4.77s1.31-4.77,3.85-4.77c1.8,0,2.9.99,3.2,2.6h2.14c-.44-2.65-2.37-4.33-5.34-4.33-3.71,0-6.03,2.9-6.03,6.49s2.32,6.52,6.03,6.52M213.71,1783.75h2.14v-12.36h-2.14v12.36ZM213.66,1769.1h2.23v-2.48h-2.23v2.48ZM202.9,1771.38h-2.11v12.36h2.14v-7.53c0-1.98,1.38-3.34,3.29-3.34,1.68,0,2.72.9,2.72,2.49v8.38h2.12v-8.64c0-2.58-1.59-4.03-4.17-4.03-1.8,0-3.02.8-3.92,2.05h-.07v-1.75ZM198.05,1783.75v-12.36h-2.14v7.53c0,1.91-1.22,3.36-3.11,3.36-1.7,0-2.7-.92-2.7-2.49v-8.4h-2.14v8.52c0,2.58,1.63,4.12,4.19,4.12,1.77,0,2.86-.78,3.73-2h.05v1.73h2.12ZM168.65,1783.75h2.14v-7.62c0-1.89,1.59-3.25,3.07-3.25,1.27,0,2.12.9,2.12,2.42v8.45h2.11v-7.62c0-1.89,1.36-3.25,2.93-3.25,1.24,0,2.23.9,2.23,2.42v8.45h2.14v-8.64c0-2.58-1.56-4.03-3.82-4.03-1.5,0-2.95.76-3.82,2.3h-.05c-.5-1.52-1.7-2.3-3.2-2.3-1.59,0-2.9.8-3.67,2.14h-.07v-1.84h-2.12v12.36ZM149.26,1783.75h2.14v-7.62c0-1.89,1.59-3.25,3.06-3.25,1.27,0,2.12.9,2.12,2.42v8.45h2.12v-7.62c0-1.89,1.36-3.25,2.92-3.25,1.25,0,2.23.9,2.23,2.42v8.45h2.14v-8.64c0-2.58-1.57-4.03-3.82-4.03-1.5,0-2.95.76-3.82,2.3h-.05c-.51-1.52-1.7-2.3-3.2-2.3-1.59,0-2.9.8-3.66,2.14h-.07v-1.84h-2.12v12.36ZM141.18,1782.35c-2.53,0-3.85-2.1-3.85-4.77s1.31-4.79,3.85-4.79,3.85,2.12,3.85,4.79-1.31,4.77-3.85,4.77M141.2,1784.09c3.73,0,6.01-2.9,6.01-6.52s-2.28-6.49-6.01-6.49-6.06,2.9-6.06,6.49,2.32,6.52,6.06,6.52M126.34,1784.09c2.21,0,3.96-.62,5.16-1.82,1.22-1.17,2.03-3.06,2.05-4.77h-2.35c-.2,2.44-1.7,4.54-4.81,4.54-3.45,0-5.71-2.77-5.71-6.87s2.05-6.89,5.69-6.89c2.62,0,4.26,1.41,4.65,3.5h2.35c-.23-1.64-.97-3.04-2.19-4.03-1.15-.94-2.76-1.52-4.77-1.52-5.09,0-8.12,3.89-8.12,8.93s3.17,8.91,8.05,8.91M107.81,1783.75h2.14v-17.13h-2.14v17.13ZM99.24,1782.44c-1.24,0-2.46-.39-2.46-1.98,0-1.7,1.33-2.07,3.36-2.42,1.01-.18,2.1-.48,2.72-.87v2.02c0,1.43-1.15,3.25-3.62,3.25M98.72,1784c2.1,0,3.37-.99,4.15-2.07h.02c.23,1.31.87,1.93,2.18,1.93.51,0,.85-.09,1.15-.19v-1.5h-.09c-1.08.23-1.31-.3-1.31-1.29v-5.78c0-1.66-.62-2.74-1.66-3.36-.78-.46-1.82-.67-2.99-.67-3.34,0-4.93,1.86-5.02,3.96h2.07c.07-1.47,1.01-2.4,2.97-2.4,1.7,0,2.65.83,2.65,2.17,0,1.27-1.17,1.56-3,1.77-3.2.39-5.32,1.01-5.32,3.89,0,2.37,1.84,3.52,4.19,3.52M92.29,1783.75v-12.36h-2.14v7.53c0,1.91-1.22,3.36-3.11,3.36-1.7,0-2.7-.92-2.7-2.49v-8.4h-2.14v8.52c0,2.58,1.63,4.12,4.19,4.12,1.77,0,2.86-.78,3.73-2h.05v1.73h2.12ZM75.23,1784.11c2.9,0,4.97-1.28,4.97-3.8,0-2.88-2.11-3.43-4.58-3.92-2.1-.41-3.29-.67-3.29-1.96,0-.94.72-1.73,2.4-1.73,1.77,0,2.65.71,2.84,1.98h2.14c-.28-2.14-1.82-3.59-4.93-3.59-2.88,0-4.53,1.33-4.53,3.45,0,2.72,2.18,3.22,4.6,3.73,2.19.44,3.22.78,3.22,2.14,0,1.1-.83,1.96-2.79,1.96-1.77,0-3.15-.6-3.41-2.4h-2.16c.18,2.51,2.12,4.12,5.52,4.12M65.63,1783.75h2.14v-12.36h-2.14v12.36ZM65.59,1769.1h2.23v-2.48h-2.23v2.48ZM55.43,1783.75h2.58l5.99-17.13h-2.44l-3.71,11.42c-.39,1.2-.99,3.66-.99,3.66h-.05s-.6-2.42-1.02-3.66l-3.75-11.42h-2.53l5.92,17.13Z"/>
  <path class="cls-1" d="M304.59,1756.12h12.43v-2.14h-10.09v-5.78h8.89v-1.95h-8.89v-5.19h9.83v-2.07h-12.18v17.13ZM291.35,1756.48c2.9,0,4.97-1.28,4.97-3.8,0-2.88-2.11-3.43-4.58-3.92-2.1-.41-3.29-.67-3.29-1.96,0-.94.71-1.73,2.4-1.73,1.77,0,2.65.71,2.83,1.98h2.14c-.28-2.14-1.82-3.59-4.93-3.59-2.88,0-4.53,1.33-4.53,3.45,0,2.72,2.18,3.22,4.6,3.73,2.19.44,3.22.78,3.22,2.14,0,1.1-.83,1.96-2.79,1.96-1.77,0-3.16-.6-3.41-2.4h-2.16c.18,2.51,2.12,4.12,5.52,4.12M279.56,1756.48c2.9,0,4.97-1.28,4.97-3.8,0-2.88-2.12-3.43-4.58-3.92-2.1-.41-3.29-.67-3.29-1.96,0-.94.72-1.73,2.4-1.73,1.77,0,2.65.71,2.84,1.98h2.14c-.28-2.14-1.82-3.59-4.92-3.59-2.88,0-4.54,1.33-4.54,3.45,0,2.72,2.18,3.22,4.6,3.73,2.19.44,3.22.78,3.22,2.14,0,1.1-.83,1.96-2.79,1.96-1.77,0-3.15-.6-3.41-2.4h-2.16c.18,2.51,2.12,4.12,5.52,4.12M266.32,1754.81c-1.25,0-2.47-.39-2.47-1.98,0-1.7,1.34-2.07,3.37-2.42,1.01-.18,2.1-.48,2.72-.87v2.02c0,1.43-1.15,3.25-3.62,3.25M265.79,1756.37c2.1,0,3.36-.99,4.15-2.07h.02c.23,1.31.87,1.93,2.18,1.93.51,0,.85-.09,1.15-.19v-1.5h-.09c-1.08.23-1.31-.3-1.31-1.29v-5.78c0-1.66-.62-2.74-1.65-3.36-.78-.46-1.82-.67-3-.67-3.34,0-4.92,1.86-5.02,3.96h2.07c.07-1.47,1.02-2.4,2.97-2.4,1.7,0,2.65.83,2.65,2.17,0,1.27-1.17,1.56-3,1.77-3.2.39-5.32,1.01-5.32,3.89,0,2.37,1.84,3.52,4.19,3.52M257.18,1756.12h2.14v-17.13h-2.14v17.13ZM247.65,1756.46c2.21,0,3.96-.62,5.16-1.82,1.22-1.17,2.03-3.06,2.05-4.77h-2.35c-.21,2.44-1.7,4.54-4.82,4.54-3.45,0-5.71-2.77-5.71-6.87s2.05-6.89,5.69-6.89c2.62,0,4.26,1.41,4.65,3.5h2.35c-.23-1.64-.97-3.04-2.19-4.03-1.15-.94-2.76-1.52-4.77-1.52-5.09,0-8.12,3.89-8.12,8.93s3.18,8.91,8.05,8.91M229.09,1759.69c1.63-.21,2.46-1.31,2.46-3.34v-2.76h-2.48v2.53h1.15v.23c0,1.45-.48,1.91-1.13,2.14v1.2ZM215.6,1756.12h2.16l1.87-6.82c.3-1.17.76-3.45.76-3.45h.05s.48,2.26.78,3.45l1.82,6.82h2.14l4.03-12.36h-2.21l-2.05,6.86c-.46,1.52-.8,3.64-.8,3.64h-.05s-.44-2.28-.78-3.59l-1.84-6.91h-2.03l-1.86,6.91c-.42,1.5-.83,3.57-.83,3.57h-.05s-.42-2.21-.81-3.62l-1.93-6.86h-2.28l3.92,12.36ZM205.08,1754.71c-2.54,0-3.85-2.1-3.85-4.77s1.31-4.79,3.85-4.79,3.85,2.12,3.85,4.79-1.31,4.77-3.85,4.77M205.1,1756.46c3.73,0,6.01-2.9,6.01-6.52s-2.28-6.49-6.01-6.49-6.05,2.9-6.05,6.49,2.32,6.52,6.05,6.52M188.93,1743.48v-4.49h-2.14v17.13h2.14v-7.53c0-1.98,1.38-3.34,3.29-3.34,1.68,0,2.72.9,2.72,2.49v8.38h2.12v-8.64c0-2.58-1.59-4.03-4.17-4.03-1.8,0-3.04.78-3.96,2.09h-.07c.02-.6.07-1.45.07-2.07M178.13,1756.46c3.71,0,6.38-1.82,6.38-5.06,0-3.82-3.02-4.68-6.33-5.34-2.58-.53-4.44-1.06-4.44-2.92,0-1.7,1.47-2.62,3.73-2.62,2.42,0,3.92,1.13,4.22,3.2h2.28c-.41-2.92-2.3-5.04-6.52-5.04-3.52,0-5.94,1.7-5.94,4.58,0,3.29,2.6,4.17,5.66,4.81,3,.67,4.97,1.2,4.97,3.43,0,2.07-1.66,3.09-3.94,3.09-3.11,0-4.82-1.43-5.09-4.01h-2.32c.19,3.27,2.55,5.89,7.34,5.89M154.85,1743.75h-2.12v12.36h2.14v-7.53c0-1.98,1.38-3.34,3.29-3.34,1.68,0,2.72.9,2.72,2.49v8.38h2.11v-8.64c0-2.58-1.58-4.03-4.16-4.03-1.8,0-3.02.8-3.92,2.05h-.07v-1.75ZM144.66,1754.71c-2.53,0-3.85-2.1-3.85-4.77s1.32-4.79,3.85-4.79,3.85,2.12,3.85,4.79-1.31,4.77-3.85,4.77M144.68,1756.46c3.73,0,6.01-2.9,6.01-6.52s-2.28-6.49-6.01-6.49-6.05,2.9-6.05,6.49,2.32,6.52,6.05,6.52M134.43,1756.12h2.14v-12.36h-2.14v12.36ZM134.39,1741.47h2.23v-2.48h-2.23v2.48ZM125.82,1745.41h1.94v8.29c0,1.82,1.15,2.49,2.8,2.51.55,0,1.15-.07,1.73-.21v-1.79h-.07c-.23.07-.71.16-1.08.16-.78,0-1.27-.25-1.27-1.15v-7.81h2.56v-1.65h-2.56v-3.89h-2.11v3.89h-1.94v1.65ZM118.31,1754.81c-1.25,0-2.47-.39-2.47-1.98,0-1.7,1.34-2.07,3.37-2.42,1.01-.18,2.1-.48,2.72-.87v2.02c0,1.43-1.15,3.25-3.62,3.25M117.78,1756.37c2.1,0,3.36-.99,4.15-2.07h.02c.23,1.31.87,1.93,2.18,1.93.51,0,.85-.09,1.15-.19v-1.5h-.09c-1.08.23-1.31-.3-1.31-1.29v-5.78c0-1.66-.62-2.74-1.65-3.36-.78-.46-1.82-.67-3-.67-3.34,0-4.92,1.86-5.02,3.96h2.07c.07-1.47,1.02-2.4,2.97-2.4,1.7,0,2.65.83,2.65,2.17,0,1.27-1.17,1.56-3,1.77-3.2.39-5.32,1.01-5.32,3.89,0,2.37,1.84,3.52,4.19,3.52M111.36,1756.12v-12.36h-2.14v7.53c0,1.91-1.22,3.36-3.11,3.36-1.7,0-2.7-.92-2.7-2.49v-8.4h-2.14v8.52c0,2.58,1.63,4.12,4.19,4.12,1.77,0,2.86-.78,3.73-2h.05v1.73h2.12ZM92.8,1754.71c-2.28,0-3.43-2-3.43-4.72s1.15-4.74,3.43-4.74c2.49,0,3.8,1.96,3.8,4.74s-1.15,4.72-3.8,4.72M92.64,1756.48c1.73,0,3.04-.8,3.82-2.14h.05v1.77h2.12v-17.13h-2.14v4.37c0,.83.02,1.73.07,2.28h-.05c-.78-1.31-2.16-2.18-3.92-2.18-3.06,0-5.41,2.44-5.41,6.52s2.12,6.51,5.46,6.51M79.35,1754.81c-1.24,0-2.46-.39-2.46-1.98,0-1.7,1.33-2.07,3.36-2.42,1.01-.18,2.1-.48,2.72-.87v2.02c0,1.43-1.15,3.25-3.62,3.25M78.82,1756.37c2.1,0,3.37-.99,4.15-2.07h.02c.23,1.31.87,1.93,2.18,1.93.51,0,.85-.09,1.15-.19v-1.5h-.09c-1.08.23-1.31-.3-1.31-1.29v-5.78c0-1.66-.62-2.74-1.66-3.36-.78-.46-1.82-.67-2.99-.67-3.34,0-4.93,1.86-5.02,3.96h2.07c.07-1.47,1.01-2.4,2.97-2.4,1.7,0,2.65.83,2.65,2.17,0,1.27-1.17,1.56-3,1.77-3.2.39-5.32,1.01-5.32,3.89,0,2.37,1.84,3.52,4.19,3.52M69.22,1743.75h-2.11v12.36h2.14v-6.72c0-2.33,1.63-3.76,3.55-3.76.37,0,.58.02.87.12h.07v-2.02c-.23-.09-.44-.14-.78-.14-1.64,0-2.9.97-3.66,2.39h-.07v-2.23ZM63.03,1756.12h1.5v-9.07h-7.3v2h4.97v.37c-.02,2.72-1.63,5.02-5.04,5.02s-5.76-2.74-5.76-6.82,1.82-6.96,5.83-6.96c2.62,0,4.08,1.36,4.58,3.29h2.44c-.64-3.15-2.97-5.32-7-5.32-2.65,0-4.68.94-6.06,2.51-1.43,1.61-2.19,3.89-2.19,6.47s.81,4.81,2.23,6.38c1.4,1.57,3.41,2.48,5.8,2.48,2.23,0,4.07-.92,5.3-2.78h.07l.62,2.42Z"/>
  <path class="cls-1" d="M444.9,1729.98h13.63v-1.75h-11.5v-4.63h-2.12v6.38ZM444.72,1716.61h5.28v3.43h-5.28v-3.43ZM442.61,1721.73h9.5v-10.03h-2.12v3.23h-5.28v-3.23h-2.11v10.03ZM457.67,1710.26h-2.14v14.81h2.14v-7.08h2.92v-1.79h-2.92v-5.95ZM428.43,1728.55h11.81v-2.03h-9.58v-5.49h8.44v-1.86h-8.44v-4.92h9.34v-1.97h-11.57v16.27ZM417.38,1732.05c1.64-.21,2.46-1.31,2.46-3.34v-2.76h-2.48v2.53h1.15v.23c0,1.45-.48,1.91-1.13,2.14v1.2ZM411.72,1730.43h2.15v-20.19h-2.15v20.19ZM404.57,1715.37v-3.45h-2.15v3.45c-.01,3.85-2.24,7.7-5.42,9.11l1.32,1.78c2.41-1.17,4.26-3.61,5.19-6.56.95,2.76,2.78,5.02,5.09,6.13l1.29-1.7c-3.13-1.38-5.34-5.08-5.33-8.76M381.21,1729.98h13.61v-1.75h-11.48v-4.53h-2.13v6.28ZM377.51,1720.81l1.1,1.74c2.4-.86,4.16-2.64,5.05-4.86.87,1.99,2.54,3.61,4.81,4.4l1.09-1.7c-3.04-1.02-4.86-3.53-4.86-6.05v-.79h4.34v-1.74h-10.88v1.74h4.37v.79c0,2.78-1.93,5.43-5.03,6.47M394.29,1710.26h-2.13v5.45h-3.86v1.74h3.86v7.56h2.13v-14.76ZM363.59,1726.06h8.89v2.34h-8.89v-2.34ZM361.48,1730.14h13.13v-8.1h-2.13v2.35h-8.89v-2.35h-2.11v8.1ZM360.14,1715.85c0-1.74,1.34-2.91,3.25-2.9,1.87-.01,3.2,1.15,3.2,2.9s-1.34,2.92-3.2,2.92-3.25-1.2-3.25-2.92M363.39,1711.16c-3.08-.02-5.29,1.94-5.27,4.69-.02,2.77,2.19,4.71,5.27,4.71,2.69,0,4.76-1.56,5.17-3.87h3.93v4.37h2.13v-10.81h-2.13v4.71h-3.93c-.45-2.26-2.5-3.81-5.16-3.79M340.33,1723.67h11.75v1.63h-11.71v4.9h14.39v-1.65h-12.3v-1.69h11.72v-4.79h-13.85v1.61ZM339.05,1716.11l.72,1.61c3.55-.32,6.49-1.69,7.56-3.77,1.07,2.08,4.01,3.46,7.57,3.77l.7-1.61c-3.62-.32-6.47-1.73-6.82-3.55h6.08v-1.7h-15.03v1.7h6.04c-.36,1.81-3.23,3.23-6.81,3.55M348.36,1716.65h-2.1v2.26h-8.12v1.71h18.37v-1.71h-8.15v-2.26ZM325.31,1728.83c3.41,0,5.94-2.18,5.94-5.71s-2.62-5.69-5.39-5.69c-1.68,0-2.88.53-3.8,1.47h-.05l1.06-4.88h7.19v-1.93h-8.75l-1.77,8.72h2.12c.62-.78,1.77-1.52,3.59-1.52,1.96,0,3.55,1.41,3.55,3.78s-1.45,3.85-3.73,3.85-3.38-1.17-3.73-2.83h-2.19c.21,2.65,2.51,4.74,5.97,4.74M305.99,1728.48h11.51v-2.05h-8.8l.05-.18c.65-1.7,2.88-2.95,4.59-3.98,2.46-1.4,4.46-2.47,4.46-5.51s-2.16-5.04-5.52-5.04c-1.8,0-3.36.55-4.37,1.63-.99,1.01-1.52,2.33-1.52,4.17h2.28c0-1.38.28-2.28.92-2.95.6-.67,1.41-1.01,2.51-1.01,2.1,0,3.41,1.31,3.41,3.25s-1.2,2.72-3.25,3.89c-1.57.94-3.27,1.89-4.52,3.27-.99,1.13-1.65,2.53-1.75,4.51M297.75,1726.97c-2.81,0-4.19-2.63-4.19-6.7s1.38-6.7,4.19-6.7,4.15,2.62,4.15,6.7-1.29,6.7-4.15,6.7M297.72,1728.85c4.12,0,6.47-3.36,6.47-8.59s-2.51-8.57-6.45-8.57-6.47,3.27-6.47,8.57,2.39,8.59,6.45,8.59M277.44,1728.48h11.51v-2.05h-8.79l.05-.18c.65-1.7,2.88-2.95,4.58-3.98,2.47-1.4,4.47-2.47,4.47-5.51s-2.16-5.04-5.52-5.04c-1.8,0-3.36.55-4.37,1.63-.99,1.01-1.52,2.33-1.52,4.17h2.28c0-1.38.28-2.28.92-2.95.6-.67,1.4-1.01,2.51-1.01,2.1,0,3.41,1.31,3.41,3.25s-1.2,2.72-3.25,3.89c-1.57.94-3.27,1.89-4.51,3.27-.99,1.13-1.65,2.53-1.75,4.51M265.23,1730.39h2.14v-10.01h3.09v-1.82h-3.09v-8.31h-2.14v20.15ZM251.49,1724.32l.24,1.75c3.58.01,8.26-.07,12.46-.75l-.12-1.6c-2.01.25-4.21.39-6.35.48v-6.04h-2.11v6.1c-1.46.03-2.87.05-4.13.06M262.91,1712.4h-10.31v1.73h8.18c0,1.68-.05,4.03-.56,7.25l2.11.17c.56-3.6.56-6.2.58-7.9v-1.25ZM235.54,1729.98h13.77v-1.75h-11.62v-4.81h-2.15v6.56ZM234.51,1716.62c-.01-1.86,1.4-3.13,3.28-3.13s3.26,1.27,3.26,3.13-1.41,3.15-3.26,3.15-3.29-1.26-3.28-3.15M232.41,1716.62c0,2.96,2.33,5.02,5.37,5.01,3.04,0,5.35-2.05,5.35-5.01s-2.31-4.98-5.35-4.98-5.37,2.07-5.37,4.98M248.72,1710.26h-2.14v14.64h2.14v-14.64ZM225.89,1730.39h2.14v-10.35h3.23v-1.8h-3.23v-7.99h-2.14v20.15ZM219.35,1716.19v-2.15h4.37v-1.77h-11.03v1.77h4.54v2.15c-.02,3.4-2.23,7.2-5.29,8.67l1.26,1.69c2.29-1.14,4.18-3.63,5.1-6.49.91,2.63,2.7,4.9,4.97,5.99l1.21-1.69c-3.05-1.44-5.15-4.99-5.14-8.17M193.93,1725.49h1.67c4.17,0,6.8-.13,9.8-.67l-.22-1.78c-2.84.52-5.3.63-9.11.64v-9.79h7.51v-1.76h-9.65v13.37ZM209.34,1710.25h-2.15v20.19h2.15v-20.19ZM175.49,1724.64h11.18v5.76h2.14v-7.48h-13.32v1.73ZM172.86,1720.22l.88,1.64c5.98-1.55,9.48-5.19,9.49-10.38h-9.41v1.73h7.12c-.38,3.17-3.25,5.73-8.08,7.01M188.8,1710.25h-2.14v11.79h2.14v-5.01h2.92v-1.8h-2.92v-4.98ZM167.84,1730.43h2.15v-20.19h-2.15v20.19ZM160.69,1715.37v-3.45h-2.15v3.45c-.01,3.85-2.24,7.7-5.42,9.11l1.32,1.78c2.41-1.17,4.26-3.61,5.19-6.56.95,2.76,2.78,5.02,5.09,6.13l1.29-1.7c-3.13-1.38-5.34-5.08-5.33-8.76M127.72,1727.67h18.37v-1.76h-6.9v-6.54h-2.1v6.54h-2.9v-6.54h-2.13v6.54h-4.33v1.76ZM144.09,1712.19h-14.48v1.73h12.35v.41c0,2.48,0,5.18-.7,8.83l2.1.22c.72-3.86.72-6.51.73-9.05v-2.14ZM121.73,1722.85h2.14v-5.37h2.92v-1.77h-2.92v-5.47h-2.14v12.6ZM111.23,1718.58c-.02-1.25,1.13-2.02,2.85-2.04,1.7.01,2.85.79,2.86,2.04-.01,1.24-1.16,1.99-2.86,1.99s-2.86-.75-2.85-1.99M110.56,1725.61h11.18v4.79h2.14v-6.52h-13.32v1.73ZM109.16,1718.58c0,2.2,1.99,3.65,4.91,3.65s4.87-1.45,4.88-3.65c0-2.21-1.98-3.65-4.88-3.67-2.92.01-4.91,1.45-4.91,3.67M120.06,1712.29h-4.92v-2.14h-2.12v2.14h-4.95v1.7h11.99v-1.7ZM89.04,1725.55h1.33c2.94-.01,5.03-.09,7.46-.59l-.17-1.76c-2.15.41-4.01.53-6.48.55v-9.35h5.4v-1.73h-7.54v12.88ZM105.64,1710.25h-2.03v7.99h-2.61v-7.58h-1.97v18.7h1.97v-9.38h2.61v10.42h2.03v-20.15ZM83.26,1722.18h2.14v-11.93h-2.14v11.93ZM71.18,1716.23c-.02-1.8,1.36-2.97,3.27-2.97s3.26,1.17,3.26,2.97-1.37,3.01-3.26,3c-1.92.02-3.29-1.17-3.27-3M69.09,1716.23c0,2.84,2.27,4.82,5.37,4.82s5.35-1.97,5.35-4.82-2.26-4.81-5.35-4.8c-3.09,0-5.37,1.98-5.37,4.8M85.4,1723.22h-13.66v1.74h11.52v5.43h2.14v-7.17ZM53.84,1717.14c-.02-.94,1.52-1.43,4.33-1.43s4.34.49,4.35,1.43c0,.89-1.52,1.38-4.35,1.38s-4.35-.49-4.33-1.38M53.37,1727.29c0-1.01,1.68-1.54,4.8-1.54s4.8.53,4.8,1.54-1.68,1.5-4.8,1.49c-3.13.02-4.8-.5-4.8-1.49M49.94,1713.51h16.4v-1.65h-7.09v-1.86h-2.12v1.86h-7.19v1.65ZM49.01,1723.08h18.37v-1.7h-8.12v-1.39c3.57-.16,5.55-1.14,5.55-2.85,0-1.91-2.38-2.9-6.63-2.89-4.22-.01-6.62.98-6.61,2.89,0,1.71,2,2.7,5.57,2.85v1.39h-8.12v1.7ZM58.17,1724.17c-4.48,0-6.99,1.09-6.99,3.13s2.51,3.07,6.99,3.07,6.95-1.05,6.96-3.07c-.01-2.04-2.53-3.13-6.96-3.13"/>
  <path class="cls-1" d="M881.95,1783.75h2.48v-2.53h-2.48v2.53ZM875.38,1783.75h2.37l4.45-12.36h-2.21l-2.21,6.67c-.55,1.66-1.08,3.94-1.08,3.94h-.05s-.6-2.28-1.13-3.94l-2.16-6.68h-2.28l4.3,12.36ZM867.58,1783.75h2.14v-12.36h-2.14v12.36ZM867.53,1769.1h2.23v-2.48h-2.23v2.48ZM856.78,1771.38h-2.12v12.36h2.14v-7.53c0-1.98,1.38-3.34,3.29-3.34,1.68,0,2.72.9,2.72,2.49v8.38h2.12v-8.64c0-2.58-1.59-4.03-4.17-4.03-1.8,0-3.02.8-3.92,2.05h-.07v-1.75ZM845.31,1784c3.75,0,6.61-1.7,6.61-5.82v-11.56h-2.35v11.35c0,2.81-1.57,4.03-4.22,4.03s-4.31-1.22-4.31-4.03v-11.35h-2.35v11.56c0,4.12,2.76,5.82,6.61,5.82M828.66,1783.75h2.51l-5.27-7.92,4.72-4.44h-2.67l-5.36,5.27c.05-.6.09-1.47.09-1.91v-8.13h-2.14v17.13h2.14v-4.86l1.75-1.66,4.24,6.52ZM815.68,1783.75h2.14v-12.36h-2.14v12.36ZM815.63,1769.1h2.23v-2.48h-2.23v2.48ZM807.34,1781.45c-2.23,0-3.43-1.66-3.43-4.28s1.15-4.31,3.41-4.31c2.46,0,3.64,1.59,3.64,4.19s-.92,4.4-3.62,4.4M807.43,1788.07c1.66,0,3.04-.37,4.01-1.17.94-.81,1.5-2.03,1.5-3.67v-11.85h-2.12v1.63h-.05c-.78-1.24-1.98-1.93-3.75-1.93-2.9,0-5.3,2.25-5.3,6.05,0,3.59,2.25,6.05,5.41,6.05,1.75,0,2.84-.76,3.69-1.98h.05c-.02.39-.05,1.06-.05,1.77v.35c0,2.1-1.22,3.09-3.43,3.09-1.84,0-3.09-.53-3.27-1.82h-2c.23,2.19,2.07,3.47,5.32,3.47M791.87,1771.38h-2.12v12.36h2.14v-7.53c0-1.98,1.38-3.34,3.29-3.34,1.68,0,2.72.9,2.72,2.49v8.38h2.11v-8.64c0-2.58-1.58-4.03-4.17-4.03-1.8,0-3.02.8-3.92,2.05h-.07v-1.75ZM781.67,1782.35c-2.54,0-3.85-2.1-3.85-4.77s1.31-4.79,3.85-4.79,3.85,2.12,3.85,4.79-1.31,4.77-3.85,4.77M781.69,1784.09c3.73,0,6.01-2.9,6.01-6.52s-2.28-6.49-6.01-6.49-6.05,2.9-6.05,6.49,2.32,6.52,6.05,6.52M760.19,1783.75h2.35v-8.01h8.85v8.01h2.37v-17.13h-2.37v7.21h-8.85v-7.21h-2.35v17.13ZM749.05,1787.32c1.63-.21,2.46-1.31,2.46-3.34v-2.76h-2.48v2.53h1.15v.23c0,1.45-.48,1.91-1.13,2.14v1.2ZM744.33,1783.75h2.14v-17.13h-2.14v17.13ZM741.51,1783.75v-12.36h-2.14v7.53c0,1.91-1.22,3.36-3.11,3.36-1.71,0-2.7-.92-2.7-2.49v-8.4h-2.14v8.52c0,2.58,1.63,4.12,4.19,4.12,1.77,0,2.86-.78,3.73-2h.05v1.73h2.11ZM723.42,1782.35c-2.54,0-3.85-2.1-3.85-4.77s1.31-4.79,3.85-4.79,3.85,2.12,3.85,4.79-1.31,4.77-3.85,4.77M723.44,1784.09c3.73,0,6.01-2.9,6.01-6.52s-2.28-6.49-6.01-6.49-6.05,2.9-6.05,6.49,2.32,6.52,6.05,6.52M710.24,1772.74c2.14,0,3.37,1.43,3.48,3.8h-7.16c.28-2.19,1.45-3.8,3.68-3.8M710.36,1784.09c2.86,0,4.83-1.56,5.39-3.87h-2.09c-.39,1.31-1.57,2.12-3.27,2.12-2.4,0-3.71-1.85-3.87-4.27h9.49c0-2.09-.51-3.87-1.52-5.09-.96-1.2-2.39-1.91-4.24-1.91-3.55,0-5.92,2.9-5.92,6.49s2.23,6.52,6.03,6.52M696.34,1784.09c3.71,0,6.38-1.82,6.38-5.06,0-3.82-3.02-4.68-6.33-5.34-2.58-.53-4.45-1.06-4.45-2.92,0-1.7,1.47-2.62,3.73-2.62,2.42,0,3.92,1.13,4.22,3.2h2.28c-.41-2.92-2.3-5.04-6.52-5.04-3.52,0-5.94,1.7-5.94,4.58,0,3.29,2.6,4.17,5.66,4.81,3,.67,4.97,1.2,4.97,3.43,0,2.07-1.66,3.09-3.94,3.09-3.11,0-4.82-1.43-5.09-4.01h-2.32c.19,3.27,2.55,5.89,7.34,5.89M678.91,1787.32c1.63-.21,2.46-1.31,2.46-3.34v-2.76h-2.48v2.53h1.15v.23c0,1.45-.48,1.91-1.13,2.14v1.2ZM676.37,1783.75v-12.36h-2.14v7.53c0,1.91-1.22,3.36-3.11,3.36-1.7,0-2.7-.92-2.7-2.49v-8.4h-2.14v8.52c0,2.58,1.63,4.12,4.19,4.12,1.77,0,2.86-.78,3.73-2h.05v1.73h2.12ZM658.02,1781.45c-2.23,0-3.43-1.66-3.43-4.28s1.15-4.31,3.41-4.31c2.47,0,3.64,1.59,3.64,4.19s-.92,4.4-3.62,4.4M658.11,1788.07c1.66,0,3.04-.37,4.01-1.17.95-.81,1.5-2.03,1.5-3.67v-11.85h-2.12v1.63h-.05c-.78-1.24-1.98-1.93-3.75-1.93-2.9,0-5.3,2.25-5.3,6.05,0,3.59,2.25,6.05,5.41,6.05,1.75,0,2.83-.76,3.68-1.98h.05c-.02.39-.05,1.06-.05,1.77v.35c0,2.1-1.22,3.09-3.43,3.09-1.84,0-3.09-.53-3.27-1.82h-2c.23,2.19,2.07,3.47,5.32,3.47M639.67,1778.56h11.51v-1.84h-11.51v1.84ZM632.6,1782.35c-2.54,0-3.85-2.1-3.85-4.77s1.31-4.79,3.85-4.79,3.85,2.12,3.85,4.79-1.31,4.77-3.85,4.77M632.63,1784.09c3.73,0,6.01-2.9,6.01-6.52s-2.28-6.49-6.01-6.49-6.05,2.9-6.05,6.49,2.32,6.52,6.05,6.52M619.57,1782.35c-2.74,0-3.8-2.1-3.8-4.7s1.2-4.74,3.82-4.74c2.28,0,3.41,2.02,3.41,4.74s-1.15,4.7-3.43,4.7M613.75,1787.94h2.14v-3.75c0-.94-.02-1.63-.05-2.07h.07c.85,1.31,2.21,2,3.89,2,3.34,0,5.39-2.55,5.39-6.51s-2.16-6.52-5.32-6.52c-1.77,0-3.02.83-3.94,2.23h-.07v-1.93h-2.12v16.55ZM605.25,1782.44c-1.25,0-2.47-.39-2.47-1.98,0-1.7,1.34-2.07,3.36-2.42,1.02-.18,2.1-.48,2.72-.87v2.02c0,1.43-1.15,3.25-3.62,3.25M604.72,1784c2.1,0,3.37-.99,4.15-2.07h.02c.23,1.31.87,1.93,2.19,1.93.5,0,.85-.09,1.15-.19v-1.5h-.09c-1.08.23-1.31-.3-1.31-1.29v-5.78c0-1.66-.62-2.74-1.66-3.36-.78-.46-1.82-.67-2.99-.67-3.34,0-4.93,1.86-5.02,3.96h2.07c.07-1.47,1.01-2.4,2.97-2.4,1.71,0,2.65.83,2.65,2.17,0,1.27-1.17,1.56-3,1.77-3.2.39-5.32,1.01-5.32,3.89,0,2.37,1.84,3.52,4.19,3.52M581.74,1783.75h2.12v-10.36c0-1.52-.14-4.4-.14-4.4h.05s.71,2.58,1.2,3.92l4.17,10.84h1.84l4.17-10.84c.5-1.34,1.2-3.92,1.2-3.92h.05s-.14,2.88-.14,4.4v10.36h2.25v-17.13h-3.13l-3.5,9.3c-.69,1.89-1.75,5.37-1.75,5.37h-.05s-1.03-3.5-1.73-5.37l-3.57-9.3h-3.04v17.13Z"/>
  <path class="cls-1" d="M996.24,1760.02c1.63-.21,2.46-1.31,2.46-3.34v-2.76h-2.48v2.53h1.15v.23c0,1.45-.48,1.91-1.13,2.14v1.2ZM983.62,1750.83v-.05s1.11-1.22,1.75-2.02l3.04-3.87c.67-.85,1.43-2.14,1.43-2.14h.05s-.11,1.55-.11,2.42v5.57h-3.71c-.95,0-2.44.09-2.44.09M989.77,1756.45h2.16v-3.98h2.67v-1.73h-2.67v-10.87h-1.82l-8.29,10.62v1.98h7.94v3.98ZM973.58,1749.06c-2.07,0-3.73-1.59-3.73-3.82s1.55-3.8,3.76-3.8,3.89,1.55,3.89,3.8-1.52,3.82-3.92,3.82M973.7,1756.81c1.63,0,2.99-.48,3.98-1.4,1.59-1.43,2.25-3.85,2.25-7.12,0-3.59-.6-5.94-2.46-7.37-.97-.73-2.23-1.26-3.87-1.26-3.37,0-5.85,2.5-5.82,5.62.02,3.09,2.46,5.57,5.5,5.57,1.94,0,3.46-.87,4.52-2.32h.05c-.09,2.58-.51,4.33-1.45,5.37-.65.74-1.52,1.11-2.74,1.11-2.1,0-3.2-1.25-3.41-2.6h-2.23c.2,2.42,2.44,4.42,5.69,4.42M954.17,1755.05c-2.53,0-3.85-2.1-3.85-4.77s1.32-4.79,3.85-4.79,3.85,2.12,3.85,4.79-1.31,4.77-3.85,4.77M954.19,1756.79c3.73,0,6.01-2.9,6.01-6.52s-2.28-6.49-6.01-6.49-6.05,2.9-6.05,6.49,2.32,6.52,6.05,6.52M942.89,1744.08h-2.11v12.36h2.14v-6.72c0-2.33,1.63-3.76,3.55-3.76.37,0,.58.02.87.12h.07v-2.02c-.23-.09-.44-.14-.78-.14-1.64,0-2.9.97-3.66,2.39h-.07v-2.23ZM927.56,1751.26h11.51v-1.84h-11.51v1.84ZM917.77,1744.08h-2.11v12.36h2.14v-7.53c0-1.98,1.38-3.34,3.3-3.34,1.68,0,2.72.9,2.72,2.49v8.38h2.12v-8.64c0-2.58-1.59-4.03-4.17-4.03-1.8,0-3.02.8-3.92,2.05h-.07v-1.75ZM907.15,1755.14c-1.25,0-2.47-.39-2.47-1.98,0-1.7,1.34-2.07,3.36-2.42,1.02-.18,2.1-.48,2.72-.87v2.02c0,1.43-1.15,3.25-3.62,3.25M906.62,1756.7c2.1,0,3.37-.99,4.15-2.07h.02c.23,1.31.87,1.93,2.19,1.93.5,0,.85-.09,1.15-.19v-1.5h-.09c-1.08.23-1.31-.3-1.31-1.29v-5.78c0-1.66-.62-2.74-1.65-3.36-.78-.46-1.82-.67-3-.67-3.34,0-4.93,1.86-5.02,3.96h2.07c.07-1.47,1.01-2.4,2.97-2.4,1.71,0,2.65.83,2.65,2.17,0,1.27-1.17,1.56-3,1.77-3.2.39-5.32,1.01-5.32,3.89,0,2.37,1.84,3.52,4.19,3.52M895.78,1756.81c2.9,0,4.97-1.28,4.97-3.8,0-2.88-2.12-3.43-4.58-3.92-2.1-.41-3.29-.67-3.29-1.96,0-.94.71-1.73,2.4-1.73,1.77,0,2.65.71,2.83,1.98h2.14c-.28-2.14-1.82-3.59-4.93-3.59-2.88,0-4.53,1.33-4.53,3.45,0,2.72,2.18,3.22,4.6,3.73,2.19.44,3.22.78,3.22,2.14,0,1.1-.83,1.96-2.79,1.96-1.77,0-3.16-.6-3.41-2.4h-2.16c.19,2.51,2.12,4.12,5.53,4.12M888.29,1756.45v-12.36h-2.14v7.53c0,1.91-1.22,3.36-3.11,3.36-1.7,0-2.7-.92-2.7-2.49v-8.4h-2.14v8.52c0,2.58,1.63,4.12,4.19,4.12,1.77,0,2.86-.78,3.73-2h.05v1.73h2.12ZM869.78,1755.14c-1.25,0-2.47-.39-2.47-1.98,0-1.7,1.34-2.07,3.36-2.42,1.02-.18,2.1-.48,2.72-.87v2.02c0,1.43-1.15,3.25-3.62,3.25M869.25,1756.7c2.1,0,3.37-.99,4.15-2.07h.02c.23,1.31.87,1.93,2.19,1.93.5,0,.85-.09,1.15-.19v-1.5h-.09c-1.08.23-1.31-.3-1.31-1.29v-5.78c0-1.66-.62-2.74-1.66-3.36-.78-.46-1.82-.67-2.99-.67-3.34,0-4.93,1.86-5.02,3.96h2.07c.07-1.47,1.01-2.4,2.97-2.4,1.7,0,2.65.83,2.65,2.17,0,1.27-1.17,1.56-3,1.77-3.2.39-5.32,1.01-5.32,3.89,0,2.37,1.84,3.52,4.19,3.52M848.03,1756.45h2.35l3.01-10.98c.39-1.5.83-4.26.83-4.26h.05s.42,2.76.81,4.28l2.81,10.96h2.28l4.77-17.13h-2.42l-2.56,10.08c-.41,1.68-.85,4.54-.85,4.54h-.05s-.46-2.88-.9-4.56l-2.67-10.06h-2.49l-2.76,10.06c-.44,1.68-.9,4.56-.9,4.56h-.05s-.39-2.85-.81-4.53l-2.46-10.09h-2.46l4.47,17.13ZM835.61,1760.02c1.63-.21,2.46-1.31,2.46-3.34v-2.76h-2.48v2.53h1.15v.23c0,1.45-.48,1.91-1.13,2.14v1.2ZM825.02,1744.08h-2.12v12.36h2.14v-7.53c0-1.98,1.38-3.34,3.29-3.34,1.68,0,2.72.9,2.72,2.49v8.38h2.11v-8.64c0-2.58-1.58-4.03-4.16-4.03-1.8,0-3.02.8-3.92,2.05h-.07v-1.75ZM814.41,1755.14c-1.24,0-2.46-.39-2.46-1.98,0-1.7,1.33-2.07,3.36-2.42,1.01-.18,2.1-.48,2.72-.87v2.02c0,1.43-1.15,3.25-3.62,3.25M813.88,1756.7c2.1,0,3.37-.99,4.15-2.07h.02c.23,1.31.87,1.93,2.18,1.93.51,0,.85-.09,1.15-.19v-1.5h-.09c-1.08.23-1.31-.3-1.31-1.29v-5.78c0-1.66-.62-2.74-1.66-3.36-.78-.46-1.82-.67-2.99-.67-3.34,0-4.93,1.86-5.02,3.96h2.07c.07-1.47,1.01-2.4,2.97-2.4,1.7,0,2.65.83,2.65,2.17,0,1.27-1.17,1.56-3,1.77-3.2.39-5.32,1.01-5.32,3.89,0,2.37,1.84,3.52,4.19,3.52M795.46,1756.45h2.16l1.87-6.82c.3-1.17.76-3.45.76-3.45h.05s.48,2.26.78,3.45l1.82,6.82h2.14l4.03-12.36h-2.21l-2.05,6.86c-.46,1.52-.8,3.64-.8,3.64h-.05s-.44-2.28-.78-3.59l-1.84-6.91h-2.02l-1.87,6.91c-.41,1.5-.83,3.57-.83,3.57h-.05s-.41-2.21-.8-3.62l-1.93-6.86h-2.28l3.91,12.36ZM784.45,1754.15c-2.23,0-3.43-1.66-3.43-4.28s1.15-4.31,3.41-4.31c2.47,0,3.64,1.59,3.64,4.19s-.92,4.4-3.62,4.4M784.54,1760.77c1.66,0,3.04-.37,4.01-1.17.94-.81,1.5-2.03,1.5-3.67v-11.85h-2.12v1.63h-.05c-.78-1.24-1.98-1.93-3.76-1.93-2.9,0-5.29,2.25-5.29,6.05,0,3.59,2.25,6.05,5.41,6.05,1.75,0,2.83-.76,3.69-1.98h.05c-.02.39-.05,1.06-.05,1.77v.35c0,2.1-1.22,3.09-3.43,3.09-1.84,0-3.09-.53-3.27-1.82h-2c.23,2.19,2.07,3.47,5.32,3.47M768.97,1744.08h-2.11v12.36h2.14v-7.53c0-1.98,1.38-3.34,3.29-3.34,1.68,0,2.72.9,2.72,2.49v8.38h2.12v-8.64c0-2.58-1.59-4.03-4.17-4.03-1.8,0-3.02.8-3.92,2.05h-.07v-1.75ZM764.12,1756.45v-12.36h-2.14v7.53c0,1.91-1.22,3.36-3.11,3.36-1.7,0-2.7-.92-2.7-2.49v-8.4h-2.14v8.52c0,2.58,1.63,4.12,4.19,4.12,1.77,0,2.85-.78,3.73-2h.05v1.73h2.11ZM735.18,1756.45h2.14v-7.62c0-1.89,1.59-3.25,3.06-3.25,1.27,0,2.12.9,2.12,2.42v8.45h2.12v-7.62c0-1.89,1.36-3.25,2.92-3.25,1.25,0,2.24.9,2.24,2.42v8.45h2.14v-8.64c0-2.58-1.56-4.03-3.82-4.03-1.5,0-2.95.76-3.82,2.3h-.05c-.5-1.52-1.7-2.3-3.2-2.3-1.59,0-2.9.8-3.66,2.14h-.07v-1.84h-2.11v12.36ZM726.84,1754.15c-2.24,0-3.43-1.66-3.43-4.28s1.15-4.31,3.41-4.31c2.47,0,3.64,1.59,3.64,4.19s-.92,4.4-3.62,4.4M726.93,1760.77c1.66,0,3.04-.37,4.01-1.17.94-.81,1.49-2.03,1.49-3.67v-11.85h-2.11v1.63h-.05c-.79-1.24-1.98-1.93-3.76-1.93-2.9,0-5.3,2.25-5.3,6.05,0,3.59,2.25,6.05,5.41,6.05,1.75,0,2.83-.76,3.69-1.98h.05c-.02.39-.05,1.06-.05,1.77v.35c0,2.1-1.22,3.09-3.43,3.09-1.85,0-3.09-.53-3.27-1.82h-2c.23,2.19,2.07,3.47,5.32,3.47M710.91,1744.08h-2.12v12.36h2.14v-7.53c0-1.98,1.38-3.34,3.29-3.34,1.68,0,2.72.9,2.72,2.49v8.38h2.12v-8.64c0-2.58-1.59-4.03-4.17-4.03-1.8,0-3.02.8-3.92,2.05h-.07v-1.75ZM701.17,1755.05c-2.53,0-3.85-2.1-3.85-4.77s1.31-4.79,3.85-4.79,3.85,2.12,3.85,4.79-1.31,4.77-3.85,4.77M701.19,1756.79c3.73,0,6.01-2.9,6.01-6.52s-2.28-6.49-6.01-6.49-6.06,2.9-6.06,6.49,2.32,6.52,6.06,6.52M679.69,1756.45h2.35v-8.01h8.84v8.01h2.37v-17.13h-2.37v7.21h-8.84v-7.21h-2.35v17.13ZM659.95,1756.75h2.3v-7.76h7.65v-1.96h-7.65v-5.04h9.18v-2.02h-11.48v16.79ZM648.72,1756.45h2.35c.32-6.42,3.55-11.67,6.86-14.62v-1.77h-11.54v1.95h6.38c1.73,0,3.02-.09,3.02-.09v.05c-3.71,2.99-6.72,8.72-7.07,14.48M636.29,1760.02c1.63-.21,2.46-1.31,2.46-3.34v-2.76h-2.48v2.53h1.15v.23c0,1.45-.48,1.91-1.13,2.14v1.2ZM623.67,1750.83v-.05s1.1-1.22,1.75-2.02l3.04-3.87c.67-.85,1.43-2.14,1.43-2.14h.05s-.12,1.55-.12,2.42v5.57h-3.71c-.95,0-2.44.09-2.44.09M629.82,1756.45h2.16v-3.98h2.67v-1.73h-2.67v-10.87h-1.82l-8.29,10.62v1.98h7.94v3.98ZM608.87,1756.45h11.51v-2.05h-8.8l.05-.18c.65-1.7,2.88-2.95,4.59-3.99,2.46-1.4,4.46-2.46,4.46-5.5s-2.16-5.04-5.52-5.04c-1.8,0-3.36.55-4.37,1.63-.99,1.01-1.52,2.32-1.52,4.17h2.28c0-1.38.28-2.28.92-2.95.6-.67,1.41-1.01,2.51-1.01,2.1,0,3.41,1.31,3.41,3.25s-1.2,2.72-3.25,3.89c-1.57.95-3.27,1.89-4.52,3.27-.99,1.13-1.65,2.53-1.75,4.51M598.92,1756.45h2.35c.32-6.42,3.55-11.67,6.86-14.62v-1.77h-11.53v1.95h6.37c1.73,0,3.02-.09,3.02-.09v.05c-3.71,2.99-6.72,8.72-7.07,14.48M584.09,1741.34h5.02c2.42,0,3.37,1.04,3.37,3.04,0,1.87-1.15,3.04-3.48,3.04h-4.91v-6.08ZM581.74,1756.45h2.35v-7.14h4.56c2.23,0,3.25.87,3.41,3.29.18,2.74.23,3.52.62,3.85h2.51v-.12c-.35-.23-.58-1.06-.78-3.75-.16-2.46-.71-3.61-2.65-4.19v-.07c2.28-.71,3.13-2.18,3.13-4.28,0-2.83-2.07-4.72-5.13-4.72h-8.01v17.13Z"/>
  <path class="cls-1" d="M939.52,1719.87c0-1.39,1.68-2.16,4.54-2.16s4.53.76,4.54,2.16c0,1.41-1.7,2.18-4.54,2.19-2.86-.01-4.55-.78-4.54-2.19M934.91,1728.14h18.44v-1.75h-8.22v-2.65c3.5-.24,5.66-1.63,5.66-3.87,0-2.42-2.61-3.85-6.72-3.84-4.15,0-6.73,1.43-6.71,3.84-.02,2.24,2.13,3.64,5.67,3.87v2.65h-8.12v1.75ZM952.36,1713.08h-7.24v-2.54h-2.1v2.54h-7.25v1.74h16.59v-1.74ZM922.81,1722.87v-.05s1.1-1.22,1.75-2.03l3.04-3.87c.67-.85,1.43-2.14,1.43-2.14h.05s-.12,1.54-.12,2.42v5.57h-3.71c-.95,0-2.44.09-2.44.09M928.96,1728.48h2.16v-3.98h2.67v-1.72h-2.67v-10.87h-1.82l-8.29,10.62v1.98h7.94v3.98ZM908.46,1728.48h11.51v-2.05h-8.8l.05-.18c.64-1.7,2.88-2.95,4.58-3.98,2.46-1.4,4.47-2.47,4.47-5.51s-2.16-5.04-5.52-5.04c-1.8,0-3.37.55-4.38,1.63-.99,1.01-1.52,2.33-1.52,4.17h2.28c0-1.38.28-2.28.92-2.95.6-.67,1.4-1.01,2.51-1.01,2.1,0,3.41,1.31,3.41,3.25s-1.2,2.72-3.25,3.89c-1.57.94-3.27,1.89-4.51,3.27-.99,1.13-1.66,2.53-1.75,4.51M898.51,1728.48h2.35c.32-6.42,3.55-11.67,6.86-14.62v-1.77h-11.53v1.95h6.38c1.73,0,3.02-.09,3.02-.09v.05c-3.71,3-6.72,8.73-7.07,14.48M886.08,1732.05c1.63-.21,2.46-1.31,2.46-3.34v-2.76h-2.49v2.53h1.15v.23c0,1.45-.48,1.91-1.13,2.14v1.2ZM870.22,1727c-.02-1.15,1.72-1.76,4.82-1.76s4.82.61,4.83,1.76c-.02,1.15-1.76,1.76-4.83,1.74-3.1.01-4.84-.59-4.82-1.74M868.06,1727c0,2.18,2.59,3.37,6.99,3.37s6.95-1.19,6.96-3.37c-.02-2.18-2.58-3.36-6.96-3.36s-6.99,1.19-6.99,3.36M866.85,1717.59l.66,1.65c3.47-.32,6.29-1.5,7.54-3.37,1.24,1.88,4.06,3.06,7.55,3.37l.64-1.65c-4-.32-6.76-1.79-7-3.72h6.16v-1.71h-6.31v-1.93h-2.1v1.93h-6.27v1.71h6.13c-.25,1.93-3.01,3.4-7.01,3.72M884.25,1720.38h-18.37v1.74h18.37v-1.74ZM855.65,1728.48h2.35c.32-6.42,3.55-11.67,6.86-14.62v-1.77h-11.53v1.95h6.37c1.73,0,3.02-.09,3.02-.09v.05c-3.71,3-6.72,8.73-7.07,14.48M841.52,1725.39h2.17v-6.92h2.77v-1.81h-2.77v-6.41h-2.17v15.14ZM830.65,1729.98h13.68v-1.75h-11.55v-4.22h-2.13v5.97ZM827.59,1720.59l.2,1.73c3.56,0,8.37-.09,12.58-.83l-.13-1.56c-2.02.29-4.24.44-6.41.53v-4.17h-2.12v4.24c-1.48.03-2.89.04-4.12.05M838.97,1711.77h-10.16v1.77h8.06c-.02,1.26-.09,2.89-.53,5.13l2.12.18c.49-2.59.49-4.59.51-5.94v-1.14ZM812.51,1712.88h9.49v3.79h-9.49v-3.79ZM810.42,1718.35h13.68v-7.15h-13.68v7.15ZM810.35,1729.98h14.1v-1.75h-11.97v-4.06h-2.13v5.81ZM826.49,1720.43h-18.44v1.74h8.33v3.91h2.11v-3.91h7.99v-1.74ZM793.24,1717.14c-.02-.94,1.52-1.43,4.33-1.43s4.34.49,4.35,1.43c0,.89-1.52,1.38-4.35,1.38s-4.35-.49-4.33-1.38M792.76,1727.29c0-1.01,1.68-1.54,4.8-1.54s4.8.53,4.8,1.54-1.68,1.5-4.8,1.49c-3.13.02-4.8-.5-4.8-1.49M789.33,1713.51h16.4v-1.65h-7.09v-1.86h-2.12v1.86h-7.19v1.65ZM788.4,1723.08h18.37v-1.7h-8.13v-1.39c3.57-.16,5.55-1.14,5.55-2.85,0-1.91-2.38-2.9-6.63-2.89-4.22-.01-6.62.98-6.61,2.89,0,1.71,2,2.7,5.57,2.85v1.39h-8.12v1.7ZM797.56,1724.17c-4.48,0-6.99,1.09-6.99,3.13s2.51,3.07,6.99,3.07,6.95-1.05,6.96-3.07c-.01-2.04-2.53-3.13-6.96-3.13M762.83,1727.75h18.44v-1.77h-18.44v1.77ZM773.06,1713.11v-1.52h-2.25v1.52c-.01,3.28-3.49,6.36-7.32,7.08l.95,1.78c3.23-.71,6.18-2.82,7.51-5.64,1.31,2.83,4.27,4.94,7.5,5.64l.97-1.78c-3.86-.69-7.36-3.8-7.36-7.08M754.18,1719.51h3.66v10.89h2.11v-20.15h-2.11v7.5h-3.66v1.76ZM747.66,1723.69v-9.69h2.92v9.6c-.98.05-1.96.08-2.92.1M754.84,1712.26h-11.23v1.74h1.95v9.73c-.9,0-1.76.02-2.55.02l.21,1.79c3.5,0,8.23-.09,12.34-.75l-.13-1.56c-.9.1-1.84.19-2.79.25v-9.49h2.2v-1.74ZM734.16,1721.95h2.03v-4.95h2.43v5.11h2.02v-11.85h-2.02v4.95h-2.43v-4.58h-2.03v11.31ZM729.3,1724.69h9.25v3.71h-9.25v-3.71ZM727.19,1730.14h13.45v-7.15h-13.45v7.15ZM732.45,1711.57h-7.92v1.74h5.8c-.07.67-.21,1.32-.41,1.94l-6.31.38.31,1.74,5.26-.55c-1.07,1.7-2.87,3.11-5.61,4.16l1.03,1.59c5.57-2.27,7.85-6.03,7.85-11M707.99,1713.94c-.02-1.19,1.76-1.86,4.97-1.87,3.23,0,5,.68,5,1.87s-1.77,1.88-5,1.88c-3.2,0-4.98-.65-4.97-1.88M703.79,1720.31h8.09v1.72h-5.9v1.6h11.75v1.58h-11.71v5h14.39v-1.65h-12.3v-1.81h11.72v-4.71h-5.81v-1.72h8.14v-1.69h-18.37v1.69ZM712.96,1710.47c-4.54,0-7.2,1.24-7.2,3.47s2.66,3.47,7.2,3.49c4.54-.01,7.19-1.24,7.19-3.49s-2.65-3.47-7.19-3.47M694.31,1718.68h4.49v11.76h2.12v-20.19h-2.12v6.69h-4.49v1.74ZM691.38,1715.37v-3.45h-2.16v3.45c-.02,3.73-2.1,7.62-5.22,9.11l1.35,1.72c2.31-1.2,4.07-3.65,4.96-6.55.88,2.76,2.61,5.03,4.91,6.18l1.29-1.72c-3.08-1.38-5.14-5.06-5.13-8.75M658.54,1727.67h18.37v-1.76h-6.9v-6.54h-2.1v6.54h-2.9v-6.54h-2.13v6.54h-4.33v1.76ZM674.91,1712.19h-14.48v1.73h12.35v.41c0,2.48,0,5.18-.7,8.83l2.1.22c.72-3.86.72-6.51.73-9.05v-2.14ZM652.55,1722.85h2.14v-5.37h2.92v-1.77h-2.92v-5.47h-2.14v12.6ZM642.04,1718.58c-.02-1.25,1.13-2.02,2.85-2.04,1.7.01,2.85.79,2.86,2.04-.01,1.24-1.16,1.99-2.86,1.99s-2.86-.75-2.85-1.99M641.38,1725.61h11.18v4.79h2.14v-6.52h-13.32v1.73ZM639.98,1718.58c0,2.2,1.99,3.65,4.91,3.65s4.87-1.45,4.88-3.65c0-2.21-1.98-3.65-4.88-3.67-2.92.01-4.91,1.45-4.91,3.67M650.88,1712.29h-4.92v-2.14h-2.12v2.14h-4.95v1.7h11.99v-1.7ZM619.86,1725.55h1.33c2.94-.01,5.03-.09,7.46-.59l-.17-1.76c-2.15.41-4.01.53-6.48.55v-9.35h5.4v-1.73h-7.54v12.88ZM636.46,1710.25h-2.03v7.99h-2.61v-7.58h-1.97v18.7h1.97v-9.38h2.61v10.42h2.03v-20.15ZM614.08,1722.18h2.14v-11.93h-2.14v11.93ZM602,1716.23c-.02-1.8,1.36-2.97,3.27-2.97s3.26,1.17,3.26,2.97-1.37,3.01-3.26,3c-1.92.02-3.29-1.17-3.27-3M599.91,1716.23c0,2.84,2.27,4.82,5.37,4.82s5.35-1.97,5.35-4.82-2.26-4.81-5.35-4.8c-3.09,0-5.37,1.98-5.37,4.8M616.22,1723.22h-13.66v1.74h11.52v5.43h2.14v-7.17ZM584.66,1717.14c-.02-.94,1.52-1.43,4.33-1.43s4.34.49,4.35,1.43c0,.89-1.52,1.38-4.35,1.38s-4.35-.49-4.33-1.38M584.19,1727.29c0-1.01,1.68-1.54,4.8-1.54s4.8.53,4.8,1.54-1.68,1.5-4.8,1.49c-3.13.02-4.8-.5-4.8-1.49M580.76,1713.51h16.4v-1.65h-7.09v-1.86h-2.12v1.86h-7.19v1.65ZM579.83,1723.08h18.37v-1.7h-8.12v-1.39c3.57-.16,5.55-1.14,5.55-2.85,0-1.91-2.38-2.9-6.63-2.89-4.22-.01-6.62.98-6.61,2.89,0,1.71,2,2.7,5.57,2.85v1.39h-8.12v1.7ZM588.99,1724.17c-4.48,0-6.99,1.09-6.99,3.13s2.51,3.07,6.99,3.07,6.95-1.05,6.96-3.07c-.01-2.04-2.53-3.13-6.96-3.13"/>
  <path class="cls-1" d="M530.53,1869.41h6.57v-6.71h-6.57v6.71ZM509.87,1865.82c-6.5,0-11.45-4.54-11.45-11.11s4.61-11.05,11.25-11.05c6.03,0,10.64,4.54,10.64,11.11s-4.4,11.05-10.44,11.05M510.01,1870.43c8.67,0,15.65-7.18,15.58-15.85-.07-8.54-6.77-15.59-15.31-15.59-5.56,0-9.76,2.3-12.74,6.44h-.14c.2-11.38,3.46-18.7,12.54-18.7,5.35,0,8.47,3.66,8.88,8.06h5.62c-.74-6.71-5.36-12.87-14.64-12.87-11.79,0-17.96,9.55-17.96,23.99,0,9.55,1.63,15.92,6.57,20.39,2.78,2.58,6.51,4.13,11.59,4.13M469.28,1865.48c-8.2,0-12.2-7.52-12.2-19.31s4-19.38,12.2-19.38,12.06,7.59,12.06,19.38-3.79,19.31-12.06,19.31M469.22,1870.43c11.59,0,18.02-9.49,18.02-24.26s-6.98-24.26-17.95-24.26-18.09,9.21-18.09,24.26,6.57,24.26,18.02,24.26M443.06,1869.41h6.57v-6.71h-6.57v6.71ZM404.51,1869.41h32.18v-5.42h-25.34c1.29-5.15,7.73-8.94,12.74-11.72,7.45-4.13,13.55-7.12,13.55-16.06,0-8.27-6.1-14.23-15.52-14.23-4.74,0-9.08,1.43-12.06,4.34-2.85,2.84-4.4,6.64-4.4,12.6h5.96c0-4.74.81-7.32,2.64-9.28,1.69-1.83,4.13-2.91,7.38-2.91,6.17,0,10.1,3.86,10.1,9.55s-3.73,7.99-9.82,11.52c-8.13,4.67-16.87,9.21-17.41,21.61M391.43,1869.41h5.69v-46.68h-4.41c-.88,6.84-5.76,8.94-11.45,9.08v3.8h10.16v33.81ZM345.09,1847.73h33.88v-4.67h-33.88v4.67ZM335.53,1869.41h6.57v-6.71h-6.57v6.71ZM322.93,1869.41h5.69v-46.68h-4.4c-.88,6.84-5.76,8.94-11.45,9.08v3.8h10.16v33.81ZM291.9,1865.48c-8.2,0-12.2-7.52-12.2-19.31s4-19.38,12.2-19.38,12.06,7.59,12.06,19.38-3.8,19.31-12.06,19.31M291.83,1870.43c11.59,0,18.02-9.49,18.02-24.26s-6.98-24.26-17.96-24.26-18.09,9.21-18.09,24.26,6.57,24.26,18.02,24.26M262.97,1869.41h6.57v-6.71h-6.57v6.71ZM224.41,1869.41h32.18v-5.42h-25.34c1.29-5.15,7.73-8.94,12.74-11.72,7.45-4.13,13.55-7.12,13.55-16.06,0-8.27-6.1-14.23-15.52-14.23-4.74,0-9.08,1.43-12.06,4.34-2.84,2.84-4.4,6.64-4.4,12.6h5.96c0-4.74.81-7.32,2.64-9.28,1.69-1.83,4.13-2.91,7.39-2.91,6.16,0,10.09,3.86,10.09,9.55s-3.73,7.99-9.82,11.52c-8.13,4.67-16.87,9.21-17.41,21.61M211.34,1869.41h5.69v-46.68h-4.41c-.88,6.84-5.76,8.94-11.45,9.08v3.8h10.16v33.81ZM196.09,1869.41h6.57v-6.71h-6.57v6.71ZM174.27,1870.43c9.62,0,16.67-6.23,16.67-16.13s-7.52-16.19-15.79-16.19c-4.47,0-7.99,1.42-10.64,3.93h-.14l3.05-13.96h20.73v-5.08h-24.73l-5.15,24.93h5.49c1.96-2.78,5.42-4.81,10.44-4.81,6.1,0,10.91,4.06,10.91,11.04s-4.27,11.25-10.91,11.25-10.64-3.66-11.38-9.42h-5.63c.41,8.6,7.45,14.43,17.08,14.43M121.42,1869.41h32.18v-5.42h-25.34c1.29-5.15,7.73-8.94,12.74-11.72,7.45-4.13,13.55-7.12,13.55-16.06,0-8.27-6.1-14.23-15.52-14.23-4.74,0-9.08,1.43-12.06,4.34-2.84,2.84-4.4,6.64-4.4,12.6h5.96c0-4.74.81-7.32,2.64-9.28,1.69-1.83,4.13-2.91,7.39-2.91,6.16,0,10.09,3.86,10.09,9.55s-3.73,7.99-9.82,11.52c-8.13,4.67-16.87,9.21-17.41,21.61M101.43,1865.48c-8.2,0-12.2-7.52-12.2-19.31s4-19.38,12.2-19.38,12.06,7.59,12.06,19.38-3.79,19.31-12.06,19.31M101.37,1870.43c11.59,0,18.02-9.49,18.02-24.26s-6.98-24.26-17.96-24.26-18.09,9.21-18.09,24.26,6.57,24.26,18.02,24.26M47.5,1869.41h32.18v-5.42h-25.34c1.29-5.15,7.72-8.94,12.74-11.72,7.45-4.13,13.55-7.12,13.55-16.06,0-8.27-6.1-14.23-15.52-14.23-4.74,0-9.08,1.43-12.06,4.34-2.85,2.84-4.4,6.64-4.4,12.6h5.96c0-4.74.81-7.32,2.64-9.28,1.69-1.83,4.13-2.91,7.38-2.91,6.17,0,10.1,3.86,10.1,9.55s-3.73,7.99-9.82,11.52c-8.13,4.67-16.87,9.21-17.41,21.61"/>
  <path d="M491.16,125.5l2.18-1.65-1.65-2.18c-44.55,2.27-88.07,11.76-130.54,28.49-42.49,16.73-82.88,39.66-121.2,68.8-38.61,29.36-71.65,62.27-99.12,98.74-27.47,36.46-48.25,75.86-62.34,118.18l1.65,2.18,2.18-1.65c19.45-35.87,44.32-71.39,74.62-106.56,30.29-35.18,62.7-65.89,97.25-92.16,34.54-26.26,72.8-49.3,114.79-69.08,41.98-19.79,82.71-34.15,122.19-43.09"/>
  <path d="M587.18,1551.86l-2.18,1.65,1.65,2.18c44.55-2.27,88.06-11.77,130.54-28.49,42.48-16.73,83.03-39.77,121.63-69.13,38.32-29.14,71.2-61.94,98.68-98.4,27.47-36.47,48.25-75.86,62.34-118.18l-1.65-2.18-2.18,1.66c-18.95,35.94-43.62,71.41-74.01,106.44-30.4,35.02-62.87,65.68-97.41,91.94-34.55,26.27-72.75,49.36-114.63,69.3-41.88,19.93-82.81,34.34-122.79,43.21"/>
  <path class="cls-1" d="M1015.01,1867.61h2.12v-10.36c0-1.52-.14-4.4-.14-4.4h.05s.71,2.58,1.2,3.92l4.17,10.84h1.84l4.17-10.84c.51-1.34,1.2-3.92,1.2-3.92h.05s-.14,2.88-.14,4.4v10.36h2.25v-17.13h-3.13l-3.5,9.3c-.69,1.89-1.75,5.37-1.75,5.37h-.05s-1.04-3.5-1.73-5.37l-3.57-9.3h-3.04v17.13ZM1002.71,1852.53h4.47c2.12,0,3.34,1.04,3.34,3.04s-1.11,3.09-3.43,3.09h-4.38v-6.13ZM1000.34,1867.61h2.37v-7.04h4.61c3.71,0,5.55-1.91,5.55-5.07,0-1.36-.46-2.47-1.22-3.36-.87-1.06-2.28-1.65-4.1-1.65h-7.2v17.13ZM992.03,1865.97c-2.21,0-3.92-1.57-3.92-3.82s1.57-3.78,3.85-3.78c2.1,0,3.68,1.54,3.68,3.8s-1.54,3.8-3.62,3.8M992.07,1867.75c3.16,0,5.66-2.53,5.64-5.64-.02-3.06-2.44-5.52-5.46-5.52-1.98,0-3.43.78-4.51,2.58h-.05c.11-4.26,1.29-6.75,4.37-6.75,1.84,0,2.83,1.27,3,2.4h2.18c-.3-2.02-1.93-4.21-5.22-4.21-2.12,0-3.71.83-4.79,2.3-1.08,1.5-1.63,3.64-1.63,6.19,0,3.29.58,5.53,2.28,7.09.99.97,2.35,1.56,4.19,1.56M973.1,1860.13h11.51v-1.84h-11.51v1.84ZM954.82,1867.61h2.12v-10.36c0-1.52-.14-4.4-.14-4.4h.05s.72,2.58,1.2,3.92l4.17,10.84h1.84l4.17-10.84c.5-1.34,1.2-3.92,1.2-3.92h.05s-.14,2.88-.14,4.4v10.36h2.25v-17.13h-3.13l-3.5,9.3c-.69,1.89-1.75,5.37-1.75,5.37h-.05s-1.04-3.5-1.73-5.37l-3.57-9.3h-3.04v17.13ZM944.13,1855.98c.55-1.59,1.06-3.64,1.06-3.64h.07s.46,1.98,1.03,3.64l1.64,4.79h-5.48l1.68-4.79ZM937.64,1867.61h2.42l1.75-5h6.75l1.7,5h2.58l-6.31-17.13h-2.62l-6.26,17.13ZM929.76,1865.86c-2.81,0-4.19-2.62-4.19-6.7s1.38-6.7,4.19-6.7,4.15,2.62,4.15,6.7-1.29,6.7-4.15,6.7M929.74,1867.75c4.12,0,6.47-3.36,6.47-8.59s-2.5-8.57-6.45-8.57-6.47,3.27-6.47,8.57,2.39,8.59,6.45,8.59M918.02,1867.38h2.23v-16.51h-1.73c-.3,2.4-2.23,3.17-4.3,3.22v1.47h3.8v11.81ZM898.61,1871.92c1.59,0,2.58-.58,3.59-3.17l5.25-13.49h-2.23l-2.46,6.86c-.48,1.38-1.06,3.34-1.06,3.34h-.05s-.53-1.93-1.04-3.34l-2.55-6.86h-2.32l4.72,11.74c.05.14-.43,1.52-.43,1.56-.44,1.17-.99,1.5-1.84,1.5-.53,0-1.06-.09-1.29-.23h-.09v1.84c.35.14,1.13.25,1.82.25M888.71,1866.3c-1.25,0-2.47-.39-2.47-1.98,0-1.7,1.34-2.07,3.36-2.42,1.02-.18,2.1-.48,2.72-.87v2.02c0,1.43-1.15,3.25-3.62,3.25M888.18,1867.86c2.1,0,3.37-.99,4.15-2.07h.02c.23,1.31.87,1.93,2.19,1.93.5,0,.85-.09,1.15-.19v-1.5h-.09c-1.08.23-1.31-.3-1.31-1.29v-5.78c0-1.66-.62-2.74-1.66-3.36-.78-.46-1.82-.67-2.99-.67-3.34,0-4.93,1.86-5.02,3.96h2.07c.07-1.47,1.01-2.4,2.97-2.4,1.7,0,2.65.83,2.65,2.17,0,1.27-1.17,1.56-3,1.77-3.2.39-5.32,1.01-5.32,3.89,0,2.37,1.84,3.52,4.19,3.52M875.95,1866.21c-2.28,0-3.43-2-3.43-4.72s1.15-4.74,3.43-4.74c2.49,0,3.8,1.96,3.8,4.74s-1.15,4.72-3.8,4.72M875.79,1867.97c1.73,0,3.04-.8,3.82-2.14h.05v1.77h2.12v-17.13h-2.14v4.37c0,.83.02,1.73.07,2.28h-.05c-.78-1.31-2.17-2.18-3.92-2.18-3.07,0-5.41,2.44-5.41,6.52s2.11,6.51,5.45,6.51M865.08,1855.25h-2.11v12.36h2.14v-6.72c0-2.33,1.63-3.76,3.55-3.76.37,0,.58.02.87.12h.07v-2.02c-.23-.09-.44-.14-.78-.14-1.64,0-2.9.97-3.66,2.39h-.07v-2.23ZM860.22,1867.61v-12.36h-2.14v7.53c0,1.91-1.22,3.36-3.11,3.36-1.71,0-2.7-.92-2.7-2.49v-8.4h-2.14v8.52c0,2.58,1.63,4.12,4.19,4.12,1.77,0,2.85-.78,3.73-2h.05v1.73h2.11ZM841.6,1856.9h1.93v8.29c0,1.82,1.15,2.49,2.81,2.51.55,0,1.15-.07,1.73-.21v-1.79h-.07c-.23.07-.72.16-1.08.16-.78,0-1.27-.25-1.27-1.15v-7.81h2.55v-1.65h-2.55v-3.89h-2.12v3.89h-1.93v1.65ZM834.09,1866.3c-1.25,0-2.47-.39-2.47-1.98,0-1.7,1.34-2.07,3.36-2.42,1.02-.18,2.1-.48,2.72-.87v2.02c0,1.43-1.15,3.25-3.62,3.25M833.56,1867.86c2.1,0,3.37-.99,4.15-2.07h.02c.23,1.31.87,1.93,2.19,1.93.5,0,.85-.09,1.15-.19v-1.5h-.09c-1.08.23-1.31-.3-1.31-1.29v-5.78c0-1.66-.62-2.74-1.66-3.36-.78-.46-1.82-.67-2.99-.67-3.34,0-4.93,1.86-5.02,3.96h2.07c.07-1.47,1.01-2.4,2.97-2.4,1.71,0,2.65.83,2.65,2.17,0,1.27-1.17,1.56-3,1.77-3.2.39-5.32,1.01-5.32,3.89,0,2.37,1.84,3.52,4.19,3.52M821.22,1867.95c3.71,0,6.38-1.82,6.38-5.06,0-3.82-3.02-4.68-6.33-5.34-2.58-.53-4.44-1.06-4.44-2.92,0-1.7,1.47-2.62,3.73-2.62,2.42,0,3.92,1.13,4.22,3.2h2.28c-.41-2.92-2.3-5.04-6.52-5.04-3.52,0-5.94,1.7-5.94,4.58,0,3.29,2.6,4.17,5.66,4.81,3,.67,4.97,1.2,4.97,3.43,0,2.07-1.66,3.09-3.94,3.09-3.11,0-4.82-1.43-5.09-4.01h-2.32c.19,3.27,2.55,5.89,7.34,5.89M803.33,1871.18c1.63-.21,2.46-1.31,2.46-3.34v-2.76h-2.48v2.53h1.15v.23c0,1.45-.48,1.91-1.13,2.14v1.2ZM783.78,1867.61h2.11v-10.36c0-1.52-.14-4.4-.14-4.4h.05s.72,2.58,1.2,3.92l4.17,10.84h1.85l4.17-10.84c.51-1.34,1.2-3.92,1.2-3.92h.05s-.14,2.88-.14,4.4v10.36h2.25v-17.13h-3.13l-3.5,9.3c-.69,1.89-1.75,5.37-1.75,5.37h-.05s-1.04-3.5-1.73-5.37l-3.57-9.3h-3.04v17.13ZM771.49,1852.53h4.47c2.12,0,3.34,1.04,3.34,3.04s-1.1,3.09-3.43,3.09h-4.37v-6.13ZM769.12,1867.61h2.37v-7.04h4.6c3.71,0,5.55-1.91,5.55-5.07,0-1.36-.46-2.47-1.22-3.36-.87-1.06-2.28-1.65-4.1-1.65h-7.21v17.13ZM760.41,1865.93c-2.56,0-4.08-1.2-4.08-3.27s1.5-3.39,4.01-3.39,4.05,1.31,4.05,3.39-1.52,3.27-3.98,3.27M760.34,1857.6c-2.05,0-3.32-.99-3.32-2.63s1.27-2.6,3.32-2.6,3.32.97,3.32,2.6-1.27,2.63-3.32,2.63M760.41,1867.75c3.13,0,6.19-1.4,6.19-5.06,0-2.21-1.43-3.73-3.52-4.26v-.07c1.75-.55,2.74-1.8,2.74-3.48,0-2.62-2.37-4.3-5.48-4.3s-5.46,1.7-5.46,4.33c0,1.68.99,2.92,2.76,3.45v.07c-2.1.58-3.59,1.93-3.59,4.26,0,3.64,3.22,5.06,6.35,5.06M741.83,1860.13h11.51v-1.84h-11.51v1.84ZM723.55,1867.61h2.12v-10.36c0-1.52-.14-4.4-.14-4.4h.05s.71,2.58,1.2,3.92l4.17,10.84h1.84l4.17-10.84c.51-1.34,1.2-3.92,1.2-3.92h.05s-.14,2.88-.14,4.4v10.36h2.25v-17.13h-3.13l-3.5,9.3c-.69,1.89-1.75,5.37-1.75,5.37h-.05s-1.04-3.5-1.73-5.37l-3.57-9.3h-3.04v17.13ZM712.86,1855.98c.55-1.59,1.06-3.64,1.06-3.64h.07s.46,1.98,1.04,3.64l1.63,4.79h-5.48l1.68-4.79ZM706.37,1867.61h2.42l1.75-5h6.75l1.7,5h2.58l-6.31-17.13h-2.62l-6.26,17.13ZM698.5,1865.86c-2.81,0-4.19-2.62-4.19-6.7s1.38-6.7,4.19-6.7,4.15,2.62,4.15,6.7-1.29,6.7-4.15,6.7M698.47,1867.75c4.12,0,6.47-3.36,6.47-8.59s-2.51-8.57-6.45-8.57-6.47,3.27-6.47,8.57,2.39,8.59,6.45,8.59M686.75,1867.38h2.23v-16.51h-1.73c-.3,2.4-2.23,3.17-4.31,3.22v1.47h3.8v11.81ZM667.34,1871.92c1.59,0,2.58-.58,3.59-3.17l5.25-13.49h-2.23l-2.47,6.86c-.48,1.38-1.06,3.34-1.06,3.34h-.05s-.53-1.93-1.03-3.34l-2.56-6.86h-2.32l4.72,11.74c.05.14-.44,1.52-.44,1.56-.44,1.17-.99,1.5-1.84,1.5-.53,0-1.06-.09-1.29-.23h-.09v1.84c.35.14,1.13.25,1.82.25M657.44,1866.3c-1.25,0-2.47-.39-2.47-1.98,0-1.7,1.34-2.07,3.37-2.42,1.01-.18,2.1-.48,2.72-.87v2.02c0,1.43-1.15,3.25-3.62,3.25M656.91,1867.86c2.1,0,3.36-.99,4.15-2.07h.02c.23,1.31.87,1.93,2.18,1.93.51,0,.85-.09,1.15-.19v-1.5h-.09c-1.08.23-1.31-.3-1.31-1.29v-5.78c0-1.66-.62-2.74-1.65-3.36-.78-.46-1.82-.67-3-.67-3.34,0-4.93,1.86-5.02,3.96h2.07c.07-1.47,1.02-2.4,2.97-2.4,1.7,0,2.65.83,2.65,2.17,0,1.27-1.17,1.56-3,1.77-3.2.39-5.32,1.01-5.32,3.89,0,2.37,1.84,3.52,4.19,3.52M644.68,1866.21c-2.28,0-3.43-2-3.43-4.72s1.15-4.74,3.43-4.74c2.49,0,3.8,1.96,3.8,4.74s-1.15,4.72-3.8,4.72M644.52,1867.97c1.73,0,3.04-.8,3.82-2.14h.05v1.77h2.12v-17.13h-2.14v4.37c0,.83.02,1.73.07,2.28h-.05c-.78-1.31-2.16-2.18-3.92-2.18-3.06,0-5.41,2.44-5.41,6.52s2.12,6.51,5.45,6.51M636.3,1867.61h2.51l-5.27-7.92,4.72-4.44h-2.67l-5.37,5.27c.05-.6.09-1.47.09-1.91v-8.13h-2.14v17.13h2.14v-4.86l1.75-1.66,4.24,6.52ZM620.37,1856.6c2.14,0,3.36,1.43,3.48,3.8h-7.16c.28-2.19,1.45-3.8,3.69-3.8M620.48,1867.95c2.86,0,4.84-1.56,5.39-3.87h-2.09c-.39,1.31-1.57,2.12-3.27,2.12-2.4,0-3.71-1.85-3.87-4.27h9.49c0-2.09-.5-3.87-1.52-5.09-.97-1.2-2.4-1.91-4.24-1.91-3.55,0-5.92,2.9-5.92,6.49s2.23,6.52,6.03,6.52M607.31,1856.6c2.14,0,3.36,1.43,3.48,3.8h-7.16c.28-2.19,1.45-3.8,3.69-3.8M607.43,1867.95c2.85,0,4.83-1.56,5.39-3.87h-2.1c-.39,1.31-1.57,2.12-3.27,2.12-2.4,0-3.71-1.85-3.87-4.27h9.49c0-2.09-.5-3.87-1.52-5.09-.97-1.2-2.4-1.91-4.24-1.91-3.55,0-5.92,2.9-5.92,6.49s2.23,6.52,6.03,6.52M584.63,1867.61h2.35l3.02-10.98c.39-1.5.83-4.26.83-4.26h.05s.41,2.76.8,4.28l2.81,10.96h2.28l4.77-17.13h-2.42l-2.55,10.08c-.42,1.68-.85,4.54-.85,4.54h-.05s-.46-2.88-.9-4.56l-2.67-10.06h-2.48l-2.77,10.06c-.43,1.68-.9,4.56-.9,4.56h-.05s-.39-2.85-.8-4.53l-2.47-10.09h-2.46l4.47,17.13Z"/>
  <path class="cls-1" d="M940.59,1838.05h2.12v-10.36c0-1.52-.14-4.4-.14-4.4h.05s.71,2.58,1.2,3.92l4.17,10.84h1.84l4.17-10.84c.51-1.33,1.2-3.92,1.2-3.92h.05s-.14,2.88-.14,4.4v10.36h2.25v-17.13h-3.13l-3.5,9.3c-.69,1.89-1.75,5.37-1.75,5.37h-.05s-1.04-3.5-1.73-5.37l-3.57-9.3h-3.04v17.13ZM928.29,1822.97h4.47c2.12,0,3.34,1.04,3.34,3.04s-1.11,3.09-3.43,3.09h-4.38v-6.13ZM925.92,1838.05h2.37v-7.04h4.61c3.71,0,5.55-1.91,5.55-5.07,0-1.36-.46-2.46-1.22-3.36-.87-1.06-2.28-1.65-4.1-1.65h-7.21v17.13ZM917.61,1836.42c-2.21,0-3.92-1.57-3.92-3.82s1.57-3.78,3.85-3.78c2.1,0,3.68,1.54,3.68,3.8s-1.54,3.8-3.62,3.8M917.65,1838.19c3.16,0,5.67-2.53,5.64-5.64-.02-3.07-2.44-5.52-5.45-5.52-1.98,0-3.43.78-4.52,2.58h-.05c.11-4.26,1.29-6.75,4.37-6.75,1.84,0,2.83,1.27,3,2.4h2.19c-.3-2.03-1.93-4.21-5.23-4.21-2.12,0-3.71.83-4.79,2.3-1.08,1.5-1.63,3.64-1.63,6.19,0,3.29.58,5.53,2.28,7.09.99.97,2.35,1.56,4.19,1.56M898.68,1830.57h11.51v-1.84h-11.51v1.84ZM880.4,1838.05h2.12v-10.36c0-1.52-.14-4.4-.14-4.4h.05s.71,2.58,1.2,3.92l4.17,10.84h1.84l4.17-10.84c.5-1.33,1.2-3.92,1.2-3.92h.05s-.14,2.88-.14,4.4v10.36h2.25v-17.13h-3.13l-3.5,9.3c-.69,1.89-1.75,5.37-1.75,5.37h-.05s-1.03-3.5-1.73-5.37l-3.57-9.3h-3.04v17.13ZM869.71,1826.43c.55-1.59,1.06-3.64,1.06-3.64h.07s.46,1.98,1.04,3.64l1.63,4.79h-5.48l1.68-4.79ZM863.22,1838.05h2.42l1.75-5h6.75l1.7,5h2.58l-6.31-17.13h-2.62l-6.26,17.13ZM855.35,1836.31c-2.81,0-4.19-2.62-4.19-6.7s1.38-6.7,4.19-6.7,4.15,2.62,4.15,6.7-1.29,6.7-4.15,6.7M855.32,1838.19c4.12,0,6.47-3.36,6.47-8.59s-2.51-8.56-6.45-8.56-6.47,3.27-6.47,8.56,2.39,8.59,6.45,8.59M843.61,1837.83h2.23v-16.51h-1.73c-.3,2.4-2.23,3.18-4.3,3.22v1.47h3.8v11.81ZM830.34,1830.14h-11.88v-2.73h11.24v-1.71h-11.24v-2.58h11.68v-1.74h-13.83v10.47h5.8v3.93h-8.11v1.74h18.44v-1.74h-8.19v-3.93h6.1v-1.72ZM803.87,1841.62c1.63-.21,2.46-1.31,2.46-3.34v-2.76h-2.49v2.53h1.15v.23c0,1.45-.48,1.91-1.13,2.14v1.2ZM784.32,1838.05h2.11v-10.36c0-1.52-.14-4.4-.14-4.4h.05s.72,2.58,1.2,3.92l4.17,10.84h1.85l4.17-10.84c.51-1.33,1.2-3.92,1.2-3.92h.05s-.14,2.88-.14,4.4v10.36h2.25v-17.13h-3.13l-3.5,9.3c-.69,1.89-1.75,5.37-1.75,5.37h-.05s-1.04-3.5-1.73-5.37l-3.57-9.3h-3.03v17.13ZM772.02,1822.97h4.47c2.12,0,3.34,1.04,3.34,3.04s-1.1,3.09-3.43,3.09h-4.38v-6.13ZM769.66,1838.05h2.37v-7.04h4.61c3.71,0,5.55-1.91,5.55-5.07,0-1.36-.46-2.46-1.22-3.36-.87-1.06-2.28-1.65-4.1-1.65h-7.21v17.13ZM760.95,1836.38c-2.55,0-4.07-1.2-4.07-3.27s1.5-3.38,4.01-3.38,4.05,1.31,4.05,3.38-1.52,3.27-3.99,3.27M760.88,1828.04c-2.05,0-3.32-.99-3.32-2.63s1.27-2.6,3.32-2.6,3.32.97,3.32,2.6-1.27,2.63-3.32,2.63M760.95,1838.19c3.13,0,6.19-1.4,6.19-5.06,0-2.21-1.43-3.73-3.52-4.26v-.07c1.75-.55,2.74-1.8,2.74-3.48,0-2.62-2.37-4.3-5.48-4.3s-5.46,1.7-5.46,4.33c0,1.68.99,2.92,2.76,3.45v.07c-2.1.58-3.59,1.93-3.59,4.26,0,3.64,3.22,5.06,6.35,5.06M742.37,1830.57h11.51v-1.84h-11.51v1.84ZM724.09,1838.05h2.12v-10.36c0-1.52-.14-4.4-.14-4.4h.05s.71,2.58,1.2,3.92l4.17,10.84h1.84l4.17-10.84c.5-1.33,1.2-3.92,1.2-3.92h.05s-.14,2.88-.14,4.4v10.36h2.25v-17.13h-3.13l-3.5,9.3c-.69,1.89-1.75,5.37-1.75,5.37h-.05s-1.04-3.5-1.73-5.37l-3.57-9.3h-3.04v17.13ZM713.4,1826.43c.55-1.59,1.06-3.64,1.06-3.64h.07s.46,1.98,1.04,3.64l1.63,4.79h-5.48l1.68-4.79ZM706.91,1838.05h2.42l1.75-5h6.75l1.7,5h2.58l-6.31-17.13h-2.62l-6.26,17.13ZM699.03,1836.31c-2.81,0-4.19-2.62-4.19-6.7s1.38-6.7,4.19-6.7,4.15,2.62,4.15,6.7-1.29,6.7-4.15,6.7M699.01,1838.19c4.12,0,6.47-3.36,6.47-8.59s-2.51-8.56-6.45-8.56-6.47,3.27-6.47,8.56,2.39,8.59,6.45,8.59M687.29,1837.83h2.23v-16.51h-1.72c-.3,2.4-2.23,3.18-4.31,3.22v1.47h3.8v11.81ZM662.93,1834.18h9.68v3.8h-9.68v-3.8ZM660.84,1839.71h13.88v-7.21h-13.88v7.21ZM674.7,1820.84h-13.79v1.74h11.67c0,1.53-.02,3.26-.55,5.62h-13.43v1.74h18.44v-1.74h-2.86c.53-2.45.53-4.25.53-5.83v-1.53ZM643.35,1822.34h9.49v3.51h-9.49v-3.51ZM640.96,1835.24h11.92v4.73h2.15v-6.43h-14.07v1.7ZM654.94,1820.65h-13.68v6.91h5.78v2.35h-8.11v1.73h18.37v-1.73h-8.14v-2.35h5.79v-6.91ZM619.24,1832.8h8.09v7.16h2.1v-7.16h8.18v-1.76h-18.37v1.76ZM629.54,1821.59v-1.1h-2.23v1.1c0,2.71-3.26,5.19-7.21,5.73l.86,1.74c3.27-.52,6.16-2.23,7.47-4.61,1.31,2.37,4.2,4.09,7.49,4.61l.85-1.74c-3.97-.53-7.24-3.04-7.24-5.73M602.93,1828.72c0-1.29,1.12-2.12,2.82-2.12s2.8.83,2.8,2.12-1.12,2.07-2.8,2.07c-1.69,0-2.82-.79-2.82-2.07M599.68,1823.91h12.09v-1.7h-4.96v-2.34h-2.14v2.34h-4.98v1.7ZM599.31,1834.49l.33,1.78c3.48,0,8.2-.04,12.57-.81l-.15-1.58c-1.67.24-3.47.38-5.25.47v-1.96c2.27-.32,3.78-1.7,3.8-3.65-.02-2.28-2-3.77-4.85-3.77s-4.84,1.5-4.83,3.77c-.02,1.95,1.47,3.32,3.74,3.65v2.05c-1.92.05-3.77.06-5.36.06M615.35,1819.82h-2.14v20.15h2.14v-9.92h3.02v-1.79h-3.02v-8.45ZM583.35,1823.21c-.02-.96,1.17-1.59,3.03-1.59s3.02.63,3.02,1.59-1.19,1.58-3.02,1.58-3.04-.62-3.03-1.58M582.85,1833.82h11.67v1.43h-11.59v4.53h14.32v-1.55h-12.22v-1.55h11.62v-4.35h-13.79v1.49ZM581.33,1823.21c0,1.88,2,3.01,5.05,3.01s5.01-1.13,5.03-3.01c-.02-1.85-2.03-3.03-5.03-3.03s-5.05,1.19-5.05,3.03M579.83,1827.27l.25,1.53c1.57,0,3.32,0,5.14-.05v2.94h2.11v-3.02c1.93-.1,3.91-.26,5.81-.53l-.13-1.37c-4.34.45-9.27.49-13.18.48M596.64,1819.83h-2.15v9.5h-3.93v1.34h3.93v.97h2.15v-11.81Z"/>
</svg>