<?xml version="1.0" encoding="UTF-8"?>
<svg id="_레이어_1" data-name="레이어 1" xmlns="http://www.w3.org/2000/svg" viewBox="0 0 3840 2160">
  <defs>
    <style>
      .cls-1 {
        fill: none;
        stroke: #fff;
        stroke-miterlimit: 10;
      }

      .cls-2 {
        fill: #231815;
      }
    </style>
  </defs>
  <path d="M3784.47,1117.88l3.25-4.28,4.27,3.25c-4.45,87.5-23.09,172.97-55.95,256.39-32.86,83.45-77.89,162.78-135.12,238.03-57.66,75.83-122.29,140.72-193.92,194.67-71.61,53.96-148.98,94.76-232.11,122.44l-4.27-3.25,3.25-4.28c70.45-38.2,140.21-87.05,209.28-146.54,69.08-59.49,129.41-123.15,181-190.99,51.58-67.84,96.82-142.99,135.68-225.46,38.87-82.46,67.07-162.44,84.64-239.98"/>
  <path d="M89.73,858.51l-3.25,4.28-4.27-3.25c4.45-87.5,23.11-172.96,55.95-256.39,32.86-83.42,78.11-163.06,135.77-238.89,57.22-75.25,121.65-139.84,193.27-193.81,71.62-53.95,148.98-94.76,232.11-122.44l4.27,3.25-3.25,4.27c-70.58,37.22-140.26,85.67-209.06,145.37-68.79,59.71-128.99,123.48-180.57,191.32-51.6,67.85-96.95,142.89-136.11,225.13-39.14,82.26-67.43,162.64-84.86,241.16"/>
  <path class="cls-2" d="M2060.13,981.06c10.3-6.99,7.72-9.93-2.21-5.15-31.25,15.82-61.03,26.12-99.27,32.37-8.82,1.47-10.66-1.47-10.66-7.36v-85.72c0-9.2,8.09-15.82-47.8-18.02-13.97,2.21-9.19,7.36-2.58,8.83,12.87,4.42,27.21,10.3,27.94,17.29l.37,81.67c0,11.04,6.99,28.69,18.38,26.12,37.5-7.73,86.4-30.17,115.81-50.03M2075.57,1163.16c-68.39,0-68.39-89.03,0-89.03s68.39,89.03,0,89.03M2084.03,1063.83c1.84-10.3,10.66-11.04-11.4-19.5-7.35-1.1-8.82,1.47-3.68,5.89,5.52,5.15,2.21,12.51-5.15,13.61l-5.15.74c-82.73,11.77-68.39,114.78,16.91,114.78s96.7-102.64,8.46-115.51M2154.62,879.52c.37-13.24,15.81-19.5-51.47-30.17-19.12,1.47-8.46,6.62-.73,9.93,8.46,3.68,29.78,12.51,29.78,20.23l.37,41.94c-28.68,1.84-53.68,3.68-80.15,1.47-14.7-1.1-10.66,3.68-4.78,6.99,32.35,13.61,24.63,6.62,36.77,4.78,11.4-1.84,26.47-2.58,48.17-3.68v66.95c-20.96,2.94-58.09,4.05-76.11,2.94-14.34-.74-13.24,2.21-5.15,6.99,29.78,12.88,23.16,6.25,34.56,2.94,12.13-1.47,31.25-2.58,46.69-3.31v39c0,28.69,15.44,17.66,19.49-16.56l2.57-150.46ZM1846.88,1167.21c13.97,0,14.34-19.13-9.19-19.87-43.02-1.84-26.1,9.93-54.78,9.93l-75.74.37c-12.13,0-16.91-3.68-16.91-11.77,0-13.24-.37-26.49,0-51.5.37-9.2,4.41-13.98-6.62-16.19-6.99-1.1-22.06-2.21-38.6-2.21-15.44,2.94-12.87,6.99-4.41,9.2,18.38,5.15,27.21,9.2,27.21,15.82l-1.1,41.94c1.47,18.39,14.71,24.28,38.97,24.28h141.18ZM1656.43,1014.17c-73.9,0-73.9-98.59,0-98.59s72.43,98.59,0,98.59M1672.24,902.33c1.1-8.09,15.81-14.35-11.03-22.81-13.6-2.58-15.07.74-7.72,6.99,6.99,8.1,3.68,11.77-4.78,13.98l-2.58.37c-101.47,14.35-86.77,129.13,10.3,129.13,86.03,0,109.93-107.05,15.81-127.66M1883.65,987.31c13.6-.37,16.55-18.76-3.68-19.86-35.3-1.47-25.74,6.25-43.38,9.93-5.88.37-9.19.37-14.34.37v-107.42c0-10.3,6.98-13.98-11.4-19.87-11.03-3.68-23.16-7.72-38.24-7.72-16.55.37-16.18,6.25-4.41,10.67,22.06,8.46,31.25,16.19,31.25,23.54l-.37,210.79c0,24.65,10.3,17.29,15.81,3.68,6.98-17.66,6.62-24.65,6.62-103.01l62.14-1.1Z"/>
  <path d="M2060.13,981.06c10.3-6.99,7.72-9.93-2.21-5.15-31.25,15.82-61.03,26.12-99.27,32.37-8.82,1.47-10.66-1.47-10.66-7.36v-85.72c0-9.2,8.09-15.82-47.8-18.02-13.97,2.21-9.19,7.36-2.58,8.83,12.87,4.42,27.21,10.3,27.94,17.29l.37,81.67c0,11.04,6.99,28.69,18.38,26.12,37.5-7.73,86.4-30.17,115.81-50.03ZM2075.57,1163.16c-68.39,0-68.39-89.03,0-89.03s68.39,89.03,0,89.03ZM2084.03,1063.83c1.84-10.3,10.66-11.04-11.4-19.5-7.35-1.1-8.82,1.47-3.68,5.89,5.52,5.15,2.21,12.51-5.15,13.61l-5.15.74c-82.73,11.77-68.39,114.78,16.91,114.78s96.7-102.64,8.46-115.51ZM2154.62,879.52c.37-13.24,15.81-19.5-51.47-30.17-19.12,1.47-8.46,6.62-.73,9.93,8.46,3.68,29.78,12.51,29.78,20.23l.37,41.94c-28.68,1.84-53.68,3.68-80.15,1.47-14.7-1.1-10.66,3.68-4.78,6.99,32.35,13.61,24.63,6.62,36.77,4.78,11.4-1.84,26.47-2.58,48.17-3.68v66.95c-20.96,2.94-58.09,4.05-76.11,2.94-14.34-.74-13.24,2.21-5.15,6.99,29.78,12.88,23.16,6.25,34.56,2.94,12.13-1.47,31.25-2.58,46.69-3.31v39c0,28.69,15.44,17.66,19.49-16.56l2.57-150.46ZM1846.88,1167.21c13.97,0,14.34-19.13-9.19-19.87-43.02-1.84-26.1,9.93-54.78,9.93l-75.74.37c-12.13,0-16.91-3.68-16.91-11.77,0-13.24-.37-26.49,0-51.5.37-9.2,4.41-13.98-6.62-16.19-6.99-1.1-22.06-2.21-38.6-2.21-15.44,2.94-12.87,6.99-4.41,9.2,18.38,5.15,27.21,9.2,27.21,15.82l-1.1,41.94c1.47,18.39,14.71,24.28,38.97,24.28h141.18ZM1656.43,1014.17c-73.9,0-73.9-98.59,0-98.59s72.43,98.59,0,98.59ZM1672.24,902.33c1.1-8.09,15.81-14.35-11.03-22.81-13.6-2.58-15.07.74-7.72,6.99,6.99,8.1,3.68,11.77-4.78,13.98l-2.58.37c-101.47,14.35-86.77,129.13,10.3,129.13,86.03,0,109.93-107.05,15.81-127.66ZM1883.65,987.31c13.6-.37,16.55-18.76-3.68-19.86-35.3-1.47-25.74,6.25-43.38,9.93-5.88.37-9.19.37-14.34.37v-107.42c0-10.3,6.98-13.98-11.4-19.87-11.03-3.68-23.16-7.72-38.24-7.72-16.55.37-16.18,6.25-4.41,10.67,22.06,8.46,31.25,16.19,31.25,23.54l-.37,210.79c0,24.65,10.3,17.29,15.81,3.68,6.98-17.66,6.62-24.65,6.62-103.01l62.14-1.1Z"/>
  <path class="cls-2" d="M2156.73,2112.29h4.19v-4.26h-4.19v4.26ZM2145.67,2112.29h4l7.49-20.84h-3.72l-3.72,11.25c-.93,2.8-1.82,6.64-1.82,6.64h-.08s-1.01-3.84-1.9-6.64l-3.65-11.26h-3.84l7.26,20.84ZM2132.52,2112.29h3.6v-20.84h-3.6v20.84ZM2132.44,2087.6h3.76v-4.19h-3.76v4.19ZM2114.31,2091.45h-3.57v20.84h3.6v-12.69c0-3.34,2.33-5.63,5.55-5.63,2.83,0,4.58,1.51,4.58,4.19v14.13h3.57v-14.55c0-4.35-2.68-6.79-7.02-6.79-3.03,0-5.09,1.36-6.6,3.45h-.12v-2.94ZM2094.98,2112.71c6.33,0,11.14-2.87,11.14-9.81v-19.48h-3.95v19.13c0,4.74-2.64,6.79-7.11,6.79s-7.26-2.06-7.26-6.79v-19.13h-3.95v19.48c0,6.95,4.65,9.81,11.14,9.81M2066.92,2112.29h4.23l-8.89-13.35,7.96-7.49h-4.5l-9.04,8.89c.08-1.01.15-2.48.15-3.22v-13.7h-3.6v28.87h3.6v-8.19l2.95-2.79,7.14,10.98ZM2045.04,2112.29h3.6v-20.84h-3.6v20.84ZM2044.96,2087.6h3.76v-4.19h-3.76v4.19ZM2030.99,2108.41c-3.77,0-5.78-2.8-5.78-7.22s1.94-7.26,5.75-7.26c4.15,0,6.13,2.68,6.13,7.07s-1.55,7.42-6.1,7.42M2031.15,2119.58c2.79,0,5.12-.62,6.75-1.98,1.59-1.36,2.52-3.42,2.52-6.18v-19.98h-3.57v2.75h-.08c-1.32-2.09-3.34-3.25-6.33-3.25-4.89,0-8.92,3.8-8.92,10.2,0,6.06,3.8,10.2,9.12,10.2,2.95,0,4.78-1.28,6.21-3.33h.08c-.04.66-.08,1.78-.08,2.99v.58c0,3.54-2.06,5.21-5.79,5.21-3.11,0-5.2-.89-5.51-3.07h-3.37c.39,3.69,3.49,5.86,8.96,5.86M2004.13,2091.45h-3.57v20.84h3.6v-12.69c0-3.34,2.33-5.63,5.55-5.63,2.83,0,4.58,1.51,4.58,4.19v14.13h3.56v-14.55c0-4.35-2.67-6.79-7.02-6.79-3.03,0-5.09,1.36-6.6,3.45h-.12v-2.94ZM1986.94,2109.93c-4.27,0-6.48-3.53-6.48-8.04s2.21-8.07,6.48-8.07,6.48,3.57,6.48,8.07-2.21,8.04-6.48,8.04M1986.98,2112.87c6.29,0,10.13-4.89,10.13-10.98s-3.84-10.94-10.13-10.94-10.2,4.89-10.2,10.94,3.92,10.98,10.2,10.98M1949.96,2112.29h3.95v-13.5h14.91v13.5h3.99v-28.87h-3.99v12.15h-14.91v-12.15h-3.95v28.87ZM1931.17,2118.3c2.75-.35,4.15-2.21,4.15-5.63v-4.65h-4.19v4.26h1.94v.39c0,2.44-.81,3.22-1.9,3.61v2.02ZM1913.32,2091.45h-3.57v20.84h3.6v-12.69c0-3.34,2.33-5.63,5.55-5.63,2.83,0,4.58,1.51,4.58,4.19v14.13h3.57v-14.55c0-4.35-2.67-6.79-7.02-6.79-3.03,0-5.09,1.36-6.6,3.45h-.12v-2.94ZM1895.7,2108.41c-3.77,0-5.78-2.8-5.78-7.22s1.94-7.26,5.75-7.26c4.15,0,6.13,2.68,6.13,7.07s-1.55,7.42-6.1,7.42M1895.85,2119.58c2.8,0,5.12-.62,6.75-1.98,1.59-1.36,2.52-3.42,2.52-6.18v-19.98h-3.57v2.75h-.08c-1.32-2.09-3.34-3.25-6.33-3.25-4.89,0-8.92,3.8-8.92,10.2,0,6.06,3.8,10.2,9.12,10.2,2.95,0,4.77-1.28,6.21-3.33h.08c-.04.66-.08,1.78-.08,2.99v.58c0,3.54-2.06,5.21-5.78,5.21-3.11,0-5.2-.89-5.52-3.07h-3.37c.39,3.69,3.49,5.86,8.96,5.86M1878.86,2112.29h3.6v-20.84h-3.6v20.84ZM1878.78,2087.6h3.76v-4.19h-3.76v4.19ZM1866.98,2112.91c4.89,0,8.38-2.17,8.38-6.4,0-4.85-3.57-5.78-7.72-6.6-3.53-.7-5.55-1.13-5.55-3.3,0-1.59,1.2-2.91,4.04-2.91,2.99,0,4.47,1.2,4.78,3.34h3.61c-.47-3.61-3.06-6.05-8.3-6.05-4.85,0-7.64,2.25-7.64,5.82,0,4.58,3.68,5.44,7.76,6.29,3.69.74,5.44,1.32,5.44,3.61,0,1.86-1.4,3.3-4.7,3.3-2.99,0-5.32-1.01-5.74-4.04h-3.65c.31,4.23,3.57,6.94,9.31,6.94M1845.83,2093.74c3.61,0,5.67,2.41,5.86,6.41h-12.07c.47-3.69,2.45-6.41,6.21-6.41M1846.02,2112.87c4.81,0,8.15-2.64,9.08-6.52h-3.53c-.66,2.21-2.64,3.57-5.51,3.57-4.04,0-6.25-3.11-6.52-7.19h15.99c0-3.53-.85-6.52-2.56-8.58-1.63-2.02-4.04-3.22-7.14-3.22-5.98,0-9.97,4.89-9.97,10.94s3.76,10.98,10.17,10.98M1813.46,2108.84v-21.97h6.48c6.56,0,8.97,4.46,8.97,11.1s-2.68,10.87-9.2,10.87h-6.25ZM1809.47,2112.29h10.4c8.66,0,13.15-5.7,13.15-14.32s-4.26-14.55-12.88-14.55h-10.67v28.87ZM1780.82,2091.45h-3.57v20.84h3.6v-12.69c0-3.34,2.33-5.63,5.55-5.63,2.83,0,4.58,1.51,4.58,4.19v14.13h3.57v-14.55c0-4.35-2.68-6.79-7.02-6.79-3.03,0-5.09,1.36-6.6,3.45h-.12v-2.94ZM1763.63,2109.93c-4.27,0-6.48-3.53-6.48-8.04s2.21-8.07,6.48-8.07,6.48,3.57,6.48,8.07-2.21,8.04-6.48,8.04M1763.67,2112.87c6.29,0,10.13-4.89,10.13-10.98s-3.84-10.94-10.13-10.94-10.2,4.89-10.2,10.94,3.91,10.98,10.2,10.98M1746.4,2112.29h3.6v-20.84h-3.6v20.84ZM1746.33,2087.6h3.76v-4.19h-3.76v4.19ZM1731.89,2094.24h3.26v13.98c0,3.06,1.94,4.19,4.73,4.23.93,0,1.94-.12,2.91-.35v-3.02h-.12c-.39.12-1.2.27-1.82.27-1.32,0-2.13-.43-2.13-1.94v-13.16h4.31v-2.79h-4.31v-6.56h-3.57v6.56h-3.26v2.79ZM1719.23,2110.08c-2.1,0-4.15-.66-4.15-3.34,0-2.87,2.25-3.49,5.67-4.08,1.71-.31,3.53-.82,4.58-1.48v3.42c0,2.4-1.94,5.47-6.1,5.47M1718.34,2112.71c3.53,0,5.67-1.67,6.99-3.49h.04c.39,2.21,1.47,3.26,3.68,3.26.85,0,1.44-.16,1.94-.31v-2.52h-.16c-1.82.39-2.21-.5-2.21-2.17v-9.74c0-2.79-1.05-4.62-2.79-5.66-1.32-.78-3.07-1.12-5.05-1.12-5.63,0-8.3,3.14-8.46,6.67h3.49c.12-2.48,1.71-4.03,5.01-4.03,2.88,0,4.47,1.4,4.47,3.65,0,2.13-1.98,2.64-5.05,2.99-5.4.66-8.96,1.71-8.96,6.56,0,4,3.1,5.94,7.06,5.94M1699.44,2112.87c5.28,0,8.58-2.99,9.04-7.95h-3.57c-.27,3.11-2.21,5.01-5.47,5.01-4.27,0-6.48-3.53-6.48-8.04s2.21-8.04,6.48-8.04c3.03,0,4.89,1.67,5.4,4.39h3.61c-.74-4.46-4-7.29-9-7.29-6.25,0-10.16,4.89-10.16,10.94s3.91,10.98,10.16,10.98M1682.21,2112.29h3.6v-20.84h-3.6v20.84ZM1682.13,2087.6h3.76v-4.19h-3.76v4.19ZM1664,2091.45h-3.56v20.84h3.6v-12.69c0-3.34,2.33-5.63,5.55-5.63,2.83,0,4.58,1.51,4.58,4.19v14.13h3.57v-14.55c0-4.35-2.67-6.79-7.02-6.79-3.03,0-5.09,1.36-6.6,3.45h-.12v-2.94ZM1655.81,2112.29v-20.84h-3.6v12.69c0,3.22-2.06,5.67-5.24,5.67-2.87,0-4.54-1.55-4.54-4.19v-14.17h-3.6v14.36c0,4.35,2.75,6.94,7.06,6.94,2.99,0,4.82-1.32,6.29-3.37h.08v2.91h3.56ZM1606.26,2112.29h3.6v-12.85c0-3.18,2.68-5.47,5.16-5.47,2.14,0,3.57,1.51,3.57,4.08v14.24h3.57v-12.85c0-3.18,2.29-5.47,4.93-5.47,2.1,0,3.77,1.51,3.77,4.08v14.24h3.6v-14.55c0-4.35-2.64-6.79-6.44-6.79-2.52,0-4.97,1.28-6.45,3.88h-.08c-.85-2.56-2.87-3.88-5.39-3.88-2.68,0-4.89,1.36-6.17,3.6h-.12v-3.1h-3.57v20.84ZM1573.58,2112.29h3.6v-12.85c0-3.18,2.68-5.47,5.16-5.47,2.13,0,3.57,1.51,3.57,4.08v14.24h3.57v-12.85c0-3.18,2.29-5.47,4.93-5.47,2.1,0,3.77,1.51,3.77,4.08v14.24h3.6v-14.55c0-4.35-2.64-6.79-6.44-6.79-2.52,0-4.97,1.28-6.44,3.88h-.08c-.85-2.56-2.87-3.88-5.39-3.88-2.68,0-4.89,1.36-6.18,3.6h-.12v-3.1h-3.57v20.84ZM1559.96,2109.93c-4.27,0-6.48-3.53-6.48-8.04s2.22-8.07,6.48-8.07,6.48,3.57,6.48,8.07-2.21,8.04-6.48,8.04M1560,2112.87c6.29,0,10.13-4.89,10.13-10.98s-3.84-10.94-10.13-10.94-10.2,4.89-10.2,10.94,3.92,10.98,10.2,10.98M1534.96,2112.87c3.72,0,6.67-1.05,8.69-3.06,2.06-1.98,3.42-5.16,3.45-8.04h-3.96c-.35,4.12-2.87,7.65-8.11,7.65-5.82,0-9.62-4.66-9.62-11.57s3.45-11.61,9.59-11.61c4.43,0,7.18,2.37,7.84,5.9h3.96c-.39-2.76-1.63-5.12-3.69-6.79-1.94-1.59-4.66-2.56-8.04-2.56-8.58,0-13.69,6.55-13.69,15.06s5.35,15.02,13.58,15.02M1503.73,2112.29h3.6v-28.87h-3.6v28.87ZM1489.28,2110.08c-2.1,0-4.15-.66-4.15-3.34,0-2.87,2.25-3.49,5.67-4.08,1.71-.31,3.53-.82,4.58-1.48v3.42c0,2.4-1.94,5.47-6.1,5.47M1488.39,2112.71c3.53,0,5.67-1.67,6.99-3.49h.04c.39,2.21,1.47,3.26,3.68,3.26.85,0,1.44-.16,1.94-.31v-2.52h-.16c-1.82.39-2.21-.5-2.21-2.17v-9.74c0-2.79-1.05-4.62-2.79-5.66-1.32-.78-3.07-1.12-5.05-1.12-5.63,0-8.3,3.14-8.46,6.67h3.49c.12-2.48,1.71-4.03,5.01-4.03,2.88,0,4.47,1.4,4.47,3.65,0,2.13-1.98,2.64-5.05,2.99-5.4.66-8.96,1.71-8.96,6.56,0,4,3.1,5.94,7.06,5.94M1477.56,2112.29v-20.84h-3.6v12.69c0,3.22-2.06,5.67-5.24,5.67-2.87,0-4.54-1.55-4.54-4.19v-14.17h-3.6v14.36c0,4.35,2.75,6.94,7.06,6.94,2.99,0,4.81-1.32,6.29-3.37h.08v2.91h3.57ZM1448.81,2112.91c4.89,0,8.38-2.17,8.38-6.4,0-4.85-3.56-5.78-7.72-6.6-3.53-.7-5.55-1.13-5.55-3.3,0-1.59,1.2-2.91,4.04-2.91,2.99,0,4.47,1.2,4.78,3.34h3.61c-.47-3.61-3.06-6.05-8.3-6.05-4.85,0-7.64,2.25-7.64,5.82,0,4.58,3.68,5.44,7.76,6.29,3.69.74,5.44,1.32,5.44,3.61,0,1.86-1.4,3.3-4.7,3.3-2.99,0-5.32-1.01-5.75-4.04h-3.65c.31,4.23,3.57,6.94,9.31,6.94M1432.63,2112.29h3.6v-20.84h-3.6v20.84ZM1432.55,2087.6h3.76v-4.19h-3.76v4.19ZM1415.43,2112.29h4.35l10.09-28.87h-4.11l-6.25,19.25c-.66,2.02-1.67,6.18-1.67,6.18h-.08s-1.01-4.08-1.71-6.17l-6.33-19.25h-4.27l9.97,28.87Z"/>
  <path class="cls-2" d="M1835.4,2065.72h20.95v-3.6h-17v-9.75h14.98v-3.29h-14.98v-8.74h16.57v-3.49h-20.52v28.87ZM1813.08,2066.34c4.89,0,8.38-2.17,8.38-6.4,0-4.85-3.57-5.78-7.72-6.6-3.53-.7-5.55-1.13-5.55-3.3,0-1.59,1.2-2.91,4.04-2.91,2.99,0,4.47,1.2,4.78,3.34h3.61c-.47-3.61-3.06-6.05-8.31-6.05-4.85,0-7.64,2.25-7.64,5.82,0,4.58,3.68,5.44,7.76,6.29,3.69.74,5.44,1.32,5.44,3.61,0,1.86-1.4,3.3-4.7,3.3-2.99,0-5.32-1.01-5.74-4.04h-3.65c.31,4.23,3.57,6.94,9.31,6.94M1793.21,2066.34c4.89,0,8.38-2.17,8.38-6.4,0-4.85-3.57-5.78-7.72-6.6-3.53-.7-5.55-1.13-5.55-3.3,0-1.59,1.2-2.91,4.04-2.91,2.99,0,4.46,1.2,4.78,3.34h3.6c-.46-3.61-3.06-6.05-8.3-6.05-4.85,0-7.64,2.25-7.64,5.82,0,4.58,3.68,5.44,7.76,6.29,3.69.74,5.44,1.32,5.44,3.61,0,1.86-1.4,3.3-4.7,3.3-2.99,0-5.32-1.01-5.75-4.04h-3.64c.31,4.23,3.57,6.94,9.31,6.94M1770.89,2063.51c-2.1,0-4.15-.66-4.15-3.34,0-2.87,2.25-3.49,5.67-4.08,1.71-.31,3.54-.82,4.58-1.48v3.42c0,2.4-1.94,5.47-6.1,5.47M1770,2066.14c3.53,0,5.67-1.67,6.99-3.49h.04c.39,2.21,1.47,3.26,3.68,3.26.85,0,1.44-.16,1.94-.31v-2.52h-.15c-1.82.39-2.21-.5-2.21-2.17v-9.74c0-2.79-1.05-4.62-2.79-5.66-1.32-.78-3.06-1.12-5.05-1.12-5.63,0-8.3,3.14-8.46,6.67h3.49c.12-2.48,1.71-4.03,5.01-4.03,2.87,0,4.46,1.4,4.46,3.65,0,2.13-1.98,2.64-5.05,2.99-5.4.66-8.96,1.71-8.96,6.56,0,4,3.1,5.94,7.06,5.94M1755.49,2065.72h3.6v-28.87h-3.6v28.87ZM1739.41,2066.3c3.73,0,6.68-1.05,8.7-3.06,2.06-1.98,3.42-5.16,3.45-8.04h-3.96c-.35,4.12-2.87,7.65-8.11,7.65-5.82,0-9.63-4.66-9.63-11.57s3.45-11.61,9.59-11.61c4.43,0,7.18,2.37,7.84,5.9h3.96c-.39-2.76-1.63-5.12-3.69-6.79-1.94-1.59-4.66-2.56-8.03-2.56-8.58,0-13.7,6.55-13.7,15.06s5.35,15.02,13.58,15.02M1708.14,2071.73c2.75-.35,4.15-2.21,4.15-5.63v-4.65h-4.19v4.26h1.94v.39c0,2.44-.81,3.22-1.9,3.61v2.02ZM1685.4,2065.72h3.65l3.14-11.48c.5-1.98,1.28-5.82,1.28-5.82h.08s.81,3.8,1.32,5.82l3.07,11.49h3.61l6.79-20.84h-3.72l-3.45,11.56c-.78,2.57-1.36,6.14-1.36,6.14h-.08s-.74-3.84-1.32-6.05l-3.11-11.64h-3.41l-3.14,11.64c-.7,2.52-1.4,6.01-1.4,6.01h-.08s-.7-3.72-1.36-6.09l-3.26-11.57h-3.84l6.6,20.84ZM1667.66,2063.35c-4.27,0-6.48-3.53-6.48-8.04s2.21-8.07,6.48-8.07,6.48,3.57,6.48,8.07-2.21,8.04-6.48,8.04M1667.7,2066.3c6.29,0,10.13-4.89,10.13-10.98s-3.84-10.94-10.13-10.94-10.2,4.89-10.2,10.94,3.91,10.98,10.2,10.98M1640.45,2044.41v-7.57h-3.6v28.87h3.6v-12.69c0-3.34,2.33-5.63,5.55-5.63,2.83,0,4.58,1.51,4.58,4.19v14.13h3.56v-14.55c0-4.35-2.67-6.79-7.02-6.79-3.03,0-5.13,1.32-6.68,3.53h-.12c.04-1.01.12-2.44.12-3.49M1622.25,2066.3c6.25,0,10.75-3.06,10.75-8.53,0-6.44-5.08-7.88-10.67-9.01-4.35-.89-7.49-1.79-7.49-4.93,0-2.87,2.49-4.43,6.29-4.43,4.08,0,6.6,1.9,7.1,5.4h3.84c-.7-4.93-3.88-8.49-10.98-8.49-5.94,0-10.01,2.87-10.01,7.72,0,5.55,4.38,7.02,9.54,8.11,5.05,1.13,8.39,2.02,8.39,5.78,0,3.49-2.8,5.2-6.64,5.2-5.24,0-8.11-2.41-8.58-6.76h-3.91c.31,5.51,4.3,9.93,12.38,9.93M1583.01,2044.88h-3.56v20.84h3.6v-12.69c0-3.34,2.33-5.63,5.55-5.63,2.83,0,4.58,1.51,4.58,4.19v14.13h3.57v-14.55c0-4.35-2.67-6.79-7.02-6.79-3.03,0-5.09,1.36-6.6,3.45h-.12v-2.94ZM1565.82,2063.35c-4.27,0-6.48-3.53-6.48-8.04s2.21-8.07,6.48-8.07,6.48,3.57,6.48,8.07-2.21,8.04-6.48,8.04M1565.86,2066.3c6.29,0,10.13-4.89,10.13-10.98s-3.84-10.94-10.13-10.94-10.2,4.89-10.2,10.94,3.91,10.98,10.2,10.98M1548.59,2065.72h3.6v-20.84h-3.6v20.84ZM1548.52,2041.03h3.76v-4.19h-3.76v4.19ZM1534.08,2047.67h3.26v13.98c0,3.06,1.94,4.19,4.73,4.23.93,0,1.94-.12,2.91-.35v-3.02h-.12c-.39.12-1.2.27-1.82.27-1.32,0-2.14-.43-2.14-1.94v-13.16h4.31v-2.79h-4.31v-6.56h-3.56v6.56h-3.26v2.79ZM1521.42,2063.51c-2.1,0-4.15-.66-4.15-3.34,0-2.87,2.25-3.49,5.67-4.08,1.71-.31,3.54-.82,4.58-1.48v3.42c0,2.4-1.94,5.47-6.1,5.47M1520.53,2066.14c3.54,0,5.67-1.67,6.99-3.49h.04c.39,2.21,1.47,3.26,3.68,3.26.85,0,1.44-.16,1.94-.31v-2.52h-.15c-1.82.39-2.21-.5-2.21-2.17v-9.74c0-2.79-1.05-4.62-2.79-5.66-1.32-.78-3.06-1.12-5.04-1.12-5.63,0-8.31,3.14-8.46,6.67h3.49c.12-2.48,1.71-4.03,5.01-4.03,2.87,0,4.46,1.4,4.46,3.65,0,2.13-1.98,2.64-5.05,2.99-5.4.66-8.96,1.71-8.96,6.56,0,4,3.1,5.94,7.06,5.94M1509.7,2065.72v-20.84h-3.6v12.69c0,3.22-2.06,5.67-5.24,5.67-2.87,0-4.54-1.55-4.54-4.19v-14.17h-3.6v14.36c0,4.35,2.75,6.94,7.06,6.94,2.99,0,4.81-1.32,6.29-3.37h.08v2.91h3.57ZM1478.42,2063.35c-3.84,0-5.78-3.38-5.78-7.96s1.94-8,5.78-8c4.2,0,6.41,3.3,6.41,8s-1.94,7.96-6.41,7.96M1478.15,2066.34c2.91,0,5.13-1.36,6.45-3.6h.08v2.98h3.57v-28.87h-3.6v7.37c0,1.4.04,2.91.12,3.84h-.08c-1.32-2.21-3.65-3.68-6.6-3.68-5.16,0-9.12,4.11-9.12,10.98s3.57,10.98,9.19,10.98M1455.76,2063.51c-2.1,0-4.15-.66-4.15-3.34,0-2.87,2.25-3.49,5.67-4.08,1.71-.31,3.53-.82,4.58-1.48v3.42c0,2.4-1.94,5.47-6.1,5.47M1454.86,2066.14c3.54,0,5.67-1.67,6.99-3.49h.04c.39,2.21,1.47,3.26,3.68,3.26.85,0,1.44-.16,1.94-.31v-2.52h-.16c-1.82.39-2.21-.5-2.21-2.17v-9.74c0-2.79-1.05-4.62-2.79-5.66-1.32-.78-3.07-1.12-5.05-1.12-5.63,0-8.31,3.14-8.46,6.67h3.49c.12-2.48,1.71-4.03,5.01-4.03,2.87,0,4.46,1.4,4.46,3.65,0,2.13-1.98,2.64-5.05,2.99-5.4.66-8.96,1.71-8.96,6.56,0,4,3.1,5.94,7.06,5.94M1438.68,2044.88h-3.56v20.84h3.6v-11.33c0-3.92,2.76-6.33,5.98-6.33.62,0,.97.04,1.47.19h.12v-3.41c-.39-.16-.74-.23-1.32-.23-2.76,0-4.89,1.63-6.17,4.03h-.12v-3.76ZM1428.24,2065.72h2.52v-15.29h-12.3v3.37h8.39v.62c-.04,4.58-2.76,8.47-8.5,8.47s-9.71-4.62-9.71-11.49,3.07-11.72,9.82-11.72c4.43,0,6.87,2.29,7.72,5.55h4.11c-1.08-5.32-5-8.96-11.8-8.96-4.46,0-7.88,1.59-10.21,4.23-2.4,2.72-3.68,6.56-3.68,10.91s1.36,8.11,3.76,10.75c2.37,2.64,5.75,4.19,9.78,4.19,3.77,0,6.87-1.55,8.93-4.69h.12l1.05,4.07Z"/>
  <path class="cls-2" d="M2071.89,2021.66h22.97v-2.95h-19.39v-7.8h-3.58v10.75ZM2071.59,1999.12h8.9v5.78h-8.9v-5.78ZM2068.03,2007.77h16.02v-16.91h-3.57v5.45h-8.9v-5.45h-3.55v16.91ZM2093.42,1988.43h-3.6v24.97h3.6v-11.93h4.92v-3.01h-4.92v-10.02ZM2044.13,2019.25h19.91v-3.42h-16.15v-9.26h14.23v-3.13h-14.23v-8.3h15.74v-3.31h-19.5v27.43ZM2025.5,2025.16c2.75-.35,4.15-2.21,4.15-5.63v-4.65h-4.19v4.26h1.94v.39c0,2.45-.81,3.22-1.9,3.61v2.02ZM2015.96,2022.43h3.62v-34.02h-3.62v34.02ZM2003.91,1997.05v-5.82h-3.62v5.82c-.03,6.49-3.78,12.97-9.12,15.36l2.22,3c4.06-1.97,7.18-6.08,8.75-11.05,1.59,4.65,4.68,8.47,8.58,10.33l2.17-2.87c-5.27-2.32-9-8.56-8.98-14.77M1964.54,2021.66h22.94v-2.95h-19.35v-7.62h-3.59v10.57ZM1958.29,2006.21l1.86,2.94c4.05-1.45,7.01-4.45,8.51-8.19,1.47,3.35,4.27,6.08,8.11,7.41l1.83-2.87c-5.12-1.72-8.19-5.96-8.19-10.2v-1.34h7.32v-2.94h-18.33v2.94h7.37v1.34c0,4.68-3.26,9.15-8.48,10.91M1986.59,1988.43h-3.59v9.19h-6.51v2.94h6.51v12.74h3.59v-24.87ZM1934.84,2015.06h14.98v3.94h-14.98v-3.94ZM1931.28,2021.93h22.14v-13.65h-3.59v3.95h-14.98v-3.95h-3.56v13.65ZM1929.03,1997.85c0-2.93,2.27-4.9,5.47-4.88,3.15-.03,5.4,1.94,5.4,4.88s-2.25,4.92-5.4,4.92-5.47-2.03-5.47-4.92M1934.49,1989.94c-5.19-.03-8.91,3.27-8.88,7.91-.03,4.68,3.7,7.95,8.88,7.95,4.53,0,8.01-2.63,8.71-6.53h6.62v7.36h3.59v-18.23h-3.59v7.93h-6.63c-.75-3.82-4.22-6.42-8.7-6.39M1895.63,2011.04h19.81v2.75h-19.74v8.26h24.25v-2.79h-20.73v-2.86h19.75v-8.07h-23.34v2.71ZM1893.47,1998.28l1.2,2.72c5.98-.54,10.94-2.86,12.75-6.37,1.81,3.51,6.77,5.83,12.76,6.37l1.18-2.72c-6.1-.54-10.91-2.91-11.5-5.98h10.25v-2.87h-25.34v2.87h10.18c-.6,3.06-5.44,5.44-11.48,5.98M1909.17,1999.19h-3.54v3.82h-13.68v2.88h30.96v-2.88h-13.74v-3.82ZM1870.31,2019.73c5.75,0,10.01-3.68,10.01-9.62s-4.42-9.58-9.08-9.58c-2.83,0-4.85.89-6.41,2.48h-.08l1.79-8.23h12.11v-3.25h-14.75l-2.99,14.7h3.57c1.05-1.32,2.99-2.56,6.06-2.56,3.3,0,5.98,2.37,5.98,6.37s-2.45,6.48-6.29,6.48-5.71-1.98-6.29-4.78h-3.68c.35,4.46,4.23,7.99,10.05,7.99M1837.75,2019.14h19.4v-3.45h-14.83l.08-.31c1.09-2.87,4.86-4.97,7.73-6.72,4.15-2.37,7.52-4.15,7.52-9.28s-3.64-8.5-9.31-8.5c-3.03,0-5.67.93-7.38,2.75-1.67,1.71-2.56,3.92-2.56,7.02h3.84c0-2.33.47-3.84,1.55-4.97,1.01-1.13,2.37-1.71,4.23-1.71,3.53,0,5.75,2.21,5.75,5.47s-2.02,4.58-5.47,6.56c-2.64,1.59-5.51,3.18-7.61,5.51-1.67,1.9-2.79,4.27-2.95,7.6M1823.86,2016.59c-4.74,0-7.07-4.43-7.07-11.3s2.33-11.29,7.07-11.29,6.99,4.42,6.99,11.29-2.17,11.3-6.99,11.3M1823.82,2019.76c6.95,0,10.9-5.66,10.9-14.47s-4.22-14.43-10.86-14.43-10.9,5.51-10.9,14.43,4.03,14.47,10.86,14.47M1789.63,2019.14h19.4v-3.45h-14.83l.08-.31c1.09-2.87,4.85-4.97,7.73-6.72,4.15-2.37,7.53-4.15,7.53-9.28s-3.64-8.5-9.31-8.5c-3.03,0-5.67.93-7.38,2.75-1.67,1.71-2.56,3.92-2.56,7.02h3.84c0-2.33.47-3.84,1.55-4.97,1.01-1.13,2.37-1.71,4.23-1.71,3.54,0,5.75,2.21,5.75,5.47s-2.02,4.58-5.47,6.56c-2.64,1.59-5.52,3.18-7.61,5.51-1.67,1.9-2.79,4.27-2.95,7.6M1769.05,2022.36h3.6v-16.87h5.21v-3.07h-5.21v-14.02h-3.6v33.96ZM1745.89,2012.12l.4,2.95c6.03.03,13.92-.12,21-1.26l-.2-2.7c-3.39.42-7.09.66-10.69.8v-10.17h-3.55v10.28c-2.47.05-4.84.08-6.96.09M1765.14,1992.03h-17.38v2.91h13.79c-.01,2.83-.08,6.79-.95,12.22l3.56.28c.95-6.07.95-10.45.98-13.31v-2.1ZM1719.01,2021.66h23.21v-2.95h-19.59v-8.11h-3.62v11.06ZM1717.27,1999.14c-.03-3.13,2.36-5.27,5.52-5.27s5.49,2.13,5.49,5.27-2.39,5.31-5.49,5.31-5.55-2.12-5.52-5.31M1713.74,1999.14c0,4.99,3.93,8.46,9.05,8.44,5.12.01,9.02-3.46,9.02-8.44s-3.9-8.4-9.02-8.4-9.05,3.48-9.05,8.4M1741.23,1988.43h-3.6v24.68h3.6v-24.68ZM1702.74,2022.36h3.6v-17.45h5.44v-3.04h-5.44v-13.47h-3.6v33.96ZM1691.72,1998.43v-3.63h7.37v-2.97h-18.59v2.97h7.65v3.63c-.03,5.74-3.77,12.14-8.91,14.61l2.13,2.84c3.86-1.92,7.03-6.11,8.59-10.95,1.54,4.44,4.56,8.27,8.38,10.1l2.04-2.84c-5.15-2.43-8.68-8.42-8.66-13.76M1648.88,2014.1h2.81c7.02-.01,11.46-.21,16.52-1.14l-.36-3c-4.78.87-8.93,1.06-15.36,1.07v-16.5h12.65v-2.97h-16.27v22.54ZM1674.85,1988.4h-3.62v34.02h3.62v-34.02ZM1617.79,2012.66h18.84v9.7h3.6v-12.61h-22.45v2.91ZM1613.35,2005.22l1.49,2.76c10.08-2.61,15.97-8.75,15.99-17.5h-15.85v2.92h12c-.64,5.34-5.48,9.66-13.62,11.82M1640.24,1988.4h-3.6v19.87h3.6v-8.44h4.92v-3.04h-4.92v-8.39ZM1604.9,2022.43h3.62v-34.02h-3.62v34.02ZM1592.85,1997.05v-5.82h-3.62v5.82c-.03,6.49-3.78,12.97-9.13,15.36l2.22,3c4.06-1.97,7.18-6.08,8.75-11.05,1.6,4.65,4.68,8.47,8.58,10.33l2.17-2.87c-5.27-2.32-9-8.56-8.98-14.77M1537.28,2017.78h30.96v-2.97h-11.63v-11.02h-3.54v11.02h-4.89v-11.02h-3.59v11.02h-7.31v2.97ZM1564.86,1991.67h-24.4v2.92h20.81v.7c0,4.18,0,8.72-1.18,14.88l3.54.37c1.21-6.5,1.21-10.96,1.23-15.25v-3.62ZM1527.19,2009.64h3.6v-9.05h4.92v-2.98h-4.92v-9.22h-3.6v21.24ZM1509.48,2002.45c-.03-2.1,1.9-3.41,4.8-3.43,2.87.03,4.8,1.33,4.82,3.43-.03,2.09-1.96,3.35-4.82,3.35s-4.82-1.26-4.8-3.35M1508.35,2014.29h18.84v8.07h3.6v-10.99h-22.44v2.92ZM1506,2002.45c-.01,3.71,3.35,6.15,8.27,6.15s8.22-2.44,8.23-6.15c-.01-3.73-3.34-6.15-8.23-6.18-4.92.03-8.28,2.45-8.27,6.18M1524.36,1991.85h-8.29v-3.6h-3.58v3.6h-8.34v2.87h20.21v-2.87ZM1472.09,2014.2h2.25c4.96-.03,8.47-.15,12.57-.99l-.3-2.97c-3.62.7-6.75.88-10.92.92v-15.75h9.1v-2.92h-12.7v21.71ZM1500.07,1988.4h-3.42v13.47h-4.4v-12.77h-3.32v31.52h3.32v-15.81h4.4v17.56h3.42v-33.96ZM1462.34,2008.52h3.6v-20.11h-3.6v20.11ZM1441.99,1998.48c-.03-3.03,2.29-5.01,5.52-5.01s5.49,1.98,5.49,5.01-2.3,5.08-5.49,5.05c-3.23.03-5.55-1.98-5.52-5.05M1438.46,1998.48c0,4.8,3.83,8.12,9.05,8.12s9.02-3.32,9.02-8.12-3.82-8.11-9.02-8.1c-5.22-.01-9.05,3.34-9.05,8.1M1465.95,2010.27h-23.02v2.93h19.42v9.15h3.6v-12.09ZM1412.76,2000.02c-.03-1.58,2.56-2.4,7.31-2.4s7.32.82,7.33,2.4c-.01,1.5-2.56,2.32-7.33,2.32s-7.33-.82-7.31-2.32M1411.95,2017.13c0-1.7,2.83-2.6,8.1-2.6s8.1.9,8.1,2.6-2.83,2.53-8.1,2.51c-5.27.03-8.1-.84-8.1-2.51M1406.18,1993.91h27.65v-2.79h-11.95v-3.13h-3.58v3.13h-12.12v2.79ZM1404.61,2010.03h30.96v-2.87h-13.7v-2.34c6.02-.27,9.36-1.92,9.36-4.8,0-3.22-4.01-4.88-11.16-4.86-7.12-.01-11.16,1.65-11.15,4.86-.01,2.89,3.36,4.54,9.38,4.8v2.34h-13.68v2.87ZM1420.05,2011.87c-7.55,0-11.78,1.84-11.78,5.27s4.23,5.17,11.78,5.17,11.71-1.77,11.74-5.17c-.03-3.43-4.26-5.27-11.74-5.27"/>
  <path class="cls-2" d="M2751.81,2112.29h4.19v-4.26h-4.19v4.26ZM2740.74,2112.29h4l7.49-20.84h-3.72l-3.72,11.25c-.93,2.8-1.82,6.64-1.82,6.64h-.08s-1.01-3.84-1.9-6.64l-3.65-11.26h-3.84l7.26,20.84ZM2727.59,2112.29h3.6v-20.84h-3.6v20.84ZM2727.51,2087.6h3.76v-4.19h-3.76v4.19ZM2709.38,2091.45h-3.57v20.84h3.6v-12.69c0-3.34,2.33-5.63,5.55-5.63,2.83,0,4.58,1.51,4.58,4.19v14.13h3.56v-14.55c0-4.35-2.67-6.79-7.02-6.79-3.03,0-5.09,1.36-6.6,3.45h-.12v-2.94ZM2690.06,2112.71c6.33,0,11.14-2.87,11.14-9.81v-19.48h-3.95v19.13c0,4.74-2.64,6.79-7.11,6.79s-7.26-2.06-7.26-6.79v-19.13h-3.95v19.48c0,6.95,4.65,9.81,11.14,9.81M2662,2112.29h4.23l-8.89-13.35,7.96-7.49h-4.5l-9.04,8.89c.08-1.01.15-2.48.15-3.22v-13.7h-3.6v28.87h3.6v-8.19l2.95-2.79,7.14,10.98ZM2640.11,2112.29h3.6v-20.84h-3.6v20.84ZM2640.03,2087.6h3.76v-4.19h-3.76v4.19ZM2626.06,2108.41c-3.77,0-5.79-2.8-5.79-7.22s1.94-7.26,5.75-7.26c4.15,0,6.13,2.68,6.13,7.07s-1.55,7.42-6.1,7.42M2626.22,2119.58c2.79,0,5.12-.62,6.75-1.98,1.59-1.36,2.52-3.42,2.52-6.18v-19.98h-3.56v2.75h-.08c-1.32-2.09-3.34-3.25-6.33-3.25-4.89,0-8.92,3.8-8.92,10.2,0,6.06,3.8,10.2,9.12,10.2,2.95,0,4.78-1.28,6.21-3.33h.08c-.04.66-.08,1.78-.08,2.99v.58c0,3.54-2.06,5.21-5.79,5.21-3.11,0-5.2-.89-5.51-3.07h-3.37c.39,3.69,3.49,5.86,8.96,5.86M2599.98,2091.45h-3.57v20.84h3.6v-12.69c0-3.34,2.33-5.63,5.55-5.63,2.83,0,4.58,1.51,4.58,4.19v14.13h3.57v-14.55c0-4.35-2.68-6.79-7.02-6.79-3.03,0-5.09,1.36-6.6,3.45h-.12v-2.94ZM2582.79,2109.93c-4.27,0-6.48-3.53-6.48-8.04s2.21-8.07,6.48-8.07,6.48,3.57,6.48,8.07-2.21,8.04-6.48,8.04M2582.83,2112.87c6.29,0,10.13-4.89,10.13-10.98s-3.84-10.94-10.13-10.94-10.2,4.89-10.2,10.94,3.91,10.98,10.2,10.98M2546.58,2112.29h3.95v-13.5h14.91v13.5h3.99v-28.87h-3.99v12.15h-14.91v-12.15h-3.95v28.87ZM2527.8,2118.3c2.75-.35,4.15-2.21,4.15-5.63v-4.65h-4.19v4.26h1.94v.39c0,2.44-.81,3.22-1.9,3.61v2.02ZM2519.84,2112.29h3.6v-28.87h-3.6v28.87ZM2515.1,2112.29v-20.84h-3.6v12.69c0,3.22-2.06,5.67-5.24,5.67-2.87,0-4.54-1.55-4.54-4.19v-14.17h-3.6v14.36c0,4.35,2.75,6.94,7.06,6.94,2.99,0,4.81-1.32,6.29-3.37h.08v2.91h3.57ZM2484.6,2109.93c-4.27,0-6.48-3.53-6.48-8.04s2.22-8.07,6.48-8.07,6.48,3.57,6.48,8.07-2.21,8.04-6.48,8.04M2484.64,2112.87c6.29,0,10.13-4.89,10.13-10.98s-3.84-10.94-10.13-10.94-10.2,4.89-10.2,10.94,3.92,10.98,10.2,10.98M2462.4,2093.74c3.61,0,5.67,2.41,5.86,6.41h-12.07c.47-3.69,2.45-6.41,6.21-6.41M2462.59,2112.87c4.81,0,8.15-2.64,9.08-6.52h-3.53c-.66,2.21-2.64,3.57-5.52,3.57-4.04,0-6.25-3.11-6.52-7.19h15.99c0-3.53-.85-6.52-2.56-8.58-1.63-2.02-4.03-3.22-7.14-3.22-5.98,0-9.97,4.89-9.97,10.94s3.76,10.98,10.17,10.98M2438.96,2112.87c6.25,0,10.75-3.06,10.75-8.53,0-6.44-5.08-7.88-10.67-9.01-4.35-.89-7.49-1.79-7.49-4.93,0-2.87,2.48-4.43,6.29-4.43,4.08,0,6.6,1.9,7.1,5.4h3.84c-.7-4.93-3.88-8.49-10.98-8.49-5.94,0-10.01,2.87-10.01,7.72,0,5.55,4.38,7.02,9.54,8.11,5.05,1.13,8.39,2.02,8.39,5.78,0,3.49-2.8,5.2-6.64,5.2-5.24,0-8.11-2.41-8.58-6.76h-3.92c.31,5.51,4.3,9.93,12.38,9.93M2409.58,2118.3c2.76-.35,4.15-2.21,4.15-5.63v-4.65h-4.19v4.26h1.94v.39c0,2.44-.82,3.22-1.9,3.61v2.02ZM2405.31,2112.29v-20.84h-3.6v12.69c0,3.22-2.06,5.67-5.24,5.67-2.88,0-4.54-1.55-4.54-4.19v-14.17h-3.6v14.36c0,4.35,2.75,6.94,7.06,6.94,2.99,0,4.81-1.32,6.29-3.37h.08v2.91h3.56ZM2374.38,2108.41c-3.77,0-5.79-2.8-5.79-7.22s1.94-7.26,5.75-7.26c4.15,0,6.13,2.68,6.13,7.07s-1.55,7.42-6.09,7.42M2374.54,2119.58c2.8,0,5.13-.62,6.75-1.98,1.59-1.36,2.52-3.42,2.52-6.18v-19.98h-3.57v2.75h-.08c-1.32-2.09-3.34-3.25-6.33-3.25-4.89,0-8.92,3.8-8.92,10.2,0,6.06,3.8,10.2,9.12,10.2,2.95,0,4.78-1.28,6.21-3.33h.08c-.04.66-.08,1.78-.08,2.99v.58c0,3.54-2.06,5.21-5.78,5.21-3.11,0-5.2-.89-5.51-3.07h-3.37c.39,3.69,3.49,5.86,8.96,5.86M2343.45,2103.56h19.4v-3.1h-19.4v3.1ZM2331.54,2109.93c-4.27,0-6.48-3.53-6.48-8.04s2.21-8.07,6.48-8.07,6.48,3.57,6.48,8.07-2.21,8.04-6.48,8.04M2331.57,2112.87c6.29,0,10.13-4.89,10.13-10.98s-3.84-10.94-10.13-10.94-10.2,4.89-10.2,10.94,3.92,10.98,10.2,10.98M2309.57,2109.93c-4.62,0-6.41-3.53-6.41-7.92s2.02-8,6.45-8c3.84,0,5.75,3.42,5.75,8s-1.94,7.92-5.78,7.92M2299.75,2119.35h3.6v-6.33c0-1.59-.04-2.75-.08-3.49h.12c1.44,2.21,3.73,3.37,6.56,3.37,5.63,0,9.08-4.3,9.08-10.98s-3.64-10.98-8.96-10.98c-2.99,0-5.09,1.39-6.64,3.76h-.12v-3.26h-3.57v27.9ZM2285.43,2110.08c-2.1,0-4.15-.66-4.15-3.34,0-2.87,2.25-3.49,5.67-4.08,1.71-.31,3.53-.82,4.58-1.48v3.42c0,2.4-1.94,5.47-6.1,5.47M2284.54,2112.71c3.53,0,5.67-1.67,6.99-3.49h.04c.39,2.21,1.47,3.26,3.68,3.26.85,0,1.44-.16,1.94-.31v-2.52h-.16c-1.82.39-2.21-.5-2.21-2.17v-9.74c0-2.79-1.05-4.62-2.79-5.66-1.32-.78-3.07-1.12-5.05-1.12-5.63,0-8.3,3.14-8.46,6.67h3.49c.12-2.48,1.71-4.03,5.01-4.03,2.88,0,4.47,1.4,4.47,3.65,0,2.13-1.98,2.64-5.05,2.99-5.4.66-8.96,1.71-8.96,6.56,0,4,3.1,5.94,7.06,5.94M2245.81,2112.29h3.57v-17.46c0-2.56-.23-7.41-.23-7.41h.08s1.2,4.35,2.02,6.6l7.03,18.28h3.11l7.02-18.28c.85-2.25,2.02-6.6,2.02-6.6h.08s-.23,4.85-.23,7.41v17.46h3.8v-28.87h-5.27l-5.9,15.67c-1.16,3.18-2.95,9.05-2.95,9.05h-.08s-1.75-5.9-2.91-9.05l-6.02-15.68h-5.12v28.87Z"/>
  <path class="cls-2" d="M2944.45,2072.29c2.75-.35,4.15-2.21,4.15-5.63v-4.65h-4.19v4.26h1.94v.39c0,2.44-.82,3.22-1.9,3.61v2.02ZM2923.17,2056.81v-.08s1.86-2.06,2.95-3.42l5.13-6.52c1.13-1.44,2.4-3.61,2.4-3.61h.08s-.19,2.6-.19,4.08v9.39h-6.25c-1.59,0-4.12.15-4.12.15M2933.54,2066.27h3.64v-6.72h4.5v-2.9h-4.5v-18.32h-3.06l-13.97,17.89v3.33h13.39v6.72ZM2906.26,2053.82c-3.49,0-6.29-2.68-6.29-6.44s2.6-6.41,6.33-6.41,6.56,2.6,6.56,6.41-2.56,6.44-6.6,6.44M2906.45,2066.89c2.76,0,5.05-.81,6.72-2.36,2.68-2.41,3.8-6.48,3.8-11.99,0-6.06-1.01-10.02-4.15-12.42-1.63-1.24-3.77-2.13-6.52-2.13-5.67,0-9.85,4.23-9.82,9.47.04,5.2,4.15,9.39,9.27,9.39,3.26,0,5.82-1.47,7.61-3.91h.08c-.16,4.34-.85,7.29-2.45,9.04-1.09,1.24-2.56,1.86-4.62,1.86-3.53,0-5.4-2.1-5.75-4.39h-3.76c.35,4.08,4.11,7.45,9.59,7.45M2873.54,2063.91c-4.27,0-6.48-3.53-6.48-8.04s2.21-8.07,6.48-8.07,6.48,3.57,6.48,8.07-2.21,8.04-6.48,8.04M2873.58,2066.86c6.29,0,10.13-4.89,10.13-10.98s-3.84-10.94-10.13-10.94-10.2,4.89-10.2,10.94,3.92,10.98,10.2,10.98M2854.52,2045.44h-3.56v20.84h3.6v-11.33c0-3.92,2.76-6.33,5.98-6.33.62,0,.97.04,1.47.19h.12v-3.41c-.39-.16-.74-.23-1.32-.23-2.76,0-4.89,1.63-6.17,4.03h-.12v-3.76ZM2828.68,2057.54h19.4v-3.1h-19.4v3.1ZM2812.18,2045.44h-3.57v20.84h3.6v-12.69c0-3.34,2.33-5.63,5.55-5.63,2.83,0,4.58,1.51,4.58,4.19v14.13h3.57v-14.55c0-4.35-2.68-6.79-7.02-6.79-3.03,0-5.09,1.36-6.6,3.45h-.12v-2.94ZM2794.29,2064.06c-2.1,0-4.15-.66-4.15-3.34,0-2.87,2.25-3.49,5.67-4.08,1.71-.31,3.53-.82,4.58-1.48v3.42c0,2.4-1.94,5.47-6.1,5.47M2793.4,2066.7c3.53,0,5.67-1.67,6.99-3.49h.04c.39,2.21,1.47,3.26,3.68,3.26.85,0,1.44-.16,1.94-.31v-2.52h-.16c-1.82.39-2.21-.5-2.21-2.17v-9.74c0-2.79-1.05-4.62-2.79-5.66-1.32-.78-3.07-1.12-5.05-1.12-5.63,0-8.3,3.14-8.46,6.67h3.49c.12-2.48,1.71-4.03,5.01-4.03,2.87,0,4.46,1.4,4.46,3.65,0,2.13-1.98,2.64-5.05,2.99-5.4.66-8.96,1.71-8.96,6.56,0,4,3.1,5.94,7.06,5.94M2775.12,2066.89c4.89,0,8.38-2.17,8.38-6.4,0-4.85-3.57-5.78-7.72-6.6-3.53-.7-5.55-1.13-5.55-3.3,0-1.59,1.2-2.91,4.04-2.91,2.99,0,4.47,1.2,4.78,3.34h3.61c-.47-3.61-3.06-6.05-8.3-6.05-4.85,0-7.64,2.25-7.64,5.82,0,4.58,3.68,5.44,7.76,6.29,3.69.74,5.44,1.32,5.44,3.61,0,1.86-1.4,3.3-4.7,3.3-2.99,0-5.32-1.01-5.75-4.04h-3.65c.31,4.23,3.57,6.94,9.31,6.94M2762.5,2066.27v-20.84h-3.6v12.69c0,3.22-2.06,5.67-5.24,5.67-2.87,0-4.54-1.55-4.54-4.19v-14.17h-3.6v14.36c0,4.35,2.75,6.94,7.06,6.94,2.99,0,4.81-1.32,6.29-3.37h.08v2.91h3.57ZM2731.3,2064.06c-2.1,0-4.15-.66-4.15-3.34,0-2.87,2.25-3.49,5.67-4.08,1.71-.31,3.54-.82,4.58-1.48v3.42c0,2.4-1.94,5.47-6.1,5.47M2730.41,2066.7c3.54,0,5.67-1.67,6.99-3.49h.04c.39,2.21,1.47,3.26,3.68,3.26.85,0,1.44-.16,1.94-.31v-2.52h-.15c-1.82.39-2.21-.5-2.21-2.17v-9.74c0-2.79-1.05-4.62-2.79-5.66-1.32-.78-3.07-1.12-5.04-1.12-5.63,0-8.31,3.14-8.46,6.67h3.49c.12-2.48,1.71-4.03,5.01-4.03,2.87,0,4.46,1.4,4.46,3.65,0,2.13-1.98,2.64-5.05,2.99-5.4.66-8.96,1.71-8.96,6.56,0,4,3.1,5.94,7.06,5.94M2694.63,2066.27h3.96l5.08-18.51c.66-2.53,1.4-7.18,1.4-7.18h.08s.7,4.66,1.36,7.22l4.73,18.47h3.84l8.03-28.87h-4.07l-4.31,16.99c-.7,2.84-1.44,7.65-1.44,7.65h-.08s-.78-4.85-1.51-7.68l-4.5-16.96h-4.19l-4.66,16.96c-.74,2.83-1.51,7.68-1.51,7.68h-.08s-.66-4.81-1.36-7.64l-4.15-17h-4.15l7.53,28.87ZM2673.71,2072.29c2.76-.35,4.15-2.21,4.15-5.63v-4.65h-4.19v4.26h1.94v.39c0,2.44-.82,3.22-1.9,3.61v2.02ZM2655.85,2045.44h-3.57v20.84h3.6v-12.69c0-3.34,2.33-5.63,5.55-5.63,2.84,0,4.58,1.51,4.58,4.19v14.13h3.56v-14.55c0-4.35-2.67-6.79-7.02-6.79-3.03,0-5.09,1.36-6.6,3.45h-.12v-2.94ZM2637.97,2064.06c-2.1,0-4.15-.66-4.15-3.34,0-2.87,2.25-3.49,5.67-4.08,1.71-.31,3.53-.82,4.58-1.48v3.42c0,2.4-1.94,5.47-6.1,5.47M2637.07,2066.7c3.53,0,5.67-1.67,6.99-3.49h.04c.39,2.21,1.47,3.26,3.68,3.26.85,0,1.44-.16,1.94-.31v-2.52h-.16c-1.82.39-2.21-.5-2.21-2.17v-9.74c0-2.79-1.05-4.62-2.79-5.66-1.32-.78-3.07-1.12-5.05-1.12-5.63,0-8.3,3.14-8.46,6.67h3.49c.12-2.48,1.71-4.03,5.01-4.03,2.88,0,4.47,1.4,4.47,3.65,0,2.13-1.98,2.64-5.05,2.99-5.4.66-8.96,1.71-8.96,6.56,0,4,3.1,5.94,7.06,5.94M2606.03,2066.27h3.65l3.14-11.48c.5-1.98,1.28-5.82,1.28-5.82h.08s.81,3.8,1.32,5.82l3.07,11.49h3.61l6.79-20.84h-3.73l-3.45,11.56c-.78,2.57-1.36,6.14-1.36,6.14h-.08s-.74-3.84-1.32-6.05l-3.11-11.64h-3.42l-3.14,11.64c-.7,2.52-1.4,6.01-1.4,6.01h-.08s-.7-3.72-1.36-6.09l-3.26-11.57h-3.84l6.6,20.84ZM2587.47,2062.4c-3.77,0-5.78-2.8-5.78-7.22s1.94-7.26,5.75-7.26c4.15,0,6.13,2.68,6.13,7.07s-1.55,7.42-6.1,7.42M2587.63,2073.57c2.8,0,5.12-.62,6.75-1.98,1.59-1.36,2.52-3.42,2.52-6.18v-19.98h-3.57v2.75h-.08c-1.32-2.09-3.34-3.25-6.33-3.25-4.89,0-8.92,3.8-8.92,10.2,0,6.06,3.8,10.2,9.12,10.2,2.95,0,4.78-1.28,6.21-3.33h.08c-.04.66-.08,1.78-.08,2.99v.58c0,3.54-2.06,5.21-5.78,5.21-3.11,0-5.2-.89-5.52-3.07h-3.37c.39,3.69,3.49,5.86,8.96,5.86M2561.39,2045.44h-3.57v20.84h3.6v-12.69c0-3.34,2.33-5.63,5.55-5.63,2.83,0,4.58,1.51,4.58,4.19v14.13h3.57v-14.55c0-4.35-2.67-6.79-7.02-6.79-3.03,0-5.09,1.36-6.6,3.45h-.12v-2.94ZM2553.2,2066.27v-20.84h-3.6v12.69c0,3.22-2.06,5.67-5.24,5.67-2.88,0-4.54-1.55-4.54-4.19v-14.17h-3.6v14.36c0,4.35,2.75,6.94,7.06,6.94,2.99,0,4.81-1.32,6.29-3.37h.08v2.91h3.57ZM2504.42,2066.27h3.6v-12.85c0-3.18,2.68-5.47,5.16-5.47,2.14,0,3.57,1.51,3.57,4.08v14.24h3.57v-12.85c0-3.18,2.29-5.47,4.93-5.47,2.1,0,3.77,1.51,3.77,4.08v14.24h3.6v-14.55c0-4.35-2.64-6.79-6.44-6.79-2.52,0-4.97,1.28-6.44,3.88h-.08c-.85-2.56-2.87-3.88-5.39-3.88-2.68,0-4.89,1.36-6.18,3.6h-.12v-3.1h-3.57v20.84ZM2490.37,2062.4c-3.77,0-5.78-2.8-5.78-7.22s1.94-7.26,5.75-7.26c4.15,0,6.13,2.68,6.13,7.07s-1.55,7.42-6.1,7.42M2490.53,2073.57c2.8,0,5.13-.62,6.75-1.98,1.59-1.36,2.52-3.42,2.52-6.18v-19.98h-3.57v2.75h-.08c-1.32-2.09-3.34-3.25-6.33-3.25-4.89,0-8.92,3.8-8.92,10.2,0,6.06,3.8,10.2,9.12,10.2,2.95,0,4.78-1.28,6.21-3.33h.08c-.04.66-.08,1.78-.08,2.99v.58c0,3.54-2.06,5.21-5.78,5.21-3.11,0-5.2-.89-5.52-3.07h-3.37c.39,3.69,3.49,5.86,8.96,5.86M2463.51,2045.44h-3.57v20.84h3.6v-12.69c0-3.34,2.33-5.63,5.55-5.63,2.83,0,4.58,1.51,4.58,4.19v14.13h3.57v-14.55c0-4.35-2.68-6.79-7.02-6.79-3.03,0-5.09,1.36-6.6,3.45h-.12v-2.94ZM2447.1,2063.91c-4.27,0-6.48-3.53-6.48-8.04s2.22-8.07,6.48-8.07,6.48,3.57,6.48,8.07-2.21,8.04-6.48,8.04M2447.14,2066.86c6.29,0,10.13-4.89,10.13-10.98s-3.84-10.94-10.13-10.94-10.2,4.89-10.2,10.94,3.92,10.98,10.2,10.98M2410.89,2066.27h3.95v-13.5h14.91v13.5h3.99v-28.87h-3.99v12.15h-14.91v-12.15h-3.95v28.87ZM2377.62,2066.78h3.87v-13.08h12.89v-3.3h-12.89v-8.49h15.48v-3.42h-19.35v28.29ZM2358.7,2066.27h3.96c.54-10.83,5.98-19.68,11.56-24.64v-2.99h-19.44v3.3h10.75c2.91,0,5.09-.16,5.09-.16v.08c-6.25,5.04-11.34,14.71-11.92,24.41M2337.75,2072.29c2.76-.35,4.15-2.21,4.15-5.63v-4.65h-4.19v4.26h1.94v.39c0,2.44-.82,3.22-1.9,3.61v2.02ZM2316.48,2056.81v-.08s1.86-2.06,2.95-3.42l5.13-6.52c1.13-1.44,2.41-3.61,2.41-3.61h.08s-.19,2.6-.19,4.08v9.39h-6.25c-1.59,0-4.12.15-4.12.15M2326.84,2066.27h3.64v-6.72h4.5v-2.9h-4.5v-18.32h-3.06l-13.97,17.89v3.33h13.39v6.72ZM2291.53,2066.27h19.4v-3.45h-14.83l.08-.31c1.09-2.87,4.85-4.97,7.73-6.72,4.15-2.37,7.53-4.15,7.53-9.28s-3.65-8.5-9.31-8.5c-3.03,0-5.67.93-7.38,2.75-1.67,1.71-2.56,3.92-2.56,7.02h3.84c0-2.33.47-3.84,1.55-4.97,1.01-1.13,2.37-1.71,4.23-1.71,3.53,0,5.75,2.21,5.75,5.47s-2.02,4.58-5.47,6.56c-2.64,1.59-5.52,3.18-7.61,5.51-1.67,1.9-2.79,4.27-2.95,7.6M2274.76,2066.27h3.96c.54-10.83,5.98-19.68,11.57-24.64v-2.99h-19.44v3.3h10.75c2.91,0,5.09-.16,5.09-.16v.08c-6.25,5.04-11.33,14.71-11.92,24.41M2249.76,2040.81h8.46c4.08,0,5.67,1.75,5.67,5.12,0,3.15-1.94,5.13-5.86,5.13h-8.27v-10.25ZM2245.81,2066.27h3.95v-12.03h7.69c3.77,0,5.47,1.48,5.75,5.55.31,4.62.39,5.94,1.05,6.48h4.23v-.19c-.58-.39-.97-1.79-1.32-6.33-.27-4.15-1.2-6.09-4.46-7.06v-.12c3.84-1.2,5.28-3.69,5.28-7.22,0-4.78-3.49-7.95-8.65-7.95h-13.5v28.87Z"/>
  <path class="cls-2" d="M2848.85,2004.62c-.01-2.34,2.83-3.63,7.65-3.63s7.64,1.29,7.65,3.63c-.01,2.37-2.87,3.67-7.65,3.69-4.82-.01-7.67-1.31-7.65-3.69M2841.07,2018.55h31.08v-2.95h-13.86v-4.46c5.9-.4,9.54-2.75,9.54-6.53,0-4.07-4.4-6.48-11.33-6.47-6.99-.01-11.34,2.4-11.31,6.47-.03,3.78,3.59,6.14,9.55,6.53v4.46h-13.68v2.95ZM2870.48,1993.17h-12.19v-4.28h-3.54v4.28h-12.22v2.93h27.96v-2.93ZM2820.67,2009.68v-.08s1.86-2.06,2.95-3.42l5.13-6.52c1.13-1.44,2.41-3.61,2.41-3.61h.08s-.19,2.6-.19,4.08v9.39h-6.25c-1.59,0-4.12.15-4.12.15M2831.04,2019.14h3.64v-6.71h4.5v-2.91h-4.5v-18.32h-3.06l-13.97,17.89v3.33h13.39v6.71ZM2796.5,2019.14h19.4v-3.45h-14.82l.08-.31c1.09-2.87,4.85-4.97,7.73-6.72,4.15-2.37,7.53-4.15,7.53-9.28s-3.64-8.5-9.31-8.5c-3.03,0-5.67.93-7.38,2.75-1.67,1.71-2.56,3.92-2.56,7.02h3.83c0-2.33.47-3.84,1.55-4.97,1.01-1.13,2.37-1.71,4.23-1.71,3.53,0,5.75,2.21,5.75,5.47s-2.02,4.58-5.47,6.56c-2.64,1.59-5.51,3.18-7.61,5.51-1.67,1.9-2.79,4.27-2.94,7.6M2779.73,2019.14h3.95c.54-10.83,5.98-19.68,11.57-24.64v-2.98h-19.44v3.29h10.75c2.91,0,5.09-.16,5.09-.16v.08c-6.25,5.04-11.33,14.71-11.91,24.41M2758.77,2025.16c2.75-.35,4.15-2.21,4.15-5.63v-4.65h-4.19v4.26h1.94v.39c0,2.45-.81,3.22-1.9,3.61v2.02ZM2732.05,2016.64c-.03-1.94,2.89-2.98,8.12-2.98s8.12,1.03,8.15,2.98c-.03,1.94-2.96,2.96-8.15,2.94-5.23.03-8.15-.99-8.12-2.94M2728.39,2016.64c0,3.67,4.37,5.67,11.78,5.67s11.71-2,11.74-5.67c-.03-3.67-4.34-5.67-11.74-5.67s-11.78,2-11.78,5.67M2726.36,2000.78l1.11,2.77c5.84-.54,10.6-2.52,12.7-5.68,2.09,3.16,6.85,5.15,12.73,5.68l1.08-2.77c-6.74-.54-11.4-3.01-11.81-6.27h10.38v-2.88h-10.63v-3.24h-3.54v3.24h-10.57v2.88h10.33c-.43,3.26-5.08,5.74-11.81,6.27M2755.69,2005.48h-30.96v2.94h30.96v-2.94ZM2707.48,2019.14h3.95c.54-10.83,5.98-19.68,11.57-24.64v-2.98h-19.44v3.29h10.75c2.91,0,5.09-.16,5.09-.16v.08c-6.25,5.04-11.34,14.71-11.92,24.41M2683.67,2013.92h3.66v-11.66h4.68v-3.04h-4.68v-10.81h-3.66v25.51ZM2665.35,2021.66h23.06v-2.95h-19.47v-7.1h-3.59v10.05ZM2660.19,2005.84l.34,2.92c6-.01,14.11-.15,21.2-1.39l-.21-2.63c-3.42.48-7.16.75-10.8.9v-7.02h-3.56v7.14c-2.49.05-4.86.07-6.96.08M2679.37,1990.98h-17.13v2.98h13.59c-.03,2.13-.15,4.86-.88,8.64l3.56.31c.83-4.37.83-7.74.86-10.01v-1.92ZM2634.77,1992.84h15.99v6.38h-15.99v-6.38ZM2631.25,2002.06h23.06v-12.06h-23.06v12.06ZM2631.13,2021.66h23.76v-2.95h-20.17v-6.85h-3.59v9.8ZM2658.33,2005.57h-31.08v2.93h14.04v6.58h3.56v-6.58h13.47v-2.93ZM2602.28,2000.02c-.03-1.58,2.56-2.4,7.3-2.4s7.32.82,7.33,2.4c-.01,1.5-2.56,2.32-7.33,2.32s-7.33-.82-7.3-2.32M2601.48,2017.13c0-1.7,2.83-2.6,8.09-2.6s8.1.9,8.1,2.6-2.83,2.53-8.1,2.51c-5.27.03-8.09-.84-8.09-2.51M2595.7,1993.91h27.65v-2.79h-11.95v-3.13h-3.58v3.13h-12.12v2.79ZM2594.14,2010.03h30.96v-2.87h-13.69v-2.34c6.02-.27,9.35-1.92,9.35-4.8,0-3.22-4.01-4.88-11.16-4.86-7.12-.01-11.16,1.65-11.15,4.86-.01,2.89,3.36,4.54,9.38,4.8v2.34h-13.68v2.87ZM2609.57,2011.87c-7.54,0-11.78,1.84-11.78,5.27s4.24,5.17,11.78,5.17,11.71-1.77,11.74-5.17c-.03-3.43-4.26-5.27-11.74-5.27M2551.03,2017.9h31.08v-2.99h-31.08v2.99ZM2568.28,1993.23v-2.56h-3.79v2.56c-.03,5.52-5.88,10.72-12.34,11.93l1.61,3c5.44-1.19,10.41-4.76,12.65-9.5,2.21,4.77,7.2,8.32,12.64,9.5l1.63-3c-6.51-1.17-12.39-6.41-12.39-11.93M2536.45,2004.02h6.16v18.35h3.56v-33.96h-3.56v12.65h-6.16v2.96ZM2525.46,2011.06v-16.34h4.92v16.18c-1.65.08-3.31.13-4.92.16M2537.56,1991.79h-18.92v2.93h3.3v16.4c-1.51.01-2.96.03-4.3.04l.35,3.01c5.91,0,13.87-.15,20.8-1.27l-.23-2.63c-1.51.18-3.1.32-4.7.43v-15.99h3.71v-2.93ZM2502.71,2008.13h3.42v-8.35h4.1v8.62h3.4v-19.97h-3.4v8.35h-4.1v-7.72h-3.42v19.07ZM2494.52,2012.75h15.6v6.26h-15.6v-6.26ZM2490.95,2021.93h22.68v-12.06h-22.68v12.06ZM2499.83,1990.64h-13.35v2.94h9.77c-.12,1.14-.35,2.22-.7,3.27l-10.63.64.52,2.93,8.86-.94c-1.8,2.87-4.84,5.24-9.45,7.02l1.74,2.68c9.38-3.83,13.23-10.17,13.23-18.55M2458.6,1994.63c-.03-2,2.97-3.13,8.38-3.15,5.44.01,8.43,1.15,8.43,3.15s-2.99,3.16-8.43,3.18c-5.4-.01-8.4-1.09-8.38-3.18M2451.53,2005.37h13.63v2.89h-9.94v2.69h19.81v2.67h-19.74v8.42h24.25v-2.79h-20.73v-3.04h19.75v-7.95h-9.8v-2.89h13.72v-2.85h-30.96v2.85ZM2466.98,1988.78c-7.65,0-12.14,2.09-12.14,5.86s4.49,5.86,12.14,5.88c7.65-.03,12.11-2.09,12.11-5.88s-4.46-5.86-12.11-5.86M2435.54,2002.61h7.57v19.82h3.57v-34.02h-3.57v11.28h-7.57v2.92ZM2430.61,1997.05v-5.82h-3.65v5.82c-.03,6.29-3.54,12.84-8.79,15.36l2.28,2.89c3.9-2.02,6.86-6.15,8.36-11.04,1.49,4.65,4.41,8.48,8.28,10.43l2.17-2.9c-5.19-2.33-8.67-8.52-8.66-14.74M2375.25,2017.78h30.96v-2.97h-11.63v-11.02h-3.54v11.02h-4.89v-11.02h-3.59v11.02h-7.31v2.97ZM2402.84,1991.67h-24.4v2.92h20.81v.7c0,4.18,0,8.72-1.18,14.88l3.54.37c1.21-6.5,1.21-10.96,1.23-15.25v-3.62ZM2365.16,2009.64h3.61v-9.05h4.92v-2.98h-4.92v-9.22h-3.61v21.24ZM2347.45,2002.45c-.03-2.1,1.9-3.41,4.8-3.43,2.87.03,4.8,1.33,4.82,3.43-.03,2.09-1.96,3.35-4.82,3.35s-4.82-1.26-4.8-3.35M2346.32,2014.29h18.84v8.07h3.61v-10.99h-22.45v2.92ZM2343.98,2002.45c-.01,3.71,3.35,6.15,8.27,6.15s8.22-2.44,8.23-6.15c-.01-3.73-3.34-6.15-8.23-6.18-4.92.03-8.28,2.45-8.27,6.18M2362.34,1991.85h-8.29v-3.6h-3.58v3.6h-8.34v2.87h20.21v-2.87ZM2310.06,2014.2h2.25c4.96-.03,8.47-.15,12.57-.99l-.3-2.97c-3.62.7-6.75.88-10.92.92v-15.75h9.1v-2.92h-12.7v21.71ZM2338.04,1988.4h-3.42v13.47h-4.4v-12.77h-3.32v31.52h3.32v-15.81h4.4v17.56h3.42v-33.96ZM2300.31,2008.52h3.6v-20.11h-3.6v20.11ZM2279.96,1998.48c-.03-3.03,2.29-5.01,5.52-5.01s5.49,1.98,5.49,5.01-2.3,5.08-5.49,5.05c-3.23.03-5.55-1.98-5.52-5.05M2276.43,1998.48c0,4.8,3.83,8.12,9.05,8.12s9.02-3.32,9.02-8.12-3.82-8.11-9.02-8.1c-5.22-.01-9.05,3.34-9.05,8.1M2303.92,2010.27h-23.02v2.93h19.42v9.15h3.6v-12.09ZM2250.73,2000.02c-.03-1.58,2.56-2.4,7.31-2.4s7.32.82,7.33,2.4c-.01,1.5-2.56,2.32-7.33,2.32s-7.33-.82-7.31-2.32M2249.92,2017.13c0-1.7,2.83-2.6,8.1-2.6s8.1.9,8.1,2.6-2.83,2.53-8.1,2.51c-5.27.03-8.1-.84-8.1-2.51M2244.15,1993.91h27.65v-2.79h-11.95v-3.13h-3.58v3.13h-12.12v2.79ZM2242.58,2010.03h30.96v-2.87h-13.7v-2.34c6.02-.27,9.36-1.92,9.36-4.8,0-3.22-4.01-4.88-11.16-4.86-7.12-.01-11.16,1.65-11.15,4.86-.01,2.89,3.36,4.54,9.38,4.8v2.34h-13.68v2.87ZM2258.02,2011.87c-7.55,0-11.78,1.84-11.78,5.27s4.23,5.17,11.78,5.17,11.71-1.77,11.74-5.17c-.03-3.43-4.26-5.27-11.74-5.27"/>
  <path class="cls-2" d="M1282.15,2109.71h16.79v-17.14h-16.79v17.14ZM1229.35,2100.54c-16.62,0-29.26-11.6-29.26-28.39s11.77-28.22,28.74-28.22c15.41,0,27.18,11.6,27.18,28.39s-11.25,28.22-26.66,28.22M1229.7,2112.31c22.16,0,39.99-18.35,39.82-40.51-.17-21.81-17.31-39.82-39.12-39.82-14.2,0-24.93,5.89-32.55,16.45h-.35c.52-29.08,8.83-47.78,32.03-47.78,13.68,0,21.64,9.35,22.68,20.6h14.37c-1.91-17.14-13.68-32.89-37.39-32.89-30.12,0-45.88,24.41-45.88,61.28,0,24.41,4.15,40.68,16.79,52.11,7.1,6.58,16.62,10.56,29.6,10.56M1125.66,2099.67c-20.95,0-31.16-19.21-31.16-49.34s10.21-49.51,31.16-49.51,30.81,19.39,30.81,49.51-9.69,49.34-30.81,49.34M1125.48,2112.31c29.6,0,46.05-24.24,46.05-61.98s-17.83-61.98-45.88-61.98-46.22,23.54-46.22,61.98,16.79,61.98,46.05,61.98M1058.66,2109.71h16.79v-17.14h-16.79v17.14ZM960.16,2109.71h82.23v-13.85h-64.74c3.29-13.16,19.74-22.85,32.54-29.95,19.04-10.56,34.62-18.18,34.62-41.03,0-21.12-15.58-36.36-39.64-36.36-12.12,0-23.2,3.64-30.82,11.08-7.27,7.27-11.25,16.97-11.25,32.2h15.24c0-12.12,2.08-18.7,6.75-23.72,4.33-4.67,10.56-7.44,18.87-7.44,15.75,0,25.79,9.87,25.79,24.41s-9.52,20.43-25.1,29.43c-20.77,11.94-43.11,23.54-44.49,55.22M926.75,2109.71h14.54v-119.28h-11.25c-2.25,17.48-14.72,22.85-29.26,23.2v9.7h25.97v86.39ZM808.33,2054.32h86.56v-11.94h-86.56v11.94ZM783.92,2109.71h16.79v-17.14h-16.79v17.14ZM751.73,2109.71h14.54v-119.28h-11.25c-2.25,17.48-14.71,22.85-29.26,23.2v9.7h25.97v86.39ZM672.44,2099.67c-20.95,0-31.16-19.21-31.16-49.34s10.21-49.51,31.16-49.51,30.82,19.39,30.82,49.51-9.7,49.34-30.82,49.34M672.26,2112.31c29.6,0,46.05-24.24,46.05-61.98s-17.83-61.98-45.88-61.98-46.22,23.54-46.22,61.98,16.79,61.98,46.05,61.98M598.51,2109.71h16.79v-17.14h-16.79v17.14ZM500.01,2109.71h82.23v-13.85h-64.75c3.29-13.16,19.74-22.85,32.55-29.95,19.04-10.56,34.62-18.18,34.62-41.03,0-21.12-15.58-36.36-39.65-36.36-12.12,0-23.2,3.64-30.81,11.08-7.27,7.27-11.25,16.97-11.25,32.2h15.24c0-12.12,2.08-18.7,6.75-23.72,4.33-4.67,10.56-7.44,18.87-7.44,15.75,0,25.8,9.87,25.8,24.41s-9.52,20.43-25.1,29.43c-20.77,11.94-43.11,23.54-44.49,55.22M466.6,2109.71h14.54v-119.28h-11.25c-2.25,17.48-14.71,22.85-29.26,23.2v9.7h25.97v86.39ZM427.65,2109.71h16.79v-17.14h-16.79v17.14ZM371.9,2112.31c24.58,0,42.59-15.93,42.59-41.2s-19.22-41.37-40.34-41.37c-11.43,0-20.43,3.63-27.18,10.04h-.35l7.79-35.66h52.97v-12.98h-63.19l-13.16,63.71h14.02c5.02-7.1,13.85-12.29,26.66-12.29,15.58,0,27.87,10.38,27.87,28.22s-10.91,28.74-27.87,28.74-27.18-9.35-29.08-24.06h-14.37c1.04,21.99,19.04,36.87,43.62,36.87M236.87,2109.71h82.23v-13.85h-64.74c3.29-13.16,19.74-22.85,32.55-29.95,19.04-10.56,34.62-18.18,34.62-41.03,0-21.12-15.58-36.36-39.64-36.36-12.12,0-23.2,3.64-30.82,11.08-7.27,7.27-11.25,16.97-11.25,32.2h15.23c0-12.12,2.08-18.7,6.75-23.72,4.33-4.67,10.56-7.44,18.87-7.44,15.75,0,25.8,9.87,25.8,24.41s-9.52,20.43-25.1,29.43c-20.77,11.94-43.11,23.54-44.49,55.22M185.8,2099.67c-20.95,0-31.16-19.21-31.16-49.34s10.21-49.51,31.16-49.51,30.81,19.39,30.81,49.51-9.69,49.34-30.81,49.34M185.63,2112.31c29.6,0,46.05-24.24,46.05-61.98s-17.83-61.98-45.88-61.98-46.22,23.54-46.22,61.98,16.79,61.98,46.05,61.98M48,2109.71h82.23v-13.85h-64.75c3.29-13.16,19.74-22.85,32.55-29.95,19.04-10.56,34.62-18.18,34.62-41.03,0-21.12-15.58-36.36-39.64-36.36-12.12,0-23.2,3.64-30.82,11.08-7.27,7.27-11.25,16.97-11.25,32.2h15.24c0-12.12,2.08-18.7,6.75-23.72,4.33-4.67,10.56-7.44,18.87-7.44,15.75,0,25.79,9.87,25.79,24.41s-9.52,20.43-25.1,29.43c-20.77,11.94-43.11,23.54-44.49,55.22"/>
  <path class="cls-2" d="M3763.75,2068.54h3.57v-17.46c0-2.56-.23-7.41-.23-7.41h.08s1.2,4.35,2.02,6.6l7.03,18.28h3.11l7.02-18.28c.85-2.25,2.02-6.6,2.02-6.6h.08s-.23,4.85-.23,7.41v17.46h3.8v-28.87h-5.28l-5.9,15.67c-1.17,3.18-2.95,9.05-2.95,9.05h-.08s-1.75-5.9-2.91-9.05l-6.02-15.68h-5.12v28.87ZM3743.02,2043.12h7.53c3.57,0,5.63,1.75,5.63,5.13s-1.86,5.2-5.78,5.2h-7.38v-10.33ZM3739.03,2068.54h3.99v-11.88h7.77c6.25,0,9.35-3.22,9.35-8.54,0-2.29-.78-4.15-2.05-5.67-1.47-1.78-3.84-2.79-6.91-2.79h-12.14v28.87ZM3725.02,2065.79c-3.73,0-6.6-2.64-6.6-6.44s2.64-6.37,6.48-6.37c3.53,0,6.21,2.6,6.21,6.41s-2.6,6.41-6.1,6.41M3725.1,2068.77c5.32,0,9.54-4.26,9.5-9.51-.04-5.16-4.11-9.31-9.19-9.31-3.34,0-5.78,1.32-7.61,4.34h-.08c.19-7.18,2.17-11.37,7.38-11.37,3.11,0,4.77,2.14,5.05,4.04h3.68c-.5-3.42-3.25-7.1-8.81-7.1-3.57,0-6.25,1.39-8.07,3.88-1.82,2.52-2.75,6.14-2.75,10.44,0,5.55.97,9.32,3.84,11.96,1.67,1.63,3.96,2.64,7.07,2.64M3693.12,2055.92h19.4v-3.1h-19.4v3.1ZM3662.3,2068.54h3.57v-17.46c0-2.56-.23-7.41-.23-7.41h.08s1.2,4.35,2.02,6.6l7.03,18.28h3.11l7.02-18.28c.85-2.25,2.02-6.6,2.02-6.6h.08s-.23,4.85-.23,7.41v17.46h3.8v-28.87h-5.28l-5.9,15.67c-1.17,3.18-2.95,9.05-2.95,9.05h-.08s-1.75-5.9-2.91-9.05l-6.02-15.68h-5.12v28.87ZM3644.29,2048.94c.93-2.68,1.79-6.13,1.79-6.13h.12s.78,3.34,1.75,6.13l2.76,8.07h-9.24l2.83-8.07ZM3633.35,2068.54h4.07l2.95-8.42h11.37l2.87,8.42h4.34l-10.63-28.87h-4.43l-10.55,28.87ZM3620.07,2065.59c-4.74,0-7.07-4.43-7.07-11.3s2.33-11.29,7.07-11.29,6.99,4.42,6.99,11.29-2.17,11.3-6.99,11.3M3620.04,2068.77c6.95,0,10.9-5.66,10.9-14.47s-4.22-14.43-10.86-14.43-10.9,5.51-10.9,14.43,4.03,14.47,10.86,14.47M3600.28,2068.15h3.76v-27.82h-2.91c-.5,4.04-3.76,5.35-7.26,5.43v2.48h6.4v19.91ZM3567.57,2075.8c2.68,0,4.35-.97,6.05-5.35l8.85-22.74h-3.76l-4.15,11.57c-.81,2.33-1.79,5.63-1.79,5.63h-.08s-.89-3.26-1.74-5.63l-4.31-11.57h-3.92l7.95,19.79c.08.23-.74,2.56-.74,2.64-.74,1.98-1.67,2.52-3.1,2.52-.89,0-1.79-.16-2.17-.39h-.16v3.1c.58.23,1.9.43,3.06.43M3550.88,2066.33c-2.1,0-4.15-.66-4.15-3.34,0-2.87,2.25-3.49,5.67-4.08,1.71-.31,3.53-.82,4.58-1.48v3.42c0,2.4-1.94,5.47-6.1,5.47M3549.98,2068.97c3.53,0,5.67-1.67,6.99-3.49h.04c.39,2.21,1.47,3.26,3.68,3.26.85,0,1.44-.16,1.94-.31v-2.52h-.16c-1.82.39-2.21-.5-2.21-2.17v-9.74c0-2.79-1.05-4.62-2.79-5.66-1.32-.78-3.07-1.12-5.05-1.12-5.63,0-8.3,3.14-8.46,6.67h3.49c.12-2.48,1.71-4.03,5.01-4.03,2.87,0,4.47,1.4,4.47,3.65,0,2.13-1.98,2.64-5.05,2.99-5.4.66-8.96,1.71-8.96,6.56,0,4,3.1,5.94,7.06,5.94M3529.38,2066.18c-3.84,0-5.78-3.38-5.78-7.96s1.94-8,5.78-8c4.2,0,6.41,3.3,6.41,8s-1.94,7.96-6.41,7.96M3529.11,2069.16c2.91,0,5.13-1.36,6.45-3.6h.08v2.98h3.57v-28.87h-3.6v7.37c0,1.4.04,2.91.12,3.84h-.08c-1.32-2.21-3.65-3.68-6.6-3.68-5.17,0-9.12,4.11-9.12,10.98s3.57,10.98,9.19,10.98M3511.06,2047.7h-3.57v20.84h3.6v-11.33c0-3.92,2.76-6.33,5.98-6.33.62,0,.97.04,1.48.19h.12v-3.41c-.39-.16-.74-.23-1.32-.23-2.76,0-4.89,1.63-6.17,4.03h-.12v-3.76ZM3502.87,2068.54v-20.84h-3.6v12.69c0,3.22-2.06,5.67-5.24,5.67-2.88,0-4.54-1.55-4.54-4.19v-14.17h-3.6v14.36c0,4.35,2.75,6.94,7.06,6.94,2.99,0,4.81-1.32,6.29-3.37h.08v2.91h3.57ZM3471.48,2050.49h3.26v13.98c0,3.06,1.94,4.19,4.73,4.23.93,0,1.94-.12,2.91-.35v-3.02h-.12c-.39.12-1.2.27-1.82.27-1.32,0-2.13-.43-2.13-1.94v-13.16h4.31v-2.79h-4.31v-6.56h-3.57v6.56h-3.26v2.79ZM3458.82,2066.33c-2.1,0-4.15-.66-4.15-3.34,0-2.87,2.25-3.49,5.67-4.08,1.71-.31,3.53-.82,4.58-1.48v3.42c0,2.4-1.94,5.47-6.1,5.47M3457.93,2068.97c3.53,0,5.67-1.67,6.99-3.49h.04c.39,2.21,1.47,3.26,3.68,3.26.85,0,1.44-.16,1.94-.31v-2.52h-.16c-1.82.39-2.21-.5-2.21-2.17v-9.74c0-2.79-1.05-4.62-2.79-5.66-1.32-.78-3.07-1.12-5.05-1.12-5.63,0-8.3,3.14-8.46,6.67h3.49c.12-2.48,1.71-4.03,5.01-4.03,2.87,0,4.47,1.4,4.47,3.65,0,2.13-1.98,2.64-5.05,2.99-5.4.66-8.96,1.71-8.96,6.56,0,4,3.1,5.94,7.06,5.94M3437.12,2069.12c6.25,0,10.75-3.06,10.75-8.53,0-6.44-5.08-7.88-10.67-9.01-4.35-.89-7.49-1.79-7.49-4.93,0-2.87,2.48-4.43,6.29-4.43,4.08,0,6.6,1.9,7.11,5.4h3.84c-.7-4.93-3.88-8.49-10.98-8.49-5.94,0-10.01,2.87-10.01,7.72,0,5.55,4.38,7.02,9.54,8.11,5.05,1.13,8.39,2.02,8.39,5.78,0,3.49-2.8,5.2-6.64,5.2-5.24,0-8.11-2.41-8.58-6.76h-3.92c.31,5.51,4.3,9.93,12.38,9.93M3406.97,2074.55c2.75-.35,4.15-2.21,4.15-5.63v-4.65h-4.19v4.26h1.94v.39c0,2.44-.81,3.22-1.9,3.61v2.02ZM3374.02,2068.54h3.57v-17.46c0-2.56-.23-7.41-.23-7.41h.08s1.2,4.35,2.02,6.6l7.03,18.28h3.11l7.02-18.28c.85-2.25,2.02-6.6,2.02-6.6h.08s-.23,4.85-.23,7.41v17.46h3.8v-28.87h-5.27l-5.9,15.67c-1.16,3.18-2.95,9.05-2.95,9.05h-.08s-1.75-5.9-2.91-9.05l-6.02-15.68h-5.12v28.87ZM3353.3,2043.12h7.53c3.57,0,5.63,1.75,5.63,5.13s-1.86,5.2-5.78,5.2h-7.38v-10.33ZM3349.3,2068.54h3.99v-11.88h7.76c6.25,0,9.35-3.22,9.35-8.54,0-2.29-.78-4.15-2.05-5.67-1.47-1.78-3.84-2.79-6.91-2.79h-12.15v28.87ZM3334.63,2065.71c-4.31,0-6.87-2.02-6.87-5.52s2.52-5.71,6.75-5.71,6.83,2.21,6.83,5.71-2.56,5.52-6.72,5.52M3334.51,2051.66c-3.45,0-5.59-1.67-5.59-4.43s2.14-4.39,5.59-4.39,5.59,1.63,5.59,4.39-2.14,4.43-5.59,4.43M3334.63,2068.77c5.28,0,10.44-2.36,10.44-8.54,0-3.73-2.4-6.29-5.94-7.18v-.12c2.95-.93,4.62-3.02,4.62-5.86,0-4.43-3.99-7.26-9.24-7.26s-9.19,2.87-9.19,7.29c0,2.83,1.67,4.93,4.65,5.82v.12c-3.53.97-6.05,3.26-6.05,7.18,0,6.13,5.43,8.54,10.71,8.54M3303.31,2055.92h19.4v-3.1h-19.4v3.1ZM3272.5,2068.54h3.57v-17.46c0-2.56-.23-7.41-.23-7.41h.08s1.2,4.35,2.02,6.6l7.02,18.28h3.11l7.03-18.28c.85-2.25,2.02-6.6,2.02-6.6h.08s-.23,4.85-.23,7.41v17.46h3.8v-28.87h-5.28l-5.9,15.67c-1.16,3.18-2.95,9.05-2.95,9.05h-.08s-1.75-5.9-2.91-9.05l-6.02-15.68h-5.12v28.87ZM3254.49,2048.94c.93-2.68,1.79-6.13,1.79-6.13h.12s.78,3.34,1.74,6.13l2.76,8.07h-9.24l2.83-8.07ZM3243.55,2068.54h4.08l2.95-8.42h11.37l2.87,8.42h4.35l-10.63-28.87h-4.42l-10.56,28.87ZM3230.27,2065.59c-4.74,0-7.07-4.43-7.07-11.3s2.33-11.29,7.07-11.29,6.99,4.42,6.99,11.29-2.17,11.3-6.99,11.3M3230.23,2068.77c6.95,0,10.9-5.66,10.9-14.47s-4.23-14.43-10.86-14.43-10.9,5.51-10.9,14.43,4.03,14.47,10.86,14.47M3210.48,2068.15h3.76v-27.82h-2.91c-.5,4.04-3.76,5.35-7.26,5.43v2.48h6.4v19.91ZM3177.76,2075.8c2.68,0,4.35-.97,6.05-5.35l8.85-22.74h-3.76l-4.15,11.57c-.81,2.33-1.78,5.63-1.78,5.63h-.08s-.89-3.26-1.74-5.63l-4.31-11.57h-3.92l7.95,19.79c.08.23-.74,2.56-.74,2.64-.74,1.98-1.67,2.52-3.11,2.52-.89,0-1.78-.16-2.17-.39h-.16v3.1c.58.23,1.9.43,3.06.43M3161.07,2066.33c-2.1,0-4.15-.66-4.15-3.34,0-2.87,2.25-3.49,5.67-4.08,1.71-.31,3.53-.82,4.58-1.48v3.42c0,2.4-1.94,5.47-6.1,5.47M3160.18,2068.97c3.53,0,5.67-1.67,6.99-3.49h.04c.39,2.21,1.47,3.26,3.68,3.26.85,0,1.43-.16,1.94-.31v-2.52h-.16c-1.82.39-2.21-.5-2.21-2.17v-9.74c0-2.79-1.05-4.62-2.79-5.66-1.32-.78-3.07-1.12-5.05-1.12-5.63,0-8.3,3.14-8.46,6.67h3.49c.12-2.48,1.71-4.03,5.01-4.03,2.88,0,4.47,1.4,4.47,3.65,0,2.13-1.98,2.64-5.05,2.99-5.4.66-8.96,1.71-8.96,6.56,0,4,3.1,5.94,7.06,5.94M3139.57,2066.18c-3.84,0-5.79-3.38-5.79-7.96s1.94-8,5.79-8c4.19,0,6.41,3.3,6.41,8s-1.94,7.96-6.41,7.96M3139.3,2069.16c2.91,0,5.12-1.36,6.44-3.6h.08v2.98h3.57v-28.87h-3.6v7.37c0,1.4.04,2.91.12,3.84h-.08c-1.32-2.21-3.65-3.68-6.6-3.68-5.16,0-9.12,4.11-9.12,10.98s3.57,10.98,9.2,10.98M3125.44,2068.54h4.23l-8.89-13.35,7.96-7.49h-4.5l-9.04,8.89c.08-1.01.15-2.48.15-3.22v-13.7h-3.6v28.87h3.6v-8.19l2.95-2.79,7.14,10.98ZM3098.59,2049.99c3.61,0,5.67,2.41,5.86,6.41h-12.07c.47-3.69,2.45-6.41,6.21-6.41M3098.78,2069.12c4.81,0,8.15-2.64,9.08-6.52h-3.53c-.66,2.21-2.64,3.57-5.51,3.57-4.04,0-6.25-3.11-6.52-7.19h15.99c0-3.53-.85-6.52-2.56-8.58-1.63-2.02-4.03-3.22-7.14-3.22-5.98,0-9.97,4.89-9.97,10.94s3.76,10.98,10.16,10.98M3076.58,2049.99c3.61,0,5.67,2.41,5.86,6.41h-12.08c.47-3.69,2.45-6.41,6.21-6.41M3076.78,2069.12c4.81,0,8.15-2.64,9.08-6.52h-3.53c-.66,2.21-2.64,3.57-5.51,3.57-4.04,0-6.25-3.11-6.52-7.19h15.99c0-3.53-.85-6.52-2.56-8.58-1.63-2.02-4.04-3.22-7.14-3.22-5.98,0-9.97,4.89-9.97,10.94s3.76,10.98,10.17,10.98M3038.36,2068.54h3.96l5.08-18.51c.66-2.53,1.4-7.18,1.4-7.18h.08s.7,4.66,1.36,7.22l4.73,18.47h3.84l8.03-28.87h-4.08l-4.31,16.99c-.7,2.84-1.44,7.65-1.44,7.65h-.08s-.78-4.85-1.51-7.68l-4.5-16.96h-4.19l-4.66,16.96c-.74,2.83-1.51,7.68-1.51,7.68h-.08s-.66-4.81-1.36-7.64l-4.15-17h-4.15l7.53,28.87Z"/>
  <path class="cls-2" d="M3638.32,2018.73h3.56v-17.46c0-2.56-.23-7.41-.23-7.41h.08s1.2,4.35,2.02,6.6l7.02,18.28h3.11l7.03-18.28c.85-2.25,2.02-6.6,2.02-6.6h.08s-.23,4.85-.23,7.41v17.46h3.8v-28.87h-5.27l-5.9,15.67c-1.16,3.19-2.95,9.05-2.95,9.05h-.08s-1.75-5.9-2.91-9.05l-6.02-15.68h-5.12v28.87ZM3617.59,1993.31h7.53c3.57,0,5.63,1.75,5.63,5.13s-1.86,5.2-5.79,5.2h-7.38v-10.33ZM3613.6,2018.73h3.99v-11.88h7.76c6.25,0,9.35-3.22,9.35-8.54,0-2.29-.78-4.15-2.05-5.67-1.47-1.78-3.84-2.79-6.91-2.79h-12.15v28.87ZM3599.59,2015.98c-3.73,0-6.6-2.64-6.6-6.44s2.64-6.37,6.48-6.37c3.53,0,6.21,2.6,6.21,6.41s-2.6,6.41-6.09,6.41M3599.66,2018.96c5.32,0,9.54-4.26,9.51-9.51-.04-5.16-4.11-9.31-9.2-9.31-3.34,0-5.78,1.32-7.61,4.34h-.08c.19-7.18,2.17-11.37,7.38-11.37,3.11,0,4.78,2.14,5.05,4.04h3.68c-.5-3.42-3.26-7.1-8.81-7.1-3.57,0-6.25,1.39-8.08,3.88-1.82,2.52-2.75,6.14-2.75,10.44,0,5.55.97,9.32,3.84,11.96,1.67,1.63,3.96,2.64,7.07,2.64M3567.69,2006.12h19.4v-3.1h-19.4v3.1ZM3536.87,2018.73h3.56v-17.46c0-2.56-.23-7.41-.23-7.41h.08s1.2,4.35,2.02,6.6l7.02,18.28h3.11l7.03-18.28c.85-2.25,2.02-6.6,2.02-6.6h.08s-.23,4.85-.23,7.41v17.46h3.8v-28.87h-5.27l-5.9,15.67c-1.16,3.19-2.95,9.05-2.95,9.05h-.08s-1.74-5.9-2.91-9.05l-6.02-15.68h-5.12v28.87ZM3518.86,1999.13c.93-2.68,1.78-6.13,1.78-6.13h.12s.78,3.34,1.74,6.13l2.76,8.07h-9.24l2.83-8.07ZM3507.92,2018.73h4.08l2.95-8.42h11.37l2.87,8.42h4.35l-10.63-28.87h-4.42l-10.56,28.87ZM3494.65,2015.78c-4.74,0-7.07-4.43-7.07-11.29s2.33-11.3,7.07-11.3,6.99,4.43,6.99,11.3-2.17,11.29-6.99,11.29M3494.61,2018.96c6.95,0,10.9-5.66,10.9-14.47s-4.23-14.44-10.86-14.44-10.9,5.51-10.9,14.44,4.03,14.47,10.86,14.47M3474.85,2018.34h3.76v-27.82h-2.91c-.5,4.04-3.76,5.36-7.26,5.43v2.48h6.4v19.91ZM3452.49,2005.38h-20.02v-4.6h18.94v-2.88h-18.94v-4.34h19.69v-2.94h-23.32v17.65h9.77v6.63h-13.67v2.93h31.08v-2.93h-13.8v-6.63h10.28v-2.89ZM3407.88,2024.74c2.76-.35,4.15-2.21,4.15-5.63v-4.65h-4.19v4.26h1.94v.39c0,2.45-.82,3.22-1.9,3.61v2.02ZM3374.93,2018.73h3.57v-17.46c0-2.56-.23-7.41-.23-7.41h.08s1.2,4.35,2.02,6.6l7.03,18.28h3.11l7.03-18.28c.85-2.25,2.02-6.6,2.02-6.6h.08s-.23,4.85-.23,7.41v17.46h3.8v-28.87h-5.28l-5.9,15.67c-1.16,3.19-2.95,9.05-2.95,9.05h-.08s-1.75-5.9-2.91-9.05l-6.02-15.68h-5.12v28.87ZM3354.2,1993.31h7.53c3.57,0,5.63,1.75,5.63,5.13s-1.86,5.2-5.78,5.2h-7.38v-10.33ZM3350.21,2018.73h3.99v-11.88h7.77c6.25,0,9.35-3.22,9.35-8.54,0-2.29-.78-4.15-2.05-5.67-1.47-1.78-3.84-2.79-6.91-2.79h-12.14v28.87ZM3335.54,2015.9c-4.31,0-6.87-2.02-6.87-5.51s2.52-5.71,6.76-5.71,6.83,2.22,6.83,5.71-2.56,5.51-6.72,5.51M3335.42,2001.85c-3.46,0-5.59-1.67-5.59-4.43s2.14-4.39,5.59-4.39,5.59,1.63,5.59,4.39-2.13,4.43-5.59,4.43M3335.54,2018.96c5.28,0,10.44-2.36,10.44-8.53,0-3.73-2.4-6.29-5.93-7.18v-.12c2.95-.93,4.61-3.03,4.61-5.86,0-4.43-3.99-7.26-9.23-7.26s-9.2,2.87-9.2,7.29c0,2.83,1.67,4.93,4.65,5.82v.12c-3.53.97-6.05,3.26-6.05,7.18,0,6.13,5.43,8.53,10.71,8.53M3304.22,2006.12h19.4v-3.1h-19.4v3.1ZM3273.41,2018.73h3.57v-17.46c0-2.56-.23-7.41-.23-7.41h.08s1.2,4.35,2.02,6.6l7.02,18.28h3.11l7.03-18.28c.85-2.25,2.02-6.6,2.02-6.6h.08s-.23,4.85-.23,7.41v17.46h3.8v-28.87h-5.27l-5.9,15.67c-1.16,3.19-2.95,9.05-2.95,9.05h-.08s-1.75-5.9-2.91-9.05l-6.02-15.68h-5.12v28.87ZM3255.4,1999.13c.93-2.68,1.78-6.13,1.78-6.13h.12s.78,3.34,1.75,6.13l2.75,8.07h-9.24l2.83-8.07ZM3244.45,2018.73h4.08l2.95-8.42h11.37l2.87,8.42h4.35l-10.63-28.87h-4.42l-10.56,28.87ZM3231.18,2015.78c-4.73,0-7.07-4.43-7.07-11.29s2.33-11.3,7.07-11.3,6.99,4.43,6.99,11.3-2.17,11.29-6.99,11.29M3231.14,2018.96c6.95,0,10.9-5.66,10.9-14.47s-4.23-14.44-10.87-14.44-10.9,5.51-10.9,14.44,4.03,14.47,10.86,14.47M3211.39,2018.34h3.76v-27.82h-2.91c-.5,4.04-3.76,5.36-7.26,5.43v2.48h6.4v19.91ZM3170.33,2012.19h16.31v6.41h-16.31v-6.41ZM3166.8,2021.52h23.4v-12.15h-23.4v12.15ZM3190.16,1989.72h-23.25v2.92h19.67c0,2.59-.04,5.5-.93,9.48h-22.63v2.94h31.08v-2.94h-4.82c.89-4.13.89-7.17.89-9.82v-2.57ZM3137.32,1992.24h15.99v5.92h-15.99v-5.92ZM3133.29,2013.97h20.1v7.97h3.62v-10.83h-23.72v2.86ZM3156.86,1989.39h-23.06v11.64h9.73v3.96h-13.67v2.91h30.96v-2.91h-13.71v-3.96h9.76v-11.64ZM3096.69,2009.87h13.63v12.07h3.54v-12.07h13.79v-2.97h-30.96v2.97ZM3114.05,1990.98v-1.85h-3.75v1.85c0,4.57-5.49,8.75-12.15,9.65l1.45,2.94c5.52-.88,10.38-3.75,12.6-7.77,2.21,3.99,7.08,6.89,12.62,7.77l1.44-2.94c-6.69-.9-12.2-5.13-12.2-9.65M3069.2,2003c0-2.17,1.89-3.57,4.74-3.57s4.72,1.39,4.72,3.57-1.89,3.5-4.72,3.48c-2.85.01-4.74-1.32-4.74-3.48M3063.72,1994.89h20.37v-2.87h-8.36v-3.94h-3.6v3.94h-8.4v2.87ZM3063.09,2012.71l.55,3c5.87,0,13.82-.07,21.19-1.37l-.25-2.67c-2.82.4-5.84.64-8.85.79v-3.31c3.82-.55,6.37-2.87,6.39-6.16-.03-3.83-3.38-6.35-8.17-6.35s-8.16,2.52-8.13,6.35c-.03,3.28,2.48,5.6,6.31,6.16v3.44c-3.24.09-6.35.11-9.03.11M3090.13,1987.99h-3.62v33.96h3.62v-16.71h5.09v-3.01h-5.09v-14.23ZM3036.19,1993.71c-.03-1.62,1.97-2.68,5.1-2.68s5.08,1.06,5.08,2.68-2,2.67-5.08,2.67-5.13-1.04-5.1-2.67M3035.35,2011.59h19.67v2.4h-19.54v7.64h24.13v-2.61h-20.6v-2.61h19.58v-7.33h-23.25v2.52ZM3032.79,1993.71c0,3.18,3.36,5.08,8.51,5.08s8.44-1.9,8.47-5.08c-.03-3.11-3.42-5.1-8.47-5.1s-8.51,2-8.51,5.1M3030.25,2000.54l.42,2.58c2.65.01,5.6.01,8.66-.08v4.96h3.55v-5.09c3.26-.17,6.58-.44,9.8-.88l-.21-2.31c-7.32.76-15.63.83-22.21.82M3058.6,1988.01h-3.62v16.02h-6.62v2.26h6.62v1.63h3.62v-19.91Z"/>
  <rect class="cls-1" width="3840" height="2160"/>
</svg>