<?xml version="1.0" encoding="UTF-8"?>
<svg id="_레이어_1" data-name="레이어 1" xmlns="http://www.w3.org/2000/svg" viewBox="0 0 704.69 508.82">
  <defs>
    <style>
      .cls-1 {
        fill: none;
      }
    </style>
  </defs>
  <rect class="cls-1" width="704.69" height="508.82"/>
  <g>
    <path d="M672.6,278.15l.74-.98.98.74c-1.02,20.01-5.28,39.55-12.79,58.62-7.51,19.08-17.81,37.22-30.89,54.42-13.18,17.34-27.96,32.17-44.34,44.51-16.37,12.34-34.06,21.67-53.07,27.99l-.98-.74.74-.98c16.11-8.73,32.06-19.9,47.85-33.51,15.8-13.6,29.59-28.15,41.38-43.67,11.79-15.51,22.14-32.69,31.02-51.55,8.89-18.85,15.33-37.14,19.35-54.87"/>
    <path d="M32.1,212.44l-.74.98-.98-.74c1.02-20.01,5.28-39.54,12.79-58.62,7.51-19.07,17.86-37.28,31.04-54.62,13.08-17.21,27.81-31.97,44.19-44.31,16.38-12.34,34.06-21.67,53.07-27.99l.98.74-.74.98c-16.14,8.51-32.07,19.59-47.8,33.24-15.73,13.65-29.49,28.23-41.29,43.74-11.8,15.51-22.17,32.67-31.12,51.47-8.95,18.81-15.42,37.18-19.4,55.14"/>
  </g>
</svg>